<svg height="1000" width="1000.0" xmlns="http://www.w3.org/2000/svg"><path d="m849.4 741.6c-9 13-27.5 14.799999999999955-38.69999999999993 3.6000000000000227-8.700000000000045-8.700000000000045-9.5-22.300000000000068-2.400000000000091-32.5 49.90000000000009-72 75.5-162 63.90000000000009-258.40000000000003-21.200000000000045-177-169.20000000000005-316.8-347.1-328.5-234.60000000000002-15.400000000000006-427.5 186.5-396.90000000000003 423.8 20.900000000000006 162.5 149.3 294.9 311.2 320.6 108.20000000000005 17.09999999999991 209.30000000000007-12.600000000000023 287-71.80000000000007 10.100000000000023-7.699999999999932 24.300000000000068-7.199999999999932 33.30000000000007 1.8000000000000682 10.799999999999955 10.799999999999955 9.399999999999977 28.59999999999991-2.800000000000068 37.89999999999998-87.60000000000002 66.69999999999993-201.5 100.5-323.79999999999995 81.69999999999993-184.40000000000003-28.299999999999955-331.1-179-354.5-364.19999999999993-35.300000000000026-278.1 198.39999999999998-512.1 476.5-477.1 191.89999999999998 24.099999999999994 345.69999999999993 180.5 367.19999999999993 372.7 12.100000000000023 108.30000000000001-16.699999999999932 209.50000000000006-72.89999999999998 290.40000000000003z m-349.4-299.1c25 0 50-12.5 67.5-30l100-120c10-10 10-25 0-35s-25-10-35 0l-100 122.5c-17.5 17.5-47.5 17.5-65 0l-100-122.5c-10-10-25-10-35 0s-10 25 0 35l100 120c17.5 17.5 42.5 30 67.5 30z m175 82.5c12.5 0 25-12.5 25-25s-12.5-25-25-25h-350c-12.5 0-25 12.5-25 25s12.5 25 25 25h150v75h-150c-12.5 0-25 12.5-25 25s12.5 25 25 25h150v100c0 12.5 12.5 25 25 25s25-12.5 25-25v-100h150c12.5 0 25-12.5 25-25s-12.5-25-25-25h-150v-75h150z"/></svg>