<svg height="1000" width="1000.0" xmlns="http://www.w3.org/2000/svg"><path d="m900 350v450c0 55.200000000000045-44.799999999999955 100-100 100h-600c-55.19999999999999 0-100-44.799999999999955-100-100v-600c0-55.19999999999999 44.80000000000001-100 100-100h475c13.799999999999955 0 25 11.200000000000003 25 25s-11.200000000000045 25-25 25h-475c-27.599999999999994 0-50 22.400000000000006-50 50v600c0 27.600000000000023 22.400000000000006 50 50 50h600c27.600000000000023 0 50-22.399999999999977 50-50v-450c0-13.800000000000011 11.200000000000045-25 25-25s25 11.199999999999989 25 25z m-427.4 177.39999999999998c9.699999999999989 9.700000000000045 25.599999999999966 9.700000000000045 35.299999999999955 0l384.80000000000007-384.7c9.699999999999932-9.799999999999983 9.699999999999932-25.69999999999999 0-35.39999999999999s-25.600000000000023-9.700000000000003-35.40000000000009 0l-384.69999999999993 384.8c-9.700000000000045 9.699999999999989-9.700000000000045 25.600000000000023 0 35.299999999999955z"/></svg>