<svg height="1000" width="1000.0" xmlns="http://www.w3.org/2000/svg"><path d="m900 200v675c0 13.799999999999955-11.200000000000045 25-25 25s-25-11.200000000000045-25-25v-673.2c-1.7000000000000455-10.499999999999943-14.799999999999955-76.79999999999995-75-76.79999999999995-60.700000000000045 0-73.29999999999995 66-75 76.69999999999999v73.30000000000001c0 7.899999999999977-3.7999999999999545 15.399999999999977-10.200000000000045 20.100000000000023s-14.5 6.199999999999989-22.09999999999991 3.7999999999999545c-0.8000000000000682-0.19999999999998863-79.10000000000002-23.899999999999977-167.70000000000005-23.899999999999977-89 0-166.89999999999998 23.69999999999999-167.7 23.899999999999977-7.5 2.3000000000000114-15.800000000000011 0.9000000000000341-22.100000000000023-3.7999999999999545-6.399999999999977-4.7000000000000455-10.199999999999989-12.200000000000045-10.199999999999989-20.100000000000023v-75c-0.5-6.199999999999989-7.399999999999977-75-75-75-69.5 0-74.80000000000001 73.4-75.1 76.6l0.09999999999999432 673.4c0 13.799999999999955-11.199999999999989 25-25 25s-25-11.200000000000045-25-25v-675c2.700000000000003-44.30000000000001 32.30000000000001-125 125-125s125 80.69999999999999 125 123.4v44.29999999999998c25-7.599999999999994 88.89999999999998-17.69999999999999 150-17.69999999999999s116.70000000000005 10.099999999999994 150 17.69999999999999v-42.69999999999999c0-1 0.10000000000002274-2.0999999999999943 0.20000000000004547-3.0999999999999943 5.2999999999999545-42.20000000000002 38.09999999999991-121.9 124.79999999999995-121.9s119.5 79.69999999999999 124.79999999999995 121.9c0.20000000000004547 1 0.20000000000004547 2.0999999999999943 0.20000000000004547 3.0999999999999943z m-225 449.9c0 13.800000000000068-11.100000000000023 25-24.799999999999955 25.100000000000023-2.5 0.10000000000002274-23.5 0-50.200000000000045-4.899999999999977v129.89999999999998c0 55.200000000000045-44.799999999999955 100-100 100s-100-44.799999999999955-100-100v-130.10000000000002c-25.69999999999999 4.800000000000068-46 5.100000000000023-49.69999999999999 5.100000000000023-0.19999999999998863 0-0.30000000000001137 0-0.5 0-13.800000000000011-0.10000000000002274-24.900000000000034-11.299999999999955-24.80000000000001-25.100000000000023s11.300000000000011-24.899999999999977 25-24.899999999999977c0.10000000000002274 0 0.10000000000002274 0 0.10000000000002274 0 1.2999999999999545 0 106.89999999999998-1.2999999999999545 126.19999999999999-58.10000000000002 3.5-10.100000000000023 13.099999999999966-17.799999999999955 23.899999999999977-16.899999999999977 10.800000000000011 0.10000000000002274 20.30000000000001 7.100000000000023 23.599999999999966 17.399999999999977 18 56.30000000000007 124.70000000000005 57.60000000000002 126 57.60000000000002 0.10000000000002274 0 0.10000000000002274 0 0.10000000000002274 0 13.800000000000068 0 25 11.100000000000023 25 24.899999999999977z m-125 5.7000000000000455c-18.399999999999977-7.7000000000000455-36.200000000000045-18.300000000000068-50.19999999999999-33.200000000000045-14.100000000000023 14.700000000000045-31.69999999999999 25.200000000000045-49.80000000000001 32.80000000000007v144.79999999999995c0 27.600000000000023 22.399999999999977 50 50 50s50-22.399999999999977 50-50v-144.39999999999998z m-200-155.60000000000002c13.800000000000011 0 25-11.199999999999989 25-25v-50c0-13.699999999999989-11.199999999999989-25-25-25s-25 11.300000000000011-25 25v50c0 13.800000000000011 11.300000000000011 25 25 25z m300-100c-13.700000000000045 0-25 11.300000000000011-25 25v50c0 13.800000000000011 11.299999999999955 25 25 25s25-11.199999999999989 25-25v-50c0-13.699999999999989-11.200000000000045-25-25-25z"/></svg>