<svg height="1000" width="1000.0" xmlns="http://www.w3.org/2000/svg"><path d="m875 200c0-55.19999999999999-44.799999999999955-100-100-100h-550c-55.19999999999999 0-100 44.80000000000001-100 100v50c0 0.30000000000001137 0.09999999999999432 0.5 0.09999999999999432 0.8000000000000114 0 0.09999999999999432-0.09999999999999432 0.19999999999998863-0.09999999999999432 0.29999999999998295l25 548.9c0 55.200000000000045 44.80000000000001 100 100 100h500c55.10000000000002 0 100-44.799999999999955 99.89999999999998-98.89999999999998l25-550c0-0.10000000000002274 0-0.20000000000001705 0-0.30000000000001137 0-0.30000000000001137 0-0.5 0-0.8000000000000114v-50z m-650-50h550c27.600000000000023 0 50 22.400000000000006 50 50v49.400000000000006l-0.10000000000002274 1.0999999999999943c-0.1999999999999318 27.30000000000001-22.5 49.5-49.89999999999998 49.5h-550c-27.400000000000006 0-49.69999999999999-22.19999999999999-49.900000000000006-49.5l-0.09999999999999432-1.0999999999999943v-49.400000000000006c0-27.599999999999994 22.400000000000006-50 50-50z m575 650c0 27.600000000000023-22.399999999999977 50-50 50h-500c-27.599999999999994 0-50-22.399999999999977-50-51.10000000000002l-21-460.59999999999997c13.800000000000011 7.199999999999989 29.30000000000001 11.699999999999989 46 11.699999999999989h550c16.600000000000023 0 32.10000000000002-4.5 45.89999999999998-11.699999999999989l-20.899999999999977 461.7z m-75-350c0 18.80000000000001-10.600000000000023 35.10000000000002-25.899999999999977 43.60000000000002-9.399999999999977 101.60000000000002-95.10000000000002 181.39999999999998-199.10000000000002 181.39999999999998s-189.7-79.79999999999995-199.10000000000002-181.39999999999998c-15.399999999999977-8.600000000000023-25.899999999999977-24.80000000000001-25.899999999999977-43.60000000000002 0-27.600000000000023 22.399999999999977-50 50-50s50 22.399999999999977 50 50c0 18-9.600000000000023 33.69999999999999-23.899999999999977 42.5 8.699999999999989 74.5 72.09999999999997 132.5 148.89999999999998 132.5s140.20000000000005-58 148.89999999999998-132.5c-14.299999999999955-8.800000000000011-23.899999999999977-24.5-23.899999999999977-42.5 0-27.600000000000023 22.399999999999977-50 50-50s50 22.399999999999977 50 50z"/></svg>