<svg height="1000" width="1000.0" xmlns="http://www.w3.org/2000/svg"><path d="m800 300v500c0 55-45 100-100 100h-500c-55 0-100-45-100-100v-500c0-55 45-100 100-100h500c55 0 100 45 100 100z m-50 0c0-27.5-22.5-50-50-50h-500c-27.5 0-50 22.5-50 50v500c0 27.5 22.5 50 50 50h500c27.5 0 50-22.5 50-50v-500z m0-225h-375c-13.800000000000011 0-25 11.200000000000003-25 25s11.199999999999989 25 25 25h375c68.89999999999998 0 125 56.099999999999994 125 125v350c0 13.799999999999955 11.200000000000045 25 25 25s25-11.200000000000045 25-25v-350c0-96.5-78.5-175-175-175z m-90 457.5c10 10 10 25 0 35l-142.5 152.5c-17.5 17.5-42.5 30-67.5 30s-50-12.5-67.5-30l-142.5-152.5c-10-10-10-25 0-35s25-10 35 0l142.5 155c2.3000000000000114 2.2999999999999545 4.800000000000011 4.2999999999999545 7.5 5.899999999999977v-318.4c0-13.699999999999989 11.300000000000011-25 25-25s25 11.300000000000011 25 25v318.4c2.6999999999999886-1.6000000000000227 5.199999999999989-3.6000000000000227 7.5-5.899999999999977l142.5-155c10-10 25-10 35 0z"/></svg>