<svg height="1000" width="1000.0" xmlns="http://www.w3.org/2000/svg"><path d="m650 550c0 13.799999999999955-11.299999999999955 25-25 25h-150v150c0 13.799999999999955-11.199999999999989 25-25 25s-25-11.200000000000045-25-25v-150h-150c-13.800000000000011 0-25-11.200000000000045-25-25s11.199999999999989-25 25-25h150v-150c0-13.699999999999989 11.300000000000011-25 25-25s25 11.300000000000011 25 25v150h150c13.700000000000045 0 25 11.299999999999955 25 25z m100-475h-375c-13.800000000000011 0-25 11.200000000000003-25 25s11.199999999999989 25 25 25h375c68.89999999999998 0 125 56.099999999999994 125 125v350c0 13.799999999999955 11.200000000000045 25 25 25s25-11.200000000000045 25-25v-350c0-96.5-78.60000000000002-175-175-175z m50 725c0 55.200000000000045-44.799999999999955 100-100 100h-500c-55.19999999999999 0-100-44.799999999999955-100-100v-500c0-55.19999999999999 44.80000000000001-100 100-100h500c55.200000000000045 0 100 44.80000000000001 100 100v500z m-50-500c0-27.600000000000023-22.399999999999977-50-50-50h-500c-27.599999999999994 0-50 22.399999999999977-50 50v500c0 27.600000000000023 22.400000000000006 50 50 50h500c27.600000000000023 0 50-22.399999999999977 50-50v-500z"/></svg>