<svg height="1000" width="1000.0" xmlns="http://www.w3.org/2000/svg"><path d="m750 900h-500c-68.9 0-125-56.10000000000002-125-125v-175c0-13.799999999999955 11.199999999999989-25 25-25s25 11.200000000000045 25 25v175c0 41.299999999999955 33.69999999999999 75 75 75h500c41.299999999999955 0 75-33.700000000000045 75-75v-175c0-13.799999999999955 11.200000000000045-25 25-25s25 11.200000000000045 25 25v175c0 68.89999999999998-56.10000000000002 125-125 125z m-75-650v-50c0-41.30000000000001-33.700000000000045-75-75-75h-200c-41.30000000000001 0-75 33.69999999999999-75 75v50c0 13.800000000000011 11.199999999999989 25 25 25s25-11.199999999999989 25-25v-50c0-13.800000000000011 11.199999999999989-25 25-25h200c13.799999999999955 0 25 11.199999999999989 25 25v50c0 13.800000000000011 11.200000000000045 25 25 25s25-11.199999999999989 25-25z m-274.7 332.4c4.199999999999989-13.100000000000023-3.1999999999999886-27.100000000000023-16.400000000000034-31.299999999999955l-152.59999999999997-47.60000000000002c-71.70000000000002-18.600000000000023-81.30000000000001-45.69999999999999-81.30000000000001-69.89999999999998v-89.5c0-38.10000000000002 33.599999999999994-69.10000000000002 75-69.10000000000002h550c41.299999999999955 0 75 31 75 69.10000000000002v89.5c0 22.399999999999977-9.299999999999955 50.5-82.5 70.19999999999999l-150 46.900000000000034c-13.200000000000045 4.099999999999909-20.5 18.09999999999991-16.399999999999977 31.299999999999955s18.199999999999932 20.5 31.299999999999955 16.399999999999977l149.10000000000002-46.60000000000002c29.299999999999955-7.899999999999977 118.5-31.799999999999955 118.5-118.19999999999993v-89.5c0-65.70000000000005-56.10000000000002-119.10000000000002-125-119.10000000000002h-550c-69 0-125 53.39999999999998-125 119.10000000000002v89.5c0 87.5 89.30000000000001 110.69999999999993 117.5 117.89999999999998l151.5 47.299999999999955c2.5 0.8000000000000682 5 1.2000000000000455 7.5 1.2000000000000455 10.600000000000023 0 20.5-6.899999999999977 23.80000000000001-17.600000000000023z m224.7 17.600000000000023v-50c0-41.30000000000001-33.700000000000045-75-75-75h-100c-41.30000000000001 0-75 33.69999999999999-75 75v50c0 41.299999999999955 33.69999999999999 75 75 75h100c41.299999999999955 0 75-33.700000000000045 75-75z m-75-75c13.799999999999955 0 25 11.200000000000045 25 25v50c0 13.799999999999955-11.200000000000045 25-25 25h-100c-13.800000000000011 0-25-11.200000000000045-25-25v-50c0-13.799999999999955 11.199999999999989-25 25-25h100z"/></svg>