<svg height="1000" width="1000.0" xmlns="http://www.w3.org/2000/svg"><path d="m666.7 281.3c58.799999999999955 52.599999999999966 80 123.59999999999997 59.69999999999993 200.09999999999997-3 11.200000000000045-13.100000000000023 18.600000000000023-24.100000000000023 18.600000000000023-2.099999999999909 0-4.2999999999999545-0.30000000000001137-6.5-0.8000000000000114-13.299999999999955-3.599999999999966-21.299999999999955-17.30000000000001-17.699999999999932-30.599999999999966 15.5-58.200000000000045 0-110-44.700000000000045-150-10.299999999999955-9.200000000000045-11.199999999999932-25-2-35.30000000000001s24.899999999999977-11.100000000000023 35.30000000000007-2z m7.699999999999932 447.2c-4.100000000000023 2.3999999999999773-7.399999999999977 5.600000000000023-9.5 9.200000000000045l-41.89999999999998 72.59999999999991-2.7999999999999545 8.700000000000045c-12.700000000000045 39.700000000000045-33.80000000000007 106-120.20000000000005 106-86.80000000000001 0-107.5-65.79999999999995-119.80000000000001-105.10000000000002-1.099999999999966-3.5-2.1999999999999886-6.699999999999932-3.1999999999999886-10l-42-72.5c-2.1000000000000227-3.6000000000000227-5.199999999999989-6.600000000000023-9.300000000000011-9.100000000000023-108.29999999999998-64.5-175.6-180.79999999999995-175.6-303.29999999999995 0-99.39999999999998 42.400000000000006-194.4 116.50000000000003-260.8 75.09999999999997-67.29999999999998 172.2-98.19999999999999 273.19999999999993-86.99999999999999 161.9000000000001 17.89999999999999 291.5 148.5 308.30000000000007 310.6 14.299999999999955 137.99999999999994-53.89999999999998 271.8-173.70000000000005 340.7z m-101.89999999999998 75.29999999999995l0.20000000000004547-0.6999999999999318c-61.80000000000007-15.800000000000068-115.80000000000007-7.800000000000068-145.50000000000006-0.3000000000000682 0.19999999999998863 0.7000000000000455 0.4000000000000341 1.400000000000091 0.6000000000000227 2.1000000000000227 13.699999999999989 43.60000000000002 25.5 70.10000000000002 72.19999999999999 70.10000000000002 46.39999999999998 0 58.39999999999998-26.899999999999977 72.5-71.20000000000005z m225.79999999999995-410.9c-14.299999999999955-138.79999999999998-125.39999999999998-250.59999999999997-264-266-86.79999999999995-9.59999999999998-169.99999999999994 16.900000000000034-234.29999999999995 74.50000000000003-63.599999999999994 56.900000000000006-100 138.4-100 223.6 0 100.29999999999995 53.400000000000006 195.5 139.5 252.29999999999995 10.600000000000023-5.399999999999977 76.10000000000002-35.69999999999993 187.39999999999998-27.199999999999932 13.800000000000068 1.1000000000000227 24.100000000000023 13.100000000000023 23 26.799999999999955s-13.299999999999955 24.100000000000023-26.799999999999955 23.100000000000023c-70.60000000000002-5.2999999999999545-119.10000000000002 6.7000000000000455-143.3 15l24.399999999999977 42.200000000000045c20.30000000000001-6 54-13.400000000000091 95.5-13.400000000000091 28.80000000000001 0 61.400000000000034 3.5 96.09999999999997 13.700000000000045l25.800000000000068-44.799999999999955c6.5-11.200000000000045 16.199999999999932-20.700000000000045 27.899999999999977-27.5 102.70000000000005-59.10000000000002 161.10000000000002-173.80000000000007 148.79999999999995-292.20000000000005z"/></svg>