<svg height="1000" width="1000.0" xmlns="http://www.w3.org/2000/svg"><path d="m803.1 150h-28.100000000000023c-13.799999999999955 0-25 11.199999999999989-25 25v0c0 13.800000000000011 11.200000000000045 25 25 25h21.899999999999977c29.200000000000045 0 53.10000000000002 23.900000000000006 53.10000000000002 53.099999999999994v71.9h-700v-78.1c0-25.900000000000006 21-46.900000000000006 46.900000000000006-46.900000000000006h28.099999999999994c13.800000000000011 0 25-11.199999999999989 25-25v0c0-13.800000000000011-11.199999999999989-25-25-25h-28.099999999999994c-53.5 0-96.9 43.400000000000006-96.9 96.9v550c0 56.700000000000045 46.400000000000006 103.10000000000002 103.1 103.10000000000002h593.8c56.700000000000045 0 103.10000000000002-46.39999999999998 103.10000000000002-103.10000000000002v-550c0-53.49999999999997-43.39999999999998-96.89999999999998-96.89999999999998-96.89999999999998z m46.89999999999998 646.9c0 27.5-25.600000000000023 53.10000000000002-53.10000000000002 53.10000000000002h-600c-27.599999999999966 0-46.89999999999998-25.600000000000023-46.89999999999998-53.10000000000002v-421.9h700v421.9z m-150-246.89999999999998h-400c-13.699999999999989 0-25-11.200000000000045-25-25v0c0-13.699999999999989 11.300000000000011-25 25-25h400c13.799999999999955 0 25 11.300000000000011 25 25v0c0 13.799999999999955-11.200000000000045 25-25 25z m0 175h-400c-13.699999999999989 0-25-11.200000000000045-25-25v0c0-13.700000000000045 11.300000000000011-25 25-25h400c13.799999999999955 0 25 11.299999999999955 25 25v0c0 13.799999999999955-11.200000000000045 25-25 25z m-350-475v0c-13.699999999999989 0-25-11.199999999999989-25-25v-100c0-13.700000000000003 11.300000000000011-25 25-25v0c13.800000000000011 0 25 11.299999999999997 25 25v100c0 13.800000000000011-11.199999999999989 25-25 25z m300 0v0c-13.700000000000045 0-25-11.199999999999989-25-25v-100c0-13.700000000000003 11.299999999999955-25 25-25v0c13.799999999999955 0 25 11.299999999999997 25 25v100c0 13.800000000000011-11.200000000000045 25-25 25z m-125-50h-50c-13.699999999999989 0-25-11.199999999999989-25-25v0c0-13.699999999999989 11.300000000000011-25 25-25h50c13.799999999999955 0 25 11.300000000000011 25 25v0c0 13.800000000000011-11.200000000000045 25-25 25z"/></svg>