<svg height="1000" width="1000.0" xmlns="http://www.w3.org/2000/svg"><path d="m500 750c110.29999999999995 0 200-89.70000000000005 200-200s-89.70000000000005-200-200-200-200 89.69999999999999-200 200 89.69999999999999 200 200 200z m0-350c82.70000000000005 0 150 67.30000000000001 150 150s-67.29999999999995 150-150 150-150-67.29999999999995-150-150 67.30000000000001-150 150-150z m-183.60000000000002-188.7l22.400000000000034-44.900000000000006c12.800000000000011-25.5 38.5-41.400000000000006 67-41.400000000000006h188.40000000000003c28.5 0 54.19999999999993 15.900000000000006 67 41.400000000000006l22.399999999999977 44.900000000000006c6.199999999999932 12.299999999999983 1.1000000000000227 27.299999999999983-11.200000000000045 33.5-3.6000000000000227 1.799999999999983-7.399999999999977 2.5999999999999943-11.199999999999932 2.5999999999999943-9.200000000000045 0-18-5-22.40000000000009-13.800000000000011l-22.399999999999977-44.79999999999998c-4.199999999999932-8.5-12.799999999999955-13.800000000000011-22.199999999999932-13.800000000000011h-188.40000000000003c-9.5 0-18 5.300000000000011-22.19999999999999 13.800000000000011l-22.400000000000034 44.89999999999998c-6.199999999999989 12.300000000000011-21.19999999999999 17.30000000000001-33.599999999999966 11.100000000000023s-17.400000000000034-21.100000000000023-11.200000000000045-33.5z m583.6 88.69999999999999v475c0 55.200000000000045-44.799999999999955 100-100 100h-600c-55.19999999999999 0-100-44.799999999999955-100-100v-475c0-55.19999999999999 44.80000000000001-100 100-100h25c13.800000000000011 0 25 11.199999999999989 25 25s-11.199999999999989 25-25 25h-25c-27.599999999999994 0-50 22.399999999999977-50 50v475c0 27.600000000000023 22.400000000000006 50 50 50h600c27.600000000000023 0 50-22.399999999999977 50-50v-475c0-27.600000000000023-22.399999999999977-50-50-50h-25c-13.799999999999955 0-25-11.199999999999989-25-25s11.200000000000045-25 25-25h25c55.200000000000045 0 100 44.80000000000001 100 100z m-200 25h50c13.799999999999955 0 25 11.300000000000011 25 25s-11.200000000000045 25-25 25h-50c-13.700000000000045 0-25-11.199999999999989-25-25s11.299999999999955-25 25-25z"/></svg>