<svg height="1000" width="1000.0" xmlns="http://www.w3.org/2000/svg"><path d="m800 300c-13.799999999999955 0-25-11.199999999999989-25-25v-89.4c0-7.5-3.2999999999999545-14.599999999999994-9.100000000000023-19.299999999999983-3.5-2.9000000000000057-10.699999999999932-7.400000000000006-20.699999999999932-5.400000000000006l-391.20000000000005 63.79999999999998c-13.800000000000011 2.200000000000017-26.5-7.099999999999994-28.69999999999999-20.69999999999999s7.099999999999966-26.5 20.69999999999999-28.69999999999999l390.4-63.60000000000001c21.399999999999977-4.1000000000000085 44 1.7000000000000028 61.39999999999998 16 17.300000000000068 14.299999999999997 27.200000000000045 35.499999999999986 27.200000000000045 57.999999999999986v89.30000000000001c0 13.800000000000011-11.200000000000045 25-25 25z m40.10000000000002 581.3c21.799999999999955-18.899999999999977 34.89999999999998-49.299999999999955 34.89999999999998-81.29999999999995v-79.29999999999995c0-11.400000000000091-7.600000000000023-21.200000000000045-18.600000000000023-24.100000000000023-24-6.399999999999977-62.10000000000002-24-56.39999999999998-71.60000000000002 3.7000000000000455-30.799999999999955 34.299999999999955-42.700000000000045 55.299999999999955-47.200000000000045 11.5-2.5 19.700000000000045-12.599999999999909 19.700000000000045-24.5v-103.29999999999995c0-48.69999999999999-33.299999999999955-85.80000000000001-90.60000000000002-99.60000000000002l-559.5999999999999-99.89999999999998c-22.200000000000074-4.300000000000011-44.200000000000074 1.4000000000000057-62.40000000000006 16.30000000000001-23.099999999999994 19-37.400000000000006 50.80000000000001-37.400000000000006 83.19999999999999v350c0 35 15.400000000000006 80.70000000000005 90.6 99.60000000000002l560.6999999999999 100.10000000000002c4 0.599999999999909 8.100000000000023 0.8999999999999773 12.100000000000023 0.8999999999999773 18.899999999999977 0 36.89999999999998-6.7000000000000455 51.60000000000002-19.399999999999977z m-624.5-581.6999999999999l558.5 99.69999999999999c19 4.599999999999966 50.89999999999998 17.30000000000001 50.89999999999998 50.69999999999999v83.60000000000002c-40.89999999999998 15.199999999999932-69.79999999999995 49.69999999999993-74.29999999999995 90.39999999999998-5.400000000000091 49.299999999999955 25.199999999999932 95.29999999999995 74.29999999999995 115.39999999999998v60.60000000000002c0 17.200000000000045-6.899999999999977 34.200000000000045-17.600000000000023 43.39999999999998-6.899999999999977 5.899999999999977-14.699999999999932 8.300000000000068-23 7l-558.3-99.60000000000002c-45.00000000000003-11.399999999999977-51.10000000000002-32.09999999999991-51.10000000000002-50.799999999999955v-350c0-17.19999999999999 7.699999999999989-35.10000000000002 19.19999999999999-44.60000000000002 5.100000000000023-4.199999999999989 10.400000000000006-6.2999999999999545 16.200000000000017-6.2999999999999545 1.6999999999999886 0 3.4000000000000057 0.19999999999998863 5.199999999999989 0.5z"/></svg>