<svg height="1000" width="1000.0" xmlns="http://www.w3.org/2000/svg"><path d="m285.1 100c-102.50000000000003 1.2999999999999972-183.8 82.6-185.10000000000002 185.10000000000002-0.5999999999999943 49.19999999999999 18.5 95.89999999999998 53.69999999999999 131.7 36.60000000000002 37 87.4 58.19999999999999 139.5 58.19999999999999h118.60000000000002c34.80000000000001 0 63.19999999999999-28.30000000000001 63.19999999999999-63.19999999999999v-118.5c0-52.10000000000002-21.19999999999999-103-58.19999999999999-139.5-35.80000000000001-35.30000000000001-83.30000000000001-53.70000000000002-131.7-53.70000000000002z m139.89999999999998 311.8c0 7.300000000000011-5.899999999999977 13.199999999999989-13.199999999999989 13.199999999999989h-118.5c-38.900000000000006 0-76.70000000000002-15.800000000000011-103.9-43.30000000000001-25.80000000000001-26.19999999999999-39.80000000000001-60.19999999999999-39.30000000000001-95.89999999999998 0.9000000000000057-75.20000000000002 60.5-134.9 135.70000000000002-135.8 0.5 0 1.099999999999966 0 1.6999999999999886 0 35 0 68.39999999999998 13.900000000000006 94.19999999999999 39.30000000000001 27.5 27.19999999999999 43.30000000000001 65.1 43.30000000000001 103.89999999999998v118.60000000000002z m163.20000000000005 63.19999999999999h118.59999999999991c52 0 102.90000000000009-21.19999999999999 139.4000000000001-58.19999999999999 35.299999999999955-35.80000000000001 54.39999999999998-82.5 53.69999999999993-131.7-1.2999999999999545-102.50000000000003-82.60000000000002-183.8-185.10000000000002-185.10000000000002-0.6999999999999318 0-1.5 0-2.2999999999999545 0-48.299999999999955 0-94.20000000000005 19.099999999999994-129.29999999999995 53.69999999999999-37 36.60000000000002-58.200000000000045 87.4-58.200000000000045 139.5v118.60000000000002c0 34.80000000000001 28.299999999999955 63.19999999999999 63.200000000000045 63.19999999999999z m-13.200000000000045-181.8c0-38.79999999999998 15.799999999999955-76.69999999999999 43.299999999999955-103.89999999999998 25.800000000000068-25.400000000000006 59.200000000000045-39.30000000000001 94.20000000000005-39.30000000000001 0.6000000000000227 0 1.2000000000000455 0 1.7000000000000455 0 75.19999999999993 1 134.79999999999995 60.599999999999994 135.69999999999993 135.8 0.5 35.599999999999966-13.5 69.69999999999999-39.299999999999955 95.89999999999998-27.200000000000045 27.5-65 43.30000000000001-103.89999999999998 43.30000000000001h-118.5c-7.300000000000068 0-13.200000000000045-5.899999999999977-13.200000000000045-13.199999999999989v-118.5z m271.29999999999995 290.00000000000006c35.200000000000045 35.799999999999955 54.30000000000007 82.5 53.700000000000045 131.69999999999993-1.2999999999999545 102.5-82.60000000000002 183.80000000000007-185.10000000000002 185.10000000000002-0.7999999999999545 0-1.6000000000000227 0-2.3999999999999773 0-48.299999999999955 0-94.10000000000002-19.100000000000023-129.29999999999995-53.700000000000045-37-36.59999999999991-58.200000000000045-87.39999999999998-58.200000000000045-139.5v-31.799999999999955c0-13.799999999999955 11.200000000000045-25 25-25s25 11.200000000000045 25 25v31.799999999999955c0 38.80000000000007 15.799999999999955 76.70000000000005 43.299999999999955 103.90000000000009 26.200000000000045 25.799999999999955 59.30000000000007 39.09999999999991 96 39.299999999999955 75.10000000000002-1 134.80000000000007-60.60000000000002 135.70000000000005-135.70000000000005 0.39999999999997726-35.69999999999993-13.5-69.79999999999995-39.299999999999955-96-27.200000000000045-27.5-65.10000000000002-43.299999999999955-103.90000000000009-43.299999999999955h-156.79999999999995c-13.799999999999955 0-25-11.200000000000045-25-25s11.200000000000045-25 25-25h156.79999999999995c52 0 102.90000000000009 21.299999999999955 139.5 58.299999999999955z m-434.49999999999994-58.200000000000045h-118.5c-52.10000000000002 0-103 21.200000000000045-139.5 58.200000000000045-35.30000000000001 35.799999999999955-54.400000000000006 82.5-53.70000000000002 131.69999999999993 1.3000000000000114 102.5 82.6 183.80000000000007 185.1 185.10000000000002 0.6999999999999886 0 1.5 0 2.3000000000000114 0 48.30000000000001 0 94.19999999999999-19.100000000000023 129.3-53.700000000000045 37-36.59999999999991 58.19999999999999-87.39999999999998 58.19999999999999-139.5v-118.59999999999991c0-34.80000000000007-28.30000000000001-63.200000000000045-63.19999999999999-63.200000000000045z m13.199999999999989 181.79999999999995c0 38.80000000000007-15.800000000000011 76.70000000000005-43.30000000000001 103.90000000000009-26.19999999999999 25.799999999999955-60.80000000000001 39.69999999999993-95.89999999999998 39.299999999999955-75.20000000000002-1-134.9-60.60000000000002-135.8-135.70000000000005-0.4000000000000057-35.69999999999993 13.5-69.79999999999995 39.30000000000001-96 27.19999999999999-27.5 65.1-43.299999999999955 104-43.299999999999955h118.5c7.300000000000011 0 13.199999999999989 6 13.199999999999989 13.200000000000045v118.59999999999991z"/></svg>