<svg height="1000" width="1000.0" xmlns="http://www.w3.org/2000/svg"><path d="m532.6 900c-7.2000000000000455 0-14.399999999999977-3.1000000000000227-19.300000000000068-9.100000000000023l-105.49999999999994-128.29999999999995h-227.4c-43.20000000000002 0-78.30000000000001-35.10000000000002-78.30000000000001-78.30000000000007v-505.99999999999994c0-43.20000000000002 35.099999999999994-78.30000000000001 78.30000000000001-78.30000000000001h639.2c43.19999999999993 0 78.29999999999995 35.099999999999994 78.29999999999995 78.30000000000001v505.99999999999994c0 43.200000000000045-35.10000000000002 78.30000000000007-78.29999999999995 78.30000000000007l-211.10000000000002 0.39999999999997726c0 0 0 0 0 0-13.799999999999955 0-25-11.200000000000045-25-25-0.10000000000002274-13.799999999999955 11.100000000000023-25 24.899999999999977-25l211.20000000000005-0.39999999999997726c15.600000000000023 0 28.299999999999955-12.700000000000045 28.299999999999955-28.300000000000068v-505.99999999999994c0-15.600000000000023-12.699999999999932-28.30000000000001-28.299999999999955-28.30000000000001h-639.2c-15.599999999999966 0-28.299999999999983 12.699999999999989-28.299999999999983 28.30000000000001v505.99999999999994c0 15.600000000000023 12.700000000000017 28.300000000000068 28.30000000000001 28.300000000000068h239.20000000000002c7.399999999999977 0 14.5 3.3999999999999773 19.299999999999955 9.100000000000023l113 137.39999999999998c8.700000000000045 10.699999999999932 7.2000000000000455 26.399999999999977-3.5 35.19999999999993-4.600000000000023 3.800000000000068-10.299999999999955 5.7000000000000455-15.799999999999955 5.7000000000000455z m204.89999999999998-575c0-13.800000000000011-11.200000000000045-25-25-25h-400c-13.800000000000011 0-25 11.199999999999989-25 25s11.199999999999989 25 25 25h400c13.799999999999955 0 25-11.199999999999989 25-25z m-225 175c0-13.800000000000011-11.199999999999989-25-25-25h-175c-13.800000000000011 0-25 11.199999999999989-25 25s11.199999999999989 25 25 25h175c13.800000000000011 0 25-11.200000000000045 25-25z"/></svg>