<svg height="1000" width="1000.0" xmlns="http://www.w3.org/2000/svg"><path d="m600 176.3v-49.900000000000006c23.399999999999977 1.3999999999999915 46.799999999999955 3.9000000000000057 69.5 9.099999999999994 13.299999999999955 3 26.799999999999955-5.400000000000006 29.899999999999977-18.799999999999997s-5.399999999999977-26.900000000000006-18.899999999999977-29.900000000000006c-34.39999999999998-7.8999999999999915-69.89999999999998-11.799999999999997-105.39999999999998-11.799999999999997-201 0-381.1 127.30000000000001-448 316.7-4.600000000000023 13 2.1999999999999886 27.30000000000001 15.199999999999989 31.900000000000034 2.799999999999983 0.8999999999999773 5.599999999999994 1.3999999999999773 8.399999999999977 1.3999999999999773 10.300000000000011 0 19.900000000000006-6.399999999999977 23.5-16.69999999999999 57.10000000000002-161.5 206.2-272.3 375.8-282.3v50.30000000000001c-195.10000000000002 12.899999999999977-350 175.39999999999998-350 373.7 0 206.79999999999995 168.2 375 375 375s375-168.20000000000005 375-375c0-198.3-154.89999999999998-360.8-350-373.7z m-25 698.7c-179.2 0-325-145.79999999999995-325-325s145.8-325 325-325 325 145.8 325 325-145.79999999999995 325-325 325z m0-450c-68.89999999999998 0-125 56.10000000000002-125 125s56.10000000000002 125 125 125 125-56.10000000000002 125-125-56.10000000000002-125-125-125z m0 200c-41.299999999999955 0-75-33.700000000000045-75-75s33.700000000000045-75 75-75 75 33.69999999999999 75 75-33.700000000000045 75-75 75z m-400-100c0 27.600000000000023-22.400000000000006 50-50 50s-50-22.399999999999977-50-50c0-27.600000000000023 22.400000000000006-50 50-50s50 22.399999999999977 50 50z"/></svg>