<svg height="1000" width="1000.0" xmlns="http://www.w3.org/2000/svg"><path d="m524.8 126.3c0-0.5 0.20000000000004547-0.8999999999999915 0.20000000000004547-1.2999999999999972v-50c0-13.700000000000003-11.200000000000045-25-25-25s-25 11.299999999999997-25 25v50c0 0.4000000000000057 0.19999999999998863 0.7999999999999972 0.30000000000001137 1.2999999999999972-209.10000000000002 12.899999999999991-375.3 186.5-375.3 398.7 0 220.60000000000002 179.39999999999998 400 400 400s400-179.39999999999998 400-400c0-212.2-166.20000000000005-385.8-375.20000000000005-398.7z m-24.799999999999955 748.7c-193 0-350-157-350-350s157-350 350-350 350 157 350 350-157 350-350 350z m-387.4-600c-5.000000000000028 0-10.000000000000028-1.5-14.40000000000002-4.600000000000023-11.299999999999997-8-13.900000000000006-23.599999999999966-5.900000000000006-34.89999999999998 12.100000000000009-17 25.299999999999997-33.30000000000001 39.3-48.599999999999994 31-33.599999999999994 66.4-63 105.20000000000002-87.10000000000001 11.799999999999983-7.299999999999997 27.19999999999999-3.700000000000003 34.5 8 7.300000000000011 11.799999999999997 3.599999999999966 27.200000000000003-8.100000000000023 34.500000000000014-35 21.69999999999999-66.89999999999998 48.099999999999994-94.79999999999998 78.5-12.599999999999994 13.699999999999989-24.5 28.399999999999977-35.400000000000006 43.69999999999999-4.800000000000011 6.800000000000011-12.599999999999994 10.5-20.400000000000006 10.5z m789.1999999999999-4.699999999999989c-4.399999999999977 3.1999999999999886-9.399999999999977 4.699999999999989-14.399999999999977 4.699999999999989-7.7999999999999545 0-15.600000000000023-3.6999999999999886-20.399999999999977-10.600000000000023-11.799999999999955-16.49999999999997-24.799999999999955-32.49999999999997-38.799999999999955-47.29999999999998-25.40000000000009-27.099999999999994-54.10000000000002-51-85.40000000000009-71.1-11.599999999999909-7.400000000000006-15-22.900000000000006-7.5-34.599999999999994s23-15 34.60000000000002-7.5c34.700000000000045 22.39999999999999 66.5 48.900000000000006 94.80000000000007 78.9 15.399999999999977 16.5 29.899999999999977 34.19999999999999 43.09999999999991 52.599999999999994 7.900000000000091 11.299999999999983 5.300000000000068 26.900000000000006-6 34.900000000000006z m-226.0999999999999 393.7c9.699999999999932 9.700000000000045 9.699999999999932 25.600000000000023 0 35.299999999999955v0c-9.800000000000068 9.700000000000045-25.700000000000045 9.700000000000045-35.40000000000009 0l-153.99999999999994-154c-6.600000000000023-4.5-11.300000000000011-11.699999999999932-11.300000000000011-20.299999999999955v-250c0-13.800000000000011 11.300000000000011-25 25-25s25 11.199999999999989 25 25v238.29999999999995l150.70000000000005 150.60000000000002z"/></svg>