<svg height="1000" width="1000.0" xmlns="http://www.w3.org/2000/svg"><path d="m887.7 852.2c9.699999999999932 9.699999999999932 9.699999999999932 25.59999999999991 0 35.299999999999955s-25.600000000000023 9.700000000000045-35.40000000000009 0l-352.09999999999997-352.20000000000005-352.2 352.20000000000005c-9.699999999999989 9.700000000000045-25.599999999999994 9.700000000000045-35.3 0s-9.700000000000003-25.600000000000023 0-35.299999999999955l352.1-352.20000000000005-352.1-352.2c-9.699999999999989-9.700000000000017-9.699999999999989-25.60000000000001 1.4210854715202004e-14-35.30000000000001s25.60000000000001-9.700000000000003 35.3 0l352.2 352.2 352.09999999999997-352.2c9.800000000000068-9.700000000000003 25.700000000000045-9.700000000000003 35.40000000000009 0s9.699999999999932 25.599999999999994 0 35.30000000000001l-352.20000000000005 352.2 352.20000000000005 352.20000000000005z"/></svg>