<svg height="1000" width="1000.0" xmlns="http://www.w3.org/2000/svg"><path d="m500 547.5c224.29999999999995 0 400-98.30000000000001 400-223.7s-175.70000000000005-223.8-400-223.8-400 98.30000000000001-400 223.8c0 125.5 175.7 223.7 400 223.7z m0-397.5c189.70000000000005 0 350 79.6 350 173.8s-160.29999999999995 173.7-350 173.7-350-79.5-350-173.7 160.3-173.8 350-173.8z m400 343.4c0 129.89999999999998-175.70000000000005 231.60000000000002-400 231.60000000000002s-400-101.70000000000005-400-231.60000000000002c0-13.799999999999955 11.200000000000003-25 25-25s25 11.200000000000045 25 25c0 98.39999999999998 160.3 181.60000000000002 350 181.60000000000002s350-83.20000000000005 350-181.60000000000002c0-13.799999999999955 11.200000000000045-25 25-25s25 11.200000000000045 25 25z m0 169.60000000000002c0 132.89999999999998-175.70000000000005 237-400 237s-400-104.10000000000002-400-237c0-13.799999999999955 11.200000000000003-25 25-25s25 11.200000000000045 25 25c0 101.29999999999995 160.3 187 350 187s350-85.70000000000005 350-187c0-13.799999999999955 11.200000000000045-25 25-25s25 11.200000000000045 25 25z"/></svg>