<svg height="1000" width="1000.0" xmlns="http://www.w3.org/2000/svg"><path d="m900 200v475c0 55-45 100-100 100h-196.29999999999995c-0.20000000000004547 0-0.40000000000009095 0-0.7000000000000455 0h-1.2000000000000455v-0.10000000000002274c-5.7999999999999545 0.20000000000004547-11.799999999999955-1.2999999999999545-16.699999999999932-5.199999999999932-10.800000000000068-8.700000000000045-12.600000000000023-24.600000000000023-3.800000000000068-35.40000000000009 5.100000000000023-6.5 12.800000000000068-9.199999999999932 20.5-9v-0.2999999999999545h198.20000000000005c27.600000000000023 0 50-22.299999999999955 50-50v-475c0-27.599999999999994-22.399999999999977-50-50-50h-600c-27.599999999999994 0-50 22.400000000000006-50 50v475c0 27.700000000000045 22.400000000000006 50 50 50h224.5l125.5 151.10000000000002-0.7999999999999545 0.6999999999999318c7.099999999999909 9 7.699999999999932 21.700000000000045 0.1999999999999318 31-8.600000000000023 10.800000000000068-24.5 12.600000000000023-35.299999999999955 3.900000000000091-1.3999999999999773-1.2000000000000455-2.2000000000000455-2.7000000000000455-3.3000000000000114-4l-0.5 0.2999999999999545-108.30000000000001-132.70000000000005-202-0.1999999999999318c-55 0-100-45-100-100v-475c0-55.00000000000003 45-100.00000000000003 100-100.00000000000003h600c55 0 100 45 100 100z m-450 225c0 27.600000000000023 22.399999999999977 50 50 50s50-22.399999999999977 50-50-22.399999999999977-50-50-50-50 22.399999999999977-50 50z m-200 0c0 27.600000000000023 22.399999999999977 50 50 50s50-22.399999999999977 50-50-22.399999999999977-50-50-50-50 22.399999999999977-50 50z m500 0c0-27.600000000000023-22.399999999999977-50-50-50s-50 22.399999999999977-50 50 22.399999999999977 50 50 50 50-22.399999999999977 50-50z"/></svg>