<svg height="1000" width="1000.0" xmlns="http://www.w3.org/2000/svg"><path d="m700 475c-27.600000000000023 0-50-22.399999999999977-50-50s22.399999999999977-50 50-50 50 22.399999999999977 50 50-22.399999999999977 50-50 50z m-450-50c0 27.600000000000023 22.399999999999977 50 50 50s50-22.399999999999977 50-50-22.399999999999977-50-50-50-50 22.399999999999977-50 50z m200 0c0 27.600000000000023 22.399999999999977 50 50 50s50-22.399999999999977 50-50-22.399999999999977-50-50-50-50 22.399999999999977-50 50z m50-350c-220.60000000000002 0-400 162.6-400 362.5 0 169 130.1 316.20000000000005 310.9 353.5l94.20000000000005 124.10000000000002c4.899999999999977 6.5 12.299999999999955 9.899999999999977 19.899999999999977 9.899999999999977 5.2999999999999545 0 10.600000000000023-1.7000000000000455 15.100000000000023-5.100000000000023 11-8.299999999999955 13.199999999999932-24 4.7999999999999545-35l-100-131.79999999999995c-3.6999999999999886-4.899999999999977-9.199999999999989-8.300000000000068-15.399999999999977-9.399999999999977-161.89999999999998-29.600000000000023-279.5-158.4000000000001-279.5-306.20000000000005 0-172.3 157-312.5 350-312.5s350 140.2 350 312.5c0 139.79999999999995-105.29999999999995 263.70000000000005-256 301.1-13.399999999999977 3.2999999999999545-21.600000000000023 16.899999999999977-18.200000000000045 30.299999999999955s16.90000000000009 21.5 30.300000000000068 18.200000000000045c173-42.89999999999998 293.9-186.70000000000005 293.9-349.6 0-199.9-179.39999999999998-362.5-400-362.5z"/></svg>