<svg height="1000" width="1000.0" xmlns="http://www.w3.org/2000/svg"><path d="m800 300v400c0 55-45 100-100 100h-148.29999999999995c-0.3000000000000682 0-0.5 0-0.7000000000000455 0h-1v-0.10000000000002274c0 0.20000000000004547-11.799999999999955-1.2999999999999545-16.700000000000045-5.199999999999932-10.899999999999977-8.700000000000045-12.699999999999932-24.600000000000023-4-35.40000000000009 5.2000000000000455-6.5 20.700000000000045-9.199999999999932 20.700000000000045-9v-0.2999999999999545h150c27.600000000000023 0 50-22.299999999999955 50-50v-400c0-27.600000000000023-22.399999999999977-50-50-50h-525c-27.599999999999994 0-50 22.399999999999977-50 50v400c0 27.700000000000045 22.400000000000006 50 50 50h197.39999999999998l124.70000000000005 151.70000000000005c7.099999999999966 9 7.699999999999989 21.699999999999932 0.2999999999999545 31.09999999999991-8.699999999999989 10.800000000000068-24.599999999999966 12.5-35.39999999999998 3.800000000000068-1.3999999999999773-1.1000000000000227-2.1999999999999886-2.6000000000000227-3.3000000000000114-3.8999999999999773l-108.69999999999999-132.4000000000001-175-0.1999999999999318c-55 0-100-45-100-100v-400c0-55.00000000000003 45-100.00000000000003 100-100.00000000000003h525c55 0 100 45 100 100.00000000000003z m-125 100c0-13.699999999999989-11.200000000000045-25-25-25h-400c-13.699999999999989 0-25 11.300000000000011-25 25s11.300000000000011 25 25 25h400c13.799999999999955 0 25-11.199999999999989 25-25z m-425 125c-13.699999999999989 0-25 11.299999999999955-25 25s11.300000000000011 25 25 25h225c13.800000000000011 0 25-11.200000000000045 25-25s-11.199999999999989-25-25-25h-225z m500-450h-300c-13.800000000000011 0-25 11.200000000000003-25 25s11.199999999999989 25 25 25h300c68.89999999999998 0 125 56.099999999999994 125 125v300c0 13.799999999999955 11.200000000000045 25 25 25s25-11.200000000000045 25-25v-300c0-96.5-78.60000000000002-175-175-175z"/></svg>