<svg height="1000" width="1000.0" xmlns="http://www.w3.org/2000/svg"><path d="m800.3 125h-150.29999999999995c-75 0-125 27.5-150 42.5-25-17.5-75-42.5-150-42.5h-149.7c-65 0-100.30000000000001 34.400000000000006-100.30000000000001 100l0.29999999999999716 525c0 58.299999999999955 29.200000000000003 100 100.00000000000001 100h149.7c25 0 70.89999999999998 2.1000000000000227 130 42.5 0 0 11.199999999999989 6.600000000000023 18.69999999999999 7.2999999999999545 7.300000000000011-0.6999999999999318 16.30000000000001-7.2999999999999545 16.30000000000001-7.2999999999999545 60.10000000000002-37.299999999999955 110-42.5 135-42.5h150.29999999999995c64.60000000000002 0 99.70000000000005-39.60000000000002 99.70000000000005-100v-525c0-65.6-43.799999999999955-100-99.70000000000005-100z m49.700000000000045 625c0 28.100000000000023-15.299999999999955 50-49.700000000000045 50h-150.29999999999995c-25.700000000000045 0-92.5 5-150 50-57.5-42.5-124.69999999999999-50-150-50h-149.7c-35.400000000000006 0-50-19.799999999999955-50-50l-0.30000000000001137-525c0-31.80000000000001 20.69999999999999-50 50.30000000000001-50h149.7c61.80000000000001 0 99.60000000000002 26.30000000000001 125.30000000000001 40.69999999999999v509.3c0 12.5 12.5 25 25 25s24.999999999999943-12.5 24.999999999999943-25v-509.9c25.200000000000045-14.600000000000023 62-40.10000000000002 124.70000000000005-40.10000000000002h150.29999999999995c27 0 49.700000000000045 18.30000000000001 49.700000000000045 50v525z m-352.5 150c0.39999999999997726 0 0.8000000000000114-0.20000000000004547 1.1999999999999886-0.20000000000004547 0.4000000000000341 0 0.9000000000000341 0.20000000000004547 1.3000000000000114 0.20000000000004547h-2.5z"/></svg>