<svg height="1000" width="1000.0" xmlns="http://www.w3.org/2000/svg"><path d="m400 775c-13.699999999999989 0-25-11.200000000000045-25-25v-350c0-13.699999999999989 11.300000000000011-25 25-25s25 11.300000000000011 25 25v350c0 13.799999999999955-11.199999999999989 25-25 25z m400-425c-13.799999999999955 0-25 11.199999999999989-25 25l-25 425c0 27.600000000000023-22.399999999999977 50-50 50h-400c-27.600000000000023 0-50-22.399999999999977-50-50l-25-425c0-13.800000000000011-11.199999999999989-25-25-25s-25 11.199999999999989-25 25l25 425c0 55 45 100 100 100h400c55 0 100-45 100-100l25-425c0-13.800000000000011-11.200000000000045-25-25-25z m-175 400v-350c0-13.699999999999989-11.200000000000045-25-25-25s-25 11.300000000000011-25 25v350c0 13.799999999999955 11.299999999999955 25 25 25s25-11.200000000000045 25-25z m275-500c0 13.800000000000011-11.200000000000045 25-25 25h-750c-13.700000000000003 0-25-11.199999999999989-25-25s11.299999999999997-25 25-25h200c0-82.69999999999999 78.5-150 175-150s175 67.30000000000001 175 150h200c13.799999999999955 0 25 11.300000000000011 25 25z m-275-25c0-55.19999999999999-56.10000000000002-100-125-100s-125 44.80000000000001-125 100h250z"/></svg>