<svg height="1000" width="1000.0" xmlns="http://www.w3.org/2000/svg"><path d="m800 100h-600c-55.19999999999999 0-100 44.80000000000001-100 100v600c0 55.200000000000045 44.80000000000001 100 100 100h250c13.800000000000011 0 25-11.200000000000045 25-25s-11.199999999999989-25-25-25h-250c-27.599999999999994 0-50-22.399999999999977-50-50v-600c0-27.599999999999994 22.400000000000006-50 50-50h600c27.600000000000023 0 50 22.400000000000006 50 50l-1.1000000000000227 350c0 13.799999999999955-11.199999999999932 25-25.100000000000023 25h-198.79999999999995c-27.600000000000023 0-50 22.399999999999977-50 50v225c0 20.700000000000045 7.899999999999977 39.200000000000045 25.799999999999955 47.200000000000045 5.600000000000023 2.3999999999999773 9.5 3.599999999999909 15.200000000000045 3.599999999999909 10.200000000000045 0 19.399999999999977-3.7999999999999545 28-11.699999999999932l240.10000000000002-252.20000000000005c10.399999999999977-9.399999999999977 15.899999999999977-22.899999999999977 15.899999999999977-36.89999999999998v-400c0-55.19999999999999-44.799999999999955-100-100-100z m-175 711.6v-174.20000000000005c0-6.7999999999999545 5.600000000000023-12.399999999999977 12.399999999999977-12.399999999999977h160.20000000000005c10.899999999999977 0 16.600000000000023 12.899999999999977 9.199999999999932 20.899999999999977l-160.19999999999993 174.10000000000002c-7.7000000000000455 8.399999999999977-21.600000000000023 2.8999999999999773-21.600000000000023-8.399999999999977z m-350-436.6c0-13.699999999999989 11.300000000000011-25 25-25h400c13.799999999999955 0 25 11.300000000000011 25 25s-11.200000000000045 25-25 25h-400c-13.699999999999989 0-25-11.199999999999989-25-25z m0 225c0-13.700000000000045 11.300000000000011-25 25-25h150c13.800000000000011 0 25 11.299999999999955 25 25s-11.199999999999989 25-25 25h-150c-13.699999999999989 0-25-11.200000000000045-25-25z"/></svg>