<svg height="1000" width="1000.0" xmlns="http://www.w3.org/2000/svg"><path d="m875 750c11.799999999999955 0 25-12.700000000000045 25-25v-525c0-55-45-100-100-100h-600c-55 0-100 45-100 100v425c0 13.799999999999955 11.200000000000003 25 25 25s25-11.200000000000045 25-25v-425c0-27.599999999999994 22.400000000000006-50 50-50h600c27.600000000000023 0 50 22.400000000000006 50 50v500c-116.10000000000002 0-650 0-650 0-54.69999999999999 0-100 43.799999999999955-100 100s44.80000000000001 100 100 100h675c16 0 25.200000000000045-12.5 25-25s-9.799999999999955-25-25-25c-25 0-50-22.399999999999977-50-50s21.200000000000045-50 50-50z m-75 100h-600c-27.599999999999994 0-50-22.399999999999977-50-50s22.400000000000006-50 50-50h600c-13.600000000000023 11.399999999999977-25 23.100000000000023-25 50s10.399999999999977 39.10000000000002 25 50z m-525-525c0-13.699999999999989 11.300000000000011-25 25-25h400c13.799999999999955 0 25 11.300000000000011 25 25s-11.200000000000045 25-25 25h-400c-13.699999999999989 0-25-11.199999999999989-25-25z m0 200c0-13.699999999999989 11.300000000000011-25 25-25h400c13.799999999999955 0 25 11.300000000000011 25 25s-11.200000000000045 25-25 25h-400c-13.699999999999989 0-25-11.200000000000045-25-25z"/></svg>