<svg height="1000" width="1000.0" xmlns="http://www.w3.org/2000/svg"><path d="m800 300v500c0 55-45 100-100 100h-500c-55 0-100-45-100-100v-500c0-55 45-100 100-100h500c55 0 100 45 100 100z m-50 0c0-27.5-22.5-50-50-50h-500c-27.5 0-50 22.5-50 50v500c0 27.5 22.5 50 50 50h500c27.5 0 50-22.5 50-50v-500z m-500 325c0-12.5 12.300000000000011-25 24.69999999999999-25h150.60000000000002c12.300000000000011 0 24.69999999999999 12.5 24.69999999999999 25s-12.399999999999977 25-24.69999999999999 25h-150.60000000000002c-12.399999999999977 0-24.69999999999999-12.5-24.69999999999999-25z m371.6-200h-343.1c-14.199999999999989 0-28.5 12.5-28.5 25s14.300000000000011 25 28.5 25h343.1c14.199999999999932 0 28.399999999999977-12.5 28.399999999999977-25s-14.200000000000045-25-28.399999999999977-25z m128.39999999999998-350h-375c-13.800000000000011 0-25 11.200000000000003-25 25s11.199999999999989 25 25 25h375c68.89999999999998 0 125 56.099999999999994 125 125v350c0 13.799999999999955 11.200000000000045 25 25 25s25-11.200000000000045 25-25v-350c0-96.5-78.5-175-175-175z"/></svg>