<svg height="1000" width="1000.0" xmlns="http://www.w3.org/2000/svg"><path d="m507.1 700c-0.5 0-1 0-1.5 0-23.30000000000001-0.39999999999997726-45.30000000000001-9.700000000000045-62-26.299999999999955l-361.1-361.20000000000005c-9.700000000000003-9.699999999999989-9.700000000000003-25.5 0-35.30000000000001s25.599999999999994-9.800000000000011 35.400000000000006 0l361.1 361.09999999999997c7.399999999999977 7.400000000000091 17.100000000000023 11.5 27.399999999999977 11.700000000000045 9.899999999999977-0.20000000000004547 19.300000000000068-3.5 26.100000000000023-10.299999999999955l349.79999999999995-349.90000000000003c9.800000000000068-9.699999999999989 25.600000000000023-9.699999999999989 35.40000000000009 0s9.699999999999932 25.599999999999966 0 35.39999999999998l-349.9000000000001 349.8c-16.09999999999991 16.200000000000045-37.59999999999991 25-60.799999999999955 25z"/></svg>