<svg height="1000" width="1000.0" xmlns="http://www.w3.org/2000/svg"><path d="m717.5 665c10 10 10 25 0 35l-150 170c-17.5 17.5-42.5 30-67.5 30s-50-12.5-67.5-30l-150-170c-10-10-10-25 0-35s25-10 35 0l150 172.5c2.3000000000000114 2.2999999999999545 4.800000000000011 4.2999999999999545 7.5 5.899999999999977v-368.4c0-13.699999999999989 11.300000000000011-25 25-25s25 11.300000000000011 25 25v368.4c2.7000000000000455-1.6000000000000227 5.2000000000000455-3.6000000000000227 7.5-5.899999999999977l150-172.5c10-10 25-10 35 0z m29.299999999999955-353.1c-18.399999999999977-119.89999999999998-121.69999999999993-211.89999999999998-246.79999999999995-211.89999999999998-132.7 0-241 103.5-249.2 234.2-87.20000000000002 26.400000000000034-150.8 107.40000000000003-150.8 203.3 0 52.700000000000045 21.900000000000006 100.70000000000005 56.5 137.70000000000005 15.599999999999994 16.59999999999991 43.5 6.099999999999909 43.5-16.800000000000068 0-6.399999999999977-2.6999999999999886-12.5-7.099999999999994-17.199999999999932-26.200000000000017-28.100000000000023-42.900000000000006-64.20000000000005-42.900000000000006-103.70000000000005 0-68.5 42.80000000000001-127.19999999999999 102.9-151 15.400000000000006-6.100000000000023 31.799999999999983-9.800000000000011 48.900000000000006-10.899999999999977-1-8.400000000000034-1.8000000000000114-16.900000000000034-1.8000000000000114-25.600000000000023 0-8.300000000000011 0.6999999999999886-16.399999999999977 1.6999999999999886-24.399999999999977 12.100000000000023-98.80000000000001 96.30000000000001-175.60000000000002 198.3-175.60000000000002 93.29999999999995 0 171.70000000000005 64.30000000000001 193.70000000000005 150.89999999999998 4 15.800000000000011 6.2999999999999545 32.10000000000002 6.2999999999999545 49.10000000000002 0 0.6999999999999886-0.10000000000002274 1.3000000000000114-0.10000000000002274 2 17.399999999999977 2.5 33.89999999999998 7.5 49.30000000000007 14.699999999999989 59.39999999999998 28 100.79999999999995 88.30000000000001 100.79999999999995 158.3 0 44.10000000000002-16.5 84.20000000000005-43.5 115-4.100000000000023 4.600000000000023-6.5 10.399999999999977-6.5 16.5v0.10000000000002274c0 23.199999999999932 28.600000000000023 33.60000000000002 44 16.199999999999932 34.799999999999955-39.39999999999998 56-91 56-147.79999999999995 0-99.10000000000002-64.20000000000005-183.10000000000002-153.20000000000005-213.10000000000002z"/></svg>