<svg height="1000" width="1000.0" xmlns="http://www.w3.org/2000/svg"><path d="m500 150c-155 0-275 120-275 270v30c0 15-10 25-25 25s-25-10-25-25v-30c0-180 142.5-320 325-320s325 140 325 320v30c0 15-10 25-25 25s-25-10-25-25v-30c0-150-120-270-275-270z m-150 400v300c0 22.5-17.5 37.5-45 45-12.5 2.5-27.5 5-40 5-105 0-190-90-190-200s85-200 190-200c15 0 27.5 2.5 40 5 27.5 7.5 45 22.5 45 45z m-50 5c-2.5 0-2.5-2.5-5-2.5-10-2.5-20-2.5-30-2.5-77.5 0-140 67.5-140 150s62.5 150 140 150c10 0 20 0 30-2.5 2.5 0 5-2.5 7.5-2.5v-290z m625 145c0 110-85 200-190 200-15 0-27.5-2.5-40-5-27.5-7.5-45-22.5-45-45v-300c0-22.5 17.5-37.5 45-45 12.5-2.5 27.5-5 40-5 105 0 190 90 190 200z m-50 0c0-82.5-62.5-150-140-150-10 0-20 0-30 2.5-2.5 0-5 2.5-7.5 2.5v290c2.5 0 2.5 2.5 5 2.5 12.5 2.5 22.5 2.5 32.5 2.5 77.5 0 140-67.5 140-150z"/></svg>