<svg height="1000" width="1000.0" xmlns="http://www.w3.org/2000/svg"><path d="m849.2 204.2l-78.5-78.6c-39.10000000000002-39-102.40000000000009-39-141.4000000000001 0l-31.59999999999991 31.700000000000017c-9.800000000000068 9.799999999999983-9.800000000000068 25.599999999999994 0 35.39999999999998s25.5 9.700000000000017 35.299999999999955 0l31.700000000000045-31.69999999999999c19.5-19.5 51.09999999999991-19.5 70.59999999999991 0l78.60000000000002 78.5c19.5 19.600000000000023 19.5 51.30000000000001 0 71l-434.09999999999997 434-149.3-149.29999999999995 318.79999999999995-318.6 82.20000000000005 90.19999999999999c9.299999999999955 10.199999999999989 25.200000000000045 11 35.299999999999955 1.6999999999999886 10.200000000000045-9.300000000000011 11-25.19999999999999 1.7000000000000455-35.30000000000001l-82.20000000000005-90.19999999999999c-8.199999999999932-9-19.199999999999932-15.300000000000011-31.299999999999955-16.19999999999999-15.100000000000023-1.200000000000017-30.5 3.6999999999999886-41.299999999999955 14.5l-340.40000000000003 340.49999999999994-74.10000000000001 230.60000000000002-1 4.5c-2.1000000000000085 16.600000000000023 3.5 32.89999999999998 15.299999999999997 44.700000000000045 10.200000000000003 10.199999999999932 23.69999999999999 15.799999999999955 37.900000000000006 15.799999999999955 2.1999999999999886 0 4.5-0.10000000000002274 6.799999999999983-0.5l235.10000000000002-75.10000000000002 455.99999999999994-455.9c39.10000000000002-39.099999999999966 39.10000000000002-102.59999999999997 0-141.59999999999997z m-698.5 623c-0.7000000000000455-0.10000000000002274-1.400000000000034-0.5-1.900000000000034-1s-0.9000000000000057-1.2000000000000455-1-1.900000000000091l58.599999999999994-182.5 126.79999999999998 126.80000000000007-182.5 58.60000000000002z"/></svg>