<svg height="1000" width="1000.0" xmlns="http://www.w3.org/2000/svg"><path d="m936.7 302.9l-425.00000000000006-224.99999999999997c-7.5-4-16.599999999999966-3.8000000000000114-23.899999999999977 0.29999999999999716l-425 238.60000000000002c-8.100000000000009 4.599999999999966-13.000000000000014 13.199999999999989-12.800000000000011 22.5s5.600000000000001 17.599999999999966 13.799999999999997 21.69999999999999l425 211.39999999999998c3.599999999999966 1.8000000000000682 7.399999999999977 2.6000000000000227 11.199999999999989 2.6000000000000227 4 0 8.100000000000023-0.8999999999999773 11.699999999999989-2.8999999999999773l425.00000000000006-225c8.199999999999932-4.300000000000011 13.299999999999955-12.800000000000011 13.299999999999955-22.100000000000023s-5.100000000000023-17.69999999999999-13.299999999999955-22.100000000000023z m-437.00000000000006 219l-371.2-184.59999999999997 371.9-208.9 371.20000000000005 196.6-371.90000000000003 196.89999999999998z m325.3 3.1000000000000227v184.60000000000002c0 16-4.899999999999977 31.199999999999932-14.200000000000045 43.89999999999998l-4 5.7000000000000455c-32.69999999999993 45.299999999999955-119.5 165.79999999999995-306.79999999999995 165.79999999999995-202.89999999999998 0-292.9-134.5-315.7-175.70000000000005-6.100000000000023-11-9.300000000000011-23.5-9.300000000000011-36.19999999999993v-188.10000000000002c0-13.800000000000011 11.199999999999989-25 25-25s25 11.199999999999989 25 25v188.10000000000002c0 4.2999999999999545 1 8.299999999999955 3.0999999999999943 12 19.400000000000006 35.19999999999993 96.4 149.89999999999998 271.9 149.89999999999998 161.70000000000005 0 234.89999999999998-101.60000000000002 266.20000000000005-145.10000000000002l4.199999999999932-5.7999999999999545c3-4.100000000000023 4.600000000000023-9.100000000000023 4.600000000000023-14.399999999999977v-184.60000000000002c0-13.800000000000011 11.200000000000045-25 25-25s25 11.199999999999989 25 25z m100-75v275c0 13.799999999999955-11.200000000000045 25-25 25s-25-11.200000000000045-25-25v-275c0-13.699999999999989 11.299999999999955-25 25-25s25 11.300000000000011 25 25z"/></svg>