<svg height="1000" width="1000.0" xmlns="http://www.w3.org/2000/svg"><path d="m475 475v-375c0-13.700000000000003 11.300000000000011-25 25-25s25 11.299999999999997 25 25v375c0 13.800000000000011-11.200000000000045 25-25 25s-25-11.199999999999989-25-25z m158.39999999999998-327.2c-13-4.600000000000023-27.199999999999932 2.1999999999999886-31.899999999999977 15.199999999999989s2.2999999999999545 27.30000000000001 15.299999999999955 31.900000000000006c139.5 49.400000000000006 233.20000000000005 181.99999999999997 233.20000000000005 330.1 0 193-157 350-350 350s-350-157-350-350c0-148.10000000000002 93.80000000000001-280.7 233.3-330.1 13-4.599999999999966 19.80000000000001-18.899999999999977 15.199999999999989-31.899999999999977s-18.80000000000001-19.80000000000001-31.899999999999977-15.199999999999989c-159.40000000000003 56.39999999999998-266.6 208-266.6 377.2 0 220.60000000000002 179.39999999999998 400 400 400s400-179.39999999999998 400-400c0-169.2-107.20000000000005-320.8-266.6-377.2z"/></svg>