<svg height="1000" width="1000.0" xmlns="http://www.w3.org/2000/svg"><path d="m800 800c0 55.200000000000045-44.799999999999955 100-100 100h-500c-55.19999999999999 0-100-44.799999999999955-100-100v-600c0-55.19999999999999 44.80000000000001-100 100-100h500c55.200000000000045 0 100 44.80000000000001 100 100 0 13.800000000000011-11.200000000000045 25-25 25s-25-11.199999999999989-25-25c0-27.599999999999994-22.399999999999977-50-50-50h-500c-27.599999999999994 0-50 22.400000000000006-50 50v600c0 27.600000000000023 22.400000000000006 50 50 50h500c27.600000000000023 0 50-22.399999999999977 50-50 0-13.799999999999955 11.200000000000045-25 25-25s25 11.200000000000045 25 25z m70-367.5l-152.5-142.5c-10-10-25-10-35 0s-10 25 0 35l155 142.5c2.2999999999999545 2.3000000000000114 4.2999999999999545 7.5 5.899999999999977 7.5h-318.4c-13.699999999999989 0-25 11.300000000000011-25 25s11.300000000000011 25 25 25h318.4c-1.6000000000000227 0-3.6000000000000227 5.2000000000000455-5.899999999999977 7.5l-155 142.5c-10 10-10 25 0 35s25 10 35 0l152.5-142.5c17.5-17.5 30-42.5 30-67.5s-12.5-50-30-67.5z"/></svg>