<svg height="1000" width="1000.0" xmlns="http://www.w3.org/2000/svg"><path d="m900 500c0 220.60000000000002-179.39999999999998 400-400 400-42.69999999999999 0-84.80000000000001-6.7000000000000455-125-19.899999999999977-13.100000000000023-4.300000000000068-20.19999999999999-18.5-15.899999999999977-31.600000000000023s18.399999999999977-20.299999999999955 31.5-15.899999999999977c35.19999999999999 11.600000000000023 72 17.399999999999977 109.39999999999998 17.399999999999977 193 0 350-157 350-350 0-37.30000000000001-5.7999999999999545-74.10000000000002-17.399999999999977-109.19999999999999-4.300000000000068-13.100000000000023 2.7999999999999545-27.30000000000001 16-31.600000000000023 13.100000000000023-4.399999999999977 27.199999999999932 2.8000000000000114 31.600000000000023 16 13.099999999999909 40.10000000000002 19.799999999999955 82.10000000000002 19.799999999999955 124.80000000000001z m-316.1 84c-98 98.10000000000002-197.39999999999998 183.39999999999998-279.7 240.29999999999995-78.39999999999998 54.200000000000045-123.39999999999998 70.10000000000002-150.6 70.10000000000002-17.299999999999983 0-27.5-6.399999999999977-34.599999999999994-13.5-17.200000000000003-17.100000000000023-30.299999999999997-53.10000000000002 43.900000000000006-166.10000000000002-40.400000000000006-63.5-62.900000000000006-137.79999999999995-62.900000000000006-214.79999999999995 0-220.60000000000002 179.39999999999998-400 400-400 77.39999999999998 0 151.79999999999995 22.5 215.20000000000005 63 112.59999999999991-74 148.5999999999999-60.900000000000006 165.69999999999993-43.8 18.200000000000045 18.10000000000001 32 56.89999999999999-56.60000000000002 185.10000000000002-57 82.30000000000001-142.29999999999995 181.59999999999997-240.39999999999998 279.7z m174.70000000000005-389c17 14.400000000000006 32.799999999999955 30.30000000000001 47.299999999999955 47.599999999999994 26.5-42.599999999999994 39.10000000000002-72.29999999999998 38.700000000000045-85.6-7.800000000000068 0.30000000000001137-31.800000000000068 4.400000000000006-86 38z m-513.8 612.9c-18.000000000000057-15-34.60000000000008-31.299999999999955-49.50000000000006-49-34.70000000000002 52.89999999999998-39.400000000000006 69.80000000000007-39.60000000000002 91.10000000000002 0.20000000000001705 0 0.4000000000000057 0 0.6000000000000227 0 14 0 44.69999999999999-13.799999999999955 88.5-42.10000000000002z m303.79999999999995-256.6c104.39999999999998-104.49999999999994 179.5-195.59999999999997 228-264.69999999999993-66.10000000000002-85.60000000000002-167.70000000000005-136.60000000000002-276.6-136.60000000000002-193 0-350 157-350 350 0 109.10000000000002 51.69999999999999 212.10000000000002 138.3 278.1 68.30000000000001-49.200000000000045 157.7-124.20000000000005 260.3-226.80000000000007z m-117.30000000000001-51.299999999999955c0 52.60000000000002-42.80000000000001 95.29999999999995-95.40000000000003 95.29999999999995s-95.29999999999998-42.69999999999993-95.29999999999998-95.29999999999995 42.79999999999998-95.30000000000001 95.29999999999998-95.30000000000001c52.60000000000002 0 95.40000000000003 42.69999999999999 95.40000000000003 95.30000000000001z m-50 0c0-25-20.400000000000034-45.30000000000001-45.400000000000034-45.30000000000001s-45.299999999999955 20.30000000000001-45.299999999999955 45.30000000000001 20.299999999999955 45.299999999999955 45.299999999999955 45.299999999999955c25 0 45.400000000000034-20.299999999999955 45.400000000000034-45.299999999999955z"/></svg>