<svg height="1000" width="1000.0" xmlns="http://www.w3.org/2000/svg"><path d="m500 127.5l0 0 125 205c7.5 12.5 17.5 20 32.5 22.5l235 55-157.5 182.5c-7.5 10-12.5 22.5-12.5 37.5l10 145c0 12.5 12.5 22.5 25 22.5h0c15 0 25-12.5 25-27.5l-12.5-145 157.5-182.5c25-27.5 10-72.5-27.5-82.5l-235-55-125-205c-10-15-27.5-25-42.5-25s-32.5 7.5-42.5 25l-125 205-235 55c-37.5 7.5-50 52.5-27.5 82.5l162.5 182.5-20 240c-2.5 30 22.5 55 50 55 7.5 0 12.5-2.5 20-5l222.5-92.5 235 97.5c12.5 5 27.5 0 32.5-12.5l0 0c5-12.5 0-27.5-12.5-35l-235-97.5c-5-2.5-12.5-5-20-5s-12.5 2.5-20 5l-222.5 92.5 20-240c0-12.5-2.5-27.5-12.5-37.5l-157.5-182.5 235-55c12.5-2.5 25-12.5 32.5-22.5l122.5-202.5c0 0 0 0 0 0"/></svg>