<svg height="1000" width="1000.0" xmlns="http://www.w3.org/2000/svg"><path d="m575 900c-5.7000000000000455 0-11.299999999999955-1.8999999999999773-16-5.7999999999999545l-150-125c-5.699999999999989-4.800000000000068-9-11.800000000000068-9-19.200000000000045v-231.29999999999995c-36.80000000000001-12.200000000000045-119.10000000000002-46.400000000000034-193.3-126.70000000000005-122.19999999999999-132.10000000000002-107.19999999999999-264.5-106.49999999999999-270.1 1.5999999999999943-12.499999999999972 12.200000000000003-21.899999999999977 24.799999999999997-21.899999999999977h750c12.600000000000023 0 23.299999999999955 9.400000000000006 24.799999999999955 21.900000000000006 0.7000000000000455 5.5 15.700000000000045 136.4-106.29999999999995 270-75.60000000000002 80.5-157 114.70000000000005-193.39999999999998 126.80000000000007v181.29999999999995c0 13.799999999999955-11.200000000000045 25-25 25s-25-11.200000000000045-25-25v-200c0-11.699999999999989 8-21.80000000000001 19.399999999999977-24.399999999999977 0.8999999999999773-0.20000000000004547 99.39999999999998-24 187.29999999999995-117.70000000000005 78.5-85.89999999999998 92.10000000000002-169.49999999999997 93.80000000000007-207.89999999999998h-701.2c1.6000000000000227 38.599999999999994 14.900000000000034 122.5 94.00000000000003 208 86.9 93.89999999999998 186.20000000000002 117.39999999999998 187.20000000000002 117.60000000000002 11.399999999999977 2.599999999999966 19.5 12.699999999999989 19.5 24.399999999999977v238.29999999999995l141 117.5c10.600000000000023 8.900000000000091 12 24.600000000000023 3.199999999999932 35.200000000000045-5 5.899999999999977-12.099999999999909 9-19.299999999999955 9z"/></svg>