<svg height="1000" width="1000.0" xmlns="http://www.w3.org/2000/svg"><path d="m802.9 601.3c56.10000000000002-62.19999999999993 81-139.69999999999993 72.10000000000002-223.89999999999998l-18.299999999999955-146.59999999999997c-2.2000000000000455-17.400000000000006-13-32-28.90000000000009-39.30000000000001-15.899999999999977-7.199999999999989-34.09999999999991-5.699999999999989-48.59999999999991 4l-97.40000000000009 45.900000000000006c-10.699999999999932 5.099999999999994-23.5 1.9000000000000057-30.59999999999991-7.599999999999994l-101.20000000000005-133.8c-9.399999999999977-10.799999999999997-20.299999999999955-25-50-25-26.19999999999999 0-40.5 14.200000000000003-50 25l-101.19999999999999 133.9c-7.100000000000023 9.400000000000006-19.900000000000034 12.5-30.600000000000023 7.5l-97.39999999999998-45.900000000000006c-14.5-9.699999999999989-32.70000000000002-11.199999999999989-48.60000000000002-4s-26.69999999999999 21.900000000000006-28.899999999999977 39.30000000000001l-18.200000000000017 145.5c-11.699999999999989 80.39999999999998 10.5 155.7 64.30000000000001 217.99999999999994 65 75.10000000000002 172.9 123.20000000000005 285.9 129.4000000000001 5.684341886080802e-14 0.5-0.1999999999999318 0.7999999999999545-0.1999999999999318 1.2999999999999545v150c0 13.799999999999955 11.199999999999989 25 25 25s25-11.200000000000045 25-25v-150c0-0.39999999999997726-0.3000000000000682-0.7999999999999545-0.3000000000000682-1.2000000000000455 110.60000000000002-5.899999999999977 213.30000000000007-50.39999999999998 278.20000000000005-122.5z m-575.7-39.69999999999993c-43.99999999999994-50.900000000000034-62.19999999999993-112.5-52.59999999999994-178.5l18.200000000000017-146.10000000000002 115.89999999999998 54.60000000000002c20.69999999999999 13.899999999999977 48.80000000000001 10.299999999999955 65.30000000000001-8.5l126-158.10000000000002 125.89999999999998 158.10000000000002c16.5 18.799999999999955 44.60000000000002 22.399999999999977 65.39999999999998 8.5l115.70000000000005-54.60000000000002 18.299999999999955 145.8c7.300000000000068 69.69999999999999-13.399999999999977 133.7-59.5 185.09999999999997-60.39999999999998 67-159.79999999999995 107.10000000000002-265.79999999999995 107.10000000000002-107.80000000000001 0-212.3-43.39999999999998-272.8-113.39999999999998z m196.9000000000001 331.1c-3.3000000000000114 10.799999999999955-13.200000000000045 17.799999999999955-24 17.799999999999955-2.3000000000000114 0-4.7000000000000455-0.2999999999999545-7.100000000000023-1-80.89999999999998-24.100000000000023-152.2-75.60000000000002-200.7-145.20000000000005-7.900000000000006-11.299999999999955-5.100000000000023-26.899999999999977 6.199999999999989-34.799999999999955 11.300000000000011-7.7999999999999545 26.900000000000006-5.100000000000023 34.80000000000001 6.2000000000000455 42.099999999999966 60.299999999999955 103.89999999999998 105 173.89999999999998 125.79999999999995 13.199999999999989 4 20.80000000000001 17.899999999999977 16.80000000000001 31.100000000000023z m377.5-163.20000000000005c11.299999999999955 7.899999999999977 14 23.5 6.199999999999932 34.799999999999955-48.59999999999991 69.60000000000002-119.79999999999995 121.10000000000002-200.69999999999993 145.20000000000005-2.3999999999999773 0.7000000000000455-4.800000000000068 1.1000000000000227-7.100000000000023 1.1000000000000227-10.799999999999955 0-20.700000000000045-7-24-17.899999999999977-3.8999999999999773-13.200000000000045 3.6000000000000227-27.200000000000045 16.799999999999955-31.100000000000023 70.10000000000002-20.800000000000068 131.9000000000001-65.5 174-125.80000000000007 7.800000000000068-11.399999999999977 23.40000000000009-14.199999999999932 34.80000000000007-6.2999999999999545z"/></svg>