<svg height="1000" width="1000.0" xmlns="http://www.w3.org/2000/svg"><path d="m806.6 745.1c-72.89999999999998 103.29999999999995-189 158.5-306.8 158.5-74.80000000000001 0-150.2-22.200000000000045-215.8-68.5-168.9-119.30000000000007-209.3-353.70000000000005-90.1-522.6 70.29999999999998-99.5 184.9-158.8 306.79999999999995-158.8 0.7000000000000455 0 1.400000000000091 0 2.1000000000000796 0 13.800000000000011 0.10000000000002274 24.900000000000034 11.300000000000011 24.80000000000001 25.200000000000017-0.10000000000002274 13.699999999999989-11.300000000000068 24.799999999999983-25 24.799999999999983-0.6000000000000227-0.09999999999999432-1.3000000000000114 0-1.900000000000034 0-105.80000000000001 0-205 51.400000000000006-265.9 137.60000000000002-103.4 146.39999999999998-68.4 349.59999999999997 78 452.90000000000003 70.89999999999998 50.09999999999991 157 69.59999999999991 242.7 54.799999999999955 85.5-14.700000000000045 160.20000000000005-61.89999999999998 210.29999999999995-132.79999999999995 44-62.30000000000007 64.70000000000005-138.4000000000001 58.40000000000009-214.40000000000003-1.2000000000000455-13.699999999999989 9-25.80000000000001 22.799999999999955-27 13.5-1.1999999999999886 25.799999999999955 9.099999999999966 27 22.899999999999977 7.2999999999999545 87.59999999999997-16.600000000000023 175.50000000000006-67.39999999999998 247.40000000000003z m-363.1-199.89999999999998c-2.6000000000000227 13.5 6.199999999999989 26.59999999999991 19.69999999999999 29.299999999999955 1.6000000000000227 0.2999999999999545 3.3000000000000114 0.5 4.900000000000034 0.5 11.699999999999989 0 22.099999999999966-8.200000000000045 24.5-20.100000000000023 2.1999999999999886-11.100000000000023 56.5-266.09999999999997 305.4-279.2-0.7000000000000455 3.400000000000034-1.7999999999999545 6.800000000000011-3.7000000000000455 9.800000000000011l-94.29999999999995 126.80000000000001c-7.2000000000000455 12.199999999999989-3.6000000000000227 26.69999999999999 8.600000000000023 34s26.699999999999932 3.599999999999966 33.89999999999998-8.600000000000023l91.89999999999998-126.30000000000001c12.700000000000045-21.19999999999999 18.800000000000068-48.5 12.600000000000023-72.69999999999999s-29.200000000000045-51.5-57.5-64.89999999999998l-135.5-64.20000000000002c-13.299999999999955-6.299999999999997-27.299999999999955-0.8999999999999915-33.299999999999955 11.800000000000011-6.300000000000068 13.199999999999989-1.2000000000000455 27.19999999999999 11.799999999999955 33.400000000000006l135.60000000000002 64.19999999999999c4.199999999999932 2 7.899999999999977 4.800000000000011 11.399999999999977 7.900000000000006-274.5 25.19999999999999-335.4 315.20000000000005-336 318.20000000000005z"/></svg>