<svg height="1000" width="1000.0" xmlns="http://www.w3.org/2000/svg"><path d="m535.7 924.9c-65.50000000000006 0-128.70000000000005-21.899999999999977-184.70000000000005-65.10000000000002-70.89999999999998-54.5-136-117-199-177.5-16.400000000000006-15.699999999999932-32.7-31.5-49.2-47-18.39999999999999-17.5-28-38.5-27.799999999999997-61 0.29999999999999716-24.09999999999991 12.299999999999997-48.299999999999955 34.099999999999994-67.99999999999994 38.099999999999994-34.60000000000002 92.1-33.400000000000034 131.3 3 14.599999999999994 13.499999999999943 28.99999999999997 27.19999999999999 43.400000000000006 40.99999999999994 9.699999999999989 9.200000000000045 19.399999999999977 18.5 29.19999999999999 27.600000000000023 14.899999999999977 14.100000000000023 20 11.700000000000045 24.600000000000023 9.800000000000068 3.5-1.6000000000000227 5.599999999999966-2.6000000000000227 3.5-20.600000000000023-4.600000000000023-39.89999999999998-9.600000000000023-79.70000000000005-14.700000000000045-119.5l-5.399999999999977-43.30000000000001c-2.1999999999999886-17.5-4.600000000000023-35.10000000000002-6.899999999999977-52.69999999999999-5.400000000000034-40.80000000000001-10.900000000000034-82.90000000000003-14.900000000000034-124.80000000000001-2.3999999999999773-25.80000000000001 8-50.60000000000002 27.80000000000001-66.4 20.30000000000001-16.200000000000017 47.60000000000002-20.700000000000017 73-12.400000000000006 45 15 52.30000000000001 57.69999999999999 54.69999999999999 71.69999999999999 2.1000000000000227 12.400000000000006 4.900000000000034 28.400000000000006 8.199999999999989 46.19999999999999 3-45.19999999999999 5.7000000000000455-89.19999999999999 7.2000000000000455-120.59999999999997 2.2999999999999545-48.400000000000006 33-79.50000000000001 78.29999999999995-79.50000000000001 0.39999999999997726 0 0.7000000000000455 0 1.1000000000000227 0 45.5 0.5 76.20000000000005 33.5 76.39999999999998 82.2 0 21.599999999999994 0.20000000000004547 49.099999999999994 0.39999999999997726 78.80000000000001 1.1000000000000227-5.900000000000006 2.300000000000068-11.400000000000006 3.300000000000068-16.5 9.100000000000023-46 45.10000000000002-72.4 89.5-65.5 42.799999999999955 6.399999999999977 68.69999999999993 42.69999999999999 63 88.1-2.5 19.599999999999994-8.600000000000023 62.79999999999998-15.200000000000045 109.9 19.800000000000068-32.60000000000002 55-47.60000000000002 90.39999999999998-36.900000000000034 19.800000000000068 5.900000000000034 35.700000000000045 18.900000000000034 44.90000000000009 36.400000000000034 9.899999999999977 18.899999999999977 11.399999999999977 42 4.099999999999909 64.89999999999998l-22 69c-29.09999999999991 91.19999999999999-59.19999999999993 185.50000000000006-90.19999999999993 277.90000000000003-7.300000000000068 21.699999999999932-17.200000000000045 41.89999999999998-29.399999999999977 59.89999999999998-7.800000000000068 11.399999999999977-23.300000000000068 14.5-34.80000000000007 6.7000000000000455s-14.399999999999977-23.300000000000068-6.600000000000023-34.700000000000045c9.600000000000023-14.299999999999955 17.5-30.399999999999977 23.40000000000009-47.799999999999955 30.899999999999977-92.10000000000002 60.89999999999998-186.20000000000005 89.89999999999998-277.20000000000005l22.100000000000023-69c3.099999999999909-10.100000000000023 2.8999999999999773-19.399999999999977-0.8000000000000682-26.399999999999977-2.8999999999999773-5.800000000000011-8-9.700000000000045-15.100000000000023-11.800000000000011-18.399999999999977-5.600000000000023-31.399999999999977 8.300000000000011-37.299999999999955 23.19999999999999-20 50.19999999999999-64.5 147.29999999999995-66.29999999999995 151.39999999999998-5.2000000000000455 11.300000000000068-18 17.200000000000045-29.90000000000009 13.600000000000023-11.899999999999977-3.6000000000000227-19.399999999999977-15.299999999999955-17.59999999999991-27.600000000000023 0.2999999999999545-2.2999999999999545 34.09999999999991-235 40.69999999999993-287.7 1.7000000000000455-13.099999999999994-0.6000000000000227-29.399999999999977-20.799999999999955-32.5-22.399999999999977-3.3999999999999773-30.300000000000068 12.200000000000017-32.89999999999998 25.80000000000001-14.600000000000023 73.60000000000002-51 239.10000000000002-51.40000000000009 240.8-2.699999999999932 12.399999999999977-14.5 20.80000000000001-27 19.5-12.699999999999932-1.400000000000034-22.299999999999955-12-22.399999999999977-24.69999999999999 0 0-1.6999999999999318-211.8-2-307.40000000000003-0.10000000000002274-32.099999999999994-19.5-32.29999999999998-26.799999999999955-32.39999999999999-0.3000000000000682 0-0.5 0-0.7000000000000455 0-11.699999999999932 0-27 3.6000000000000085-28.299999999999955 31.799999999999997-4.600000000000023 97.1-20.900000000000034 312.70000000000005-21 314.9-1 12.5-11 22.30000000000001-23.5 23-12.600000000000023 0.6000000000000227-23.600000000000023-7.899999999999977-26-20.19999999999999-0.30000000000001137-1.6999999999999886-32.700000000000045-170.10000000000002-44.10000000000002-237.3-3.8999999999999773-22.599999999999994-10.699999999999989-29.099999999999994-21.19999999999999-32.5-9.5-3.1999999999999886-18.900000000000034-1.6999999999999886-26 4-4 3.0999999999999943-10.400000000000034 10.199999999999989-9.199999999999989 22.69999999999999 3.7999999999999545 40.900000000000034 9.299999999999955 82.60000000000002 14.699999999999989 122.80000000000001 2.3000000000000114 17.69999999999999 4.599999999999966 35.39999999999998 6.899999999999977 53.10000000000002l5.400000000000034 43.19999999999999c5.099999999999966 40 10.199999999999989 79.99999999999994 14.799999999999955 120.09999999999997 1.7000000000000455 14.800000000000068 6.300000000000011 54.30000000000007-32.599999999999966 71.89999999999998-40.30000000000001 18.200000000000045-69.80000000000001-9.799999999999955-79.5-18.899999999999977-9.900000000000034-9.299999999999955-19.69999999999999-18.600000000000023-29.5-27.899999999999977-14.200000000000017-13.600000000000023-28.400000000000006-27.200000000000045-42.900000000000006-40.5-20.30000000000001-18.799999999999955-44.70000000000002-19.899999999999977-63.70000000000002-2.6000000000000227-11.299999999999983 10.300000000000068-17.599999999999994 21.5-17.69999999999999 31.5-0.09999999999999432 8.300000000000068 4 16.399999999999977 12.199999999999989 24.100000000000023 16.5 15.700000000000045 32.900000000000006 31.5 49.400000000000006 47.299999999999955 62 59.5 126.20000000000002 121.10000000000002 194.9 174 75.69999999999999 58.30000000000007 163.10000000000002 70.40000000000009 252.79999999999995 35.200000000000045 12.800000000000068-5 27.40000000000009 1.2000000000000455 32.40000000000009 14.100000000000023s-1.3000000000000682 27.299999999999955-14.100000000000023 32.39999999999998c-39.10000000000002 15.299999999999955-78.39999999999998 23-116.89999999999998 23z"/></svg>