<svg height="1000" width="1000.0" xmlns="http://www.w3.org/2000/svg"><path d="m849.4 741.6c-9 13-27.5 14.799999999999955-38.69999999999993 3.6000000000000227-8.700000000000045-8.700000000000045-9.5-22.300000000000068-2.400000000000091-32.5 49.90000000000009-72 75.5-162 63.90000000000009-258.40000000000003-21.200000000000045-177-169.20000000000005-316.8-347.1-328.5-234.60000000000002-15.400000000000006-427.5 186.5-396.90000000000003 423.8 20.900000000000006 162.5 149.3 294.9 311.2 320.6 108.20000000000005 17.09999999999991 209.30000000000007-12.600000000000023 287-71.80000000000007 10.100000000000023-7.699999999999932 24.300000000000068-7.199999999999932 33.30000000000007 1.8000000000000682 10.799999999999955 10.799999999999955 9.399999999999977 28.59999999999991-2.800000000000068 37.89999999999998-87.60000000000002 66.69999999999993-201.5 100.5-323.79999999999995 81.69999999999993-184.40000000000003-28.299999999999955-331.1-179-354.5-364.19999999999993-35.300000000000026-278.1 198.39999999999998-512.1 476.5-477.1 191.89999999999998 24.099999999999994 345.69999999999993 180.5 367.19999999999993 372.7 12.100000000000023 108.30000000000001-16.699999999999932 209.50000000000006-72.89999999999998 290.40000000000003z m-349.4-541.6c-13.699999999999989 0-25 11.300000000000011-25 25v275c0 0.19999999999998863 0.10000000000002274 0.39999999999997726 0.10000000000002274 0.6000000000000227 0.0999999999999659 3.099999999999966 0.6999999999999886 6.099999999999966 1.7999999999999545 8.899999999999977 0.8000000000000114 1.8000000000000114 2 3.2000000000000455 3.1000000000000227 4.7000000000000455 0.8000000000000114 1.099999999999909 1.3000000000000114 2.3999999999999773 2.3000000000000114 3.3999999999999773l182.3 182.39999999999998c9.699999999999932 9.700000000000045 25.699999999999932 9.700000000000045 35.39999999999998 0s9.700000000000045-25.700000000000045 0-35.39999999999998l-175-175v-264.6c0-13.800000000000011-11.299999999999955-25-25-25z"/></svg>