<svg height="1000" width="1000.0" xmlns="http://www.w3.org/2000/svg"><path d="m900 448.8c0 15-10 25-25 25-7.5 0-12.5-2.5-17.5-7.5l-307.5-292.5c-25-25-75-25-100 0l-307.5 292.5c-5 5-10 7.5-17.5 7.5-15 0-25-10-25-25 0-7.5 2.5-12.5 7.5-17.5v0l317.5-307.5c37.5-37.500000000000014 112.5-37.500000000000014 150-1.4210854715202004e-14l317.5 307.5c5 5 7.5 10 7.5 17.5z m-125 50c-15 0-25 10-25 24.999999999999943v275c0 27.5-22.5 50-50 50h-400c-27.5 0-50-22.5-50-50v-275c0-14.999999999999943-10-24.999999999999943-25-24.999999999999943s-25 10-25 24.999999999999943v275c0 52.5 45 100 100 100h400c55 0 100-47.5 100-100v-275c0-14.999999999999943-10-24.999999999999943-25-24.999999999999943z"/></svg>