<svg height="1000" width="1000.0" xmlns="http://www.w3.org/2000/svg"><path d="m375 550c-1.6999999999999886 0-3.3999999999999773-0.20000000000004547-5.100000000000023-0.5-15.799999999999955-3.2999999999999545-54.799999999999955-19.299999999999955-77.89999999999998-42.89999999999998-18.399999999999977-19-59.30000000000001-73.70000000000005-40.30000000000001-172.60000000000002l2.700000000000017-14.199999999999989 13.700000000000017-4.699999999999989c2.5-0.8000000000000114 60.799999999999955-20.200000000000045 119.29999999999995 13.199999999999989 42.700000000000045 24.5 58.700000000000045 57.69999999999999 60.400000000000034 61.39999999999998 5.599999999999966 12.600000000000023 0 27.400000000000034-12.5 33.10000000000002-12.600000000000023 5.699999999999989-27.400000000000034 0.0999999999999659-33.10000000000002-12.5-0.30000000000001137-0.6000000000000227-10.899999999999977-22.19999999999999-39.599999999999966-38.60000000000002-24.5-14-49.400000000000034-13.899999999999977-64.30000000000001-12.099999999999966-8 67.29999999999995 20.099999999999966 102.39999999999998 29.5 112.09999999999997 14.5 14.800000000000011 43.19999999999999 26.900000000000034 52.30000000000001 28.80000000000001 13.5 2.8000000000000114 22.19999999999999 16.100000000000023 19.299999999999955 29.600000000000023-2.3999999999999773 11.799999999999955-12.799999999999955 19.899999999999977-24.299999999999955 19.899999999999977z m79.5 373.70000000000005l226.29999999999995-74.60000000000002c145.70000000000005-39.89999999999998 215.10000000000002-118.80000000000007 218.4000000000001-247.60000000000002l17.899999999999977-299.4c5-59.00000000000003-13.200000000000045-114.30000000000001-51.200000000000045-155.70000000000002-41.69999999999993-45.400000000000006-105.10000000000002-71.4-173.69999999999993-71.4h-349.20000000000005c-138.8 0-225 86.19999999999999-225 223.5l-18 301.5c0 136.70000000000005 88.30000000000001 225 225 225h80.19999999999999c23.30000000000001 0 43.30000000000001-15.700000000000045 48.69999999999999-38.299999999999955 54.60000000000002-226.9000000000001 100.80000000000007-392.50000000000006 117.70000000000005-421.70000000000005 22.5-38.60000000000002 51.69999999999993-72.39999999999998 155.10000000000002-64.69999999999999-0.5 17.69999999999999-4.900000000000091 48.89999999999998-24.40000000000009 91.80000000000001-31 68-96.29999999999995 61-98.89999999999998 60.599999999999966-13.699999999999932-1.8000000000000114-26.299999999999955 7.699999999999989-28.100000000000023 21.400000000000034-1.8999999999999773 13.699999999999989 7.7000000000000455 26.299999999999955 21.40000000000009 28.19999999999999 36 4.899999999999977 113.79999999999995-7.600000000000023 151.0999999999999-89.5 39.30000000000007-86.10000000000002 27.800000000000068-136.3 26.40000000000009-141.7l-4.300000000000068-16.50000000000003-17-1.9000000000000057c-135-15.799999999999983-187.39999999999998 23.5-224.5 87.19999999999999-28.5 49.10000000000002-95.59999999999997 320.70000000000005-123.09999999999997 435.1h-80.19999999999999c-109.60000000000002 0-175.00000000000003-65.39999999999998-175.10000000000002-173.5l18-301.5c0-111.19999999999999 63.80000000000001-175 175-175h349.20000000000005c54.69999999999993 0 104.59999999999991 20.19999999999999 136.89999999999998 55.30000000000001 28.799999999999955 31.399999999999977 42.10000000000002 72.1 38.19999999999993 118.19999999999999l-18 300.9c-2.699999999999932 107.10000000000002-57 167.39999999999998-182.79999999999995 201.89999999999998l-227.60000000000002 74.90000000000009c-13.099999999999966 4.2999999999999545-20.19999999999999 18.5-15.899999999999977 31.59999999999991 3.3999999999999773 10.5 13.199999999999989 17.200000000000045 23.69999999999999 17.200000000000045 2.6000000000000227 0 5.199999999999989-0.39999999999997726 7.800000000000011-1.2999999999999545z"/></svg>