<svg height="1000" width="1000.0" xmlns="http://www.w3.org/2000/svg"><path d="m600 622.4c13.799999999999955 0 25 11.200000000000045 25 25s-11.200000000000045 25-25 25-25-11.199999999999932-25-25 11.200000000000045-25 25-25z m50-50c0 13.800000000000068 11.200000000000045 25 25 25s25-11.199999999999932 25-25-11.200000000000045-25-25-25-25 11.200000000000045-25 25z m75-100c0-13.799999999999955-11.200000000000045-25-25-25s-25 11.200000000000045-25 25 11.200000000000045 25 25 25 25-11.199999999999989 25-25z m131.89999999999998-326c-41.69999999999993-45.39999999999998-105-71.39999999999998-173.69999999999993-71.39999999999998h-349.30000000000007c-138.7 0-224.99999999999997 86.19999999999999-224.89999999999998 223.5l-17.900000000000006 301.5c0 136.70000000000005 88.30000000000001 225 225.00000000000003 225h80.19999999999999c13.800000000000011 0 25-11.200000000000045 25-25s-11.199999999999989-25-25-25h-80.19999999999999c-109.60000000000002 0-175.00000000000003-65.39999999999998-175.10000000000002-173.5l17.900000000000006-301.5c0-111.19999999999999 63.79999999999998-175 174.99999999999997-175h349.30000000000007c54.69999999999993 0 104.59999999999991 20.19999999999999 136.89999999999998 55.30000000000001 28.799999999999955 31.399999999999977 42.10000000000002 72 38.19999999999993 118.19999999999999l-18 300.79999999999995c-2.699999999999932 107.20000000000005-57 167.5-182.79999999999995 201.9000000000001l-227.60000000000002 75c-13.099999999999966 4.2999999999999545-20.19999999999999 18.399999999999977-15.899999999999977 31.59999999999991 3.3999999999999773 10.5 13.199999999999989 17.100000000000023 23.69999999999999 17.100000000000023 2.6000000000000227 0 5.199999999999989-0.39999999999997726 7.800000000000011-1.1999999999999318l226.39999999999998-74.60000000000002c145.70000000000005-39.89999999999998 215.10000000000002-118.80000000000007 218.39999999999998-247.60000000000002l17.90000000000009-299.4c4.899999999999977-59.10000000000002-13.200000000000045-114.30000000000001-51.200000000000045-155.70000000000002z m-341.79999999999995 58.60000000000002c-7.600000000000023-5.699999999999989-17.700000000000045-6.699999999999989-26.200000000000045-2.4000000000000057-8.5 4.200000000000017-13.899999999999977 12.900000000000006-13.899999999999977 22.400000000000006v22.69999999999999c-112.39999999999998 13.100000000000023-200 108.80000000000001-200 224.60000000000002 0 124.80000000000001 101.60000000000002 226.40000000000003 226.3 226.40000000000003 13.900000000000034 0 24.999999999999943-11.200000000000045 24.999999999999943-25s-11.099999999999909-25-24.999999999999943-25c-97.19999999999999 0-176.3-79.10000000000002-176.3-176.40000000000003s79.10000000000002-176.3 176.3-176.3c19.599999999999966 0 38.69999999999999 3.3000000000000114 56.99999999999994 9.600000000000023l21.700000000000045 10.399999999999977c3.5 1.6999999999999886 7.2000000000000455 2.5 10.799999999999955 2.5 8.5 0 16.700000000000045-4.300000000000011 21.40000000000009-12 6.599999999999909-11 3.8999999999999773-25.19999999999999-6.400000000000091-33l-90.79999999999995-68.4z"/></svg>