<svg height="1000" width="1000.0" xmlns="http://www.w3.org/2000/svg"><path d="m669.4 454.4l-15.399999999999977-54.599999999999966c-4.2000000000000455-15 4.600000000000023-30.69999999999999 19.600000000000023-34.900000000000034v0c15-4.199999999999989 30.699999999999932 4.5 34.89999999999998 19.5l15.399999999999977 54.60000000000002c4.2000000000000455 15-4.600000000000023 30.69999999999999-19.600000000000023 34.89999999999998v0c-14.899999999999977 4.300000000000011-30.699999999999932-4.599999999999966-34.89999999999998-19.5z m-190 69.5v0c15-4.199999999999932 23.80000000000001-19.899999999999977 19.5-34.89999999999998l-15.299999999999955-54.60000000000002c-4.300000000000011-15-20-23.799999999999955-35-19.5v0c-15 4.2000000000000455-23.80000000000001 19.900000000000034-19.5 34.900000000000034l15.299999999999955 54.599999999999966c4.2000000000000455 14.899999999999977 20 23.800000000000068 35 19.5z m-369 44.39999999999998c11.700000000000017-3.199999999999932 18.900000000000034-14.5 17.40000000000002-26.5-1.7999999999999972-14.099999999999909-2.799999999999997-28.5-2.799999999999997-42.99999999999994 0-206.8 168.2-375 375-375 153.60000000000002-1.4210854715202004e-14 285.6 93 343.4 225.5 5.100000000000023 11.599999999999966 17.5 18.099999999999966 29.700000000000045 14.800000000000011v0c15-4 22.5-20.400000000000034 16.299999999999955-34.700000000000045-65.39999999999998-150.29999999999998-215-255.59999999999997-389.4-255.59999999999997-234.7-1.4210854715202004e-14-425 190.2-425 425 0 16.69999999999999 1.0999999999999943 33.19999999999999 3.0999999999999943 49.400000000000034 1.7000000000000028 14.599999999999909 15.700000000000003 24.5 29.900000000000006 20.699999999999932l2.299999999999997-0.6000000000000227z m781-131.39999999999998c-11.699999999999932 3.1000000000000227-19.699999999999932 14.200000000000045-18.399999999999977 26.30000000000001 1.2999999999999545 11.699999999999989 2 23.600000000000023 2 35.60000000000002 0 206.8-168.20000000000005 374.99999999999994-375 374.99999999999994-151 0-281.2-89.89999999999998-340.5-218.89999999999998-5.199999999999989-11.199999999999932-17.30000000000001-17.5-29.30000000000001-14.299999999999955h-0.09999999999999432c-15.199999999999989 4.100000000000023-22.69999999999999 20.799999999999955-16.099999999999994 35.10000000000002 67.1 146.29999999999995 214.5 248.0999999999999 386 248.0999999999999 234.70000000000005 0 425-190.29999999999995 425-424.99999999999994 0-13.600000000000023-0.7999999999999545-27-2.2000000000000455-40.10000000000002-1.599999999999909-15.399999999999977-16.5-25.80000000000001-31.5-21.80000000000001v0z"/></svg>