<svg height="1000" width="1000.0" xmlns="http://www.w3.org/2000/svg"><path d="m178.8 774.8c-5.100000000000023-0.7999999999999545-10-3.099999999999909-13.900000000000006-7-9.900000000000006-9.899999999999977-10.099999999999994-26.299999999999955-0.4000000000000057-36.5l162.39999999999998-171.89999999999998c58.10000000000002-62.69999999999999 60.900000000000034-82.29999999999995 22.700000000000045-161.7l-107.30000000000001-209.89999999999998c-6.400000000000006-12.600000000000023-1.700000000000017-28.200000000000017 10.599999999999994-35s27.400000000000006-1.9000000000000057 33.900000000000006 10.599999999999994l107.59999999999997 210.6c47.700000000000045 99.19999999999999 41.400000000000034 142.5-31.599999999999966 221.10000000000002l-162.5 172.10000000000002c-5.800000000000011 6.099999999999909-13.900000000000006 8.699999999999932-21.5 7.599999999999909z m165.3 109.10000000000002l129.79999999999995-198.29999999999995c50.200000000000045-72.80000000000007 68.39999999999998-79.60000000000002 149-57.30000000000007l222.70000000000005 64.40000000000009c13.299999999999955 3.699999999999932 27.299999999999955-4.2000000000000455 31.100000000000023-17.90000000000009s-3.800000000000068-28-17-31.899999999999977l-223-64.29999999999995c-101.30000000000007-28.399999999999977-141.20000000000005-13.100000000000023-204.00000000000006 77.89999999999998l-130.2 198.89999999999998c-7.800000000000011 11.899999999999977-4.800000000000011 27.899999999999977 6.699999999999989 35.80000000000007 3 2.099999999999909 6.300000000000011 3.3999999999999773 9.600000000000023 4 9.5 1.599999999999909 19.5-2.400000000000091 25.30000000000001-11.200000000000045z m295.4-397.29999999999995l230.70000000000005 23.19999999999999c13.799999999999955 1.3999999999999773 26.199999999999932-9 27.699999999999932-23.19999999999999 1.5-14.200000000000045-8.299999999999955-26.600000000000023-22.199999999999932-28.200000000000045l-230.10000000000002-23.099999999999966c-85.70000000000005-10.900000000000034-99.89999999999998-23.900000000000034-117.5-108l-46.80000000000001-233c-2.900000000000034-13.900000000000006-16.100000000000023-22.80000000000001-29.69999999999999-19.700000000000017-13.600000000000023 3.1000000000000085-22.30000000000001 16.80000000000001-19.600000000000023 30.700000000000003l46.89999999999998 233.3c19.200000000000045 91.59999999999997 45.39999999999998 125.59999999999997 122 141.79999999999995 11.600000000000023 2.400000000000034 24.399999999999977 4.5 38.60000000000002 6.300000000000011z m94.89999999999998-206.90000000000003c25.5 5.400000000000034 50.700000000000045-11.599999999999966 56.30000000000007-37.89999999999998s-10.600000000000023-52-36.10000000000002-57.400000000000006-50.80000000000007 11.5-56.30000000000007 37.79999999999998c-5.599999999999909 26.30000000000001 10.5 52.10000000000002 36.10000000000002 57.5z m-597.2 197.10000000000002c25.60000000000008 5.399999999999977 50.80000000000007-11.600000000000023 56.30000000000007-37.900000000000034s-10.599999999999994-52-36.099999999999994-57.39999999999998-50.7 11.5-56.30000000000001 37.80000000000001c-5.599999999999994 26.30000000000001 10.600000000000009 52 36.099999999999994 57.5z m466.0000000000001 422.2c25.59999999999991 5.399999999999977 50.799999999999955-11.600000000000023 56.299999999999955-37.799999999999955s-10.600000000000023-52.10000000000002-36.10000000000002-57.5-50.69999999999993 11.599999999999909-56.299999999999955 37.89999999999998c-5.600000000000023 26.299999999999955 10.600000000000023 52 36.10000000000002 57.39999999999998z"/></svg>