<svg height="1000" width="1000.0" xmlns="http://www.w3.org/2000/svg"><path d="m849.4 741.6c-9 13-27.5 14.799999999999955-38.69999999999993 3.6000000000000227-8.700000000000045-8.700000000000045-9.5-22.300000000000068-2.400000000000091-32.5 49.90000000000009-72 75.5-162 63.90000000000009-258.40000000000003-21.200000000000045-177-169.20000000000005-316.8-347.1-328.5-234.60000000000002-15.400000000000006-427.5 186.5-396.90000000000003 423.8 20.900000000000006 162.5 149.3 294.9 311.2 320.6 108.20000000000005 17.09999999999991 209.30000000000007-12.600000000000023 287-71.80000000000007 10.100000000000023-7.699999999999932 24.300000000000068-7.199999999999932 33.30000000000007 1.8000000000000682 10.799999999999955 10.799999999999955 9.399999999999977 28.59999999999991-2.800000000000068 37.89999999999998-87.60000000000002 66.69999999999993-201.5 100.5-323.79999999999995 81.69999999999993-184.40000000000003-28.299999999999955-331.1-179-354.5-364.19999999999993-35.300000000000026-278.1 198.39999999999998-512.1 476.5-477.1 191.89999999999998 24.099999999999994 345.69999999999993 180.5 367.19999999999993 372.7 12.100000000000023 108.30000000000001-16.799999999999955 209.50000000000006-72.89999999999998 290.40000000000003z m-214.10000000000002-251.10000000000002c-13.399999999999977 3.3000000000000114-21.59999999999991 16.80000000000001-18.399999999999977 30.200000000000045s16.899999999999977 21.699999999999932 30.200000000000045 18.399999999999977c97.79999999999995-23.800000000000068 130.10000000000002-94.5 118.69999999999993-154-8.699999999999932-45-55.89999999999998-83.5-129.0999999999999-69.90000000000003-91 16.80000000000001-118.40000000000009 113.90000000000003-119.60000000000002 118.10000000000002l-75 274.99999999999994c-3.6000000000000227 13.300000000000068 4.199999999999989 27 17.599999999999966 30.600000000000023 2.1999999999999886 0.6000000000000227 4.400000000000034 0.8999999999999773 6.600000000000023 0.8999999999999773 11 0 21-7.2999999999999545 24.099999999999966-18.399999999999977l74.89999999999998-274.9c0.20000000000004547-0.6999999999999886 20.700000000000045-71.10000000000002 80.5-82.10000000000002 41.30000000000007-7.699999999999989 66.90000000000009 9.400000000000034 70.90000000000009 30.100000000000023 6.399999999999977 33.60000000000002-11 78.89999999999998-81.40000000000009 96z m-291.99999999999994-121.39999999999998c60-11.5 111.80000000000001 46.19999999999999 112.89999999999998 47.299999999999955 9 10.400000000000034 24.80000000000001 11.5 35.19999999999999 2.5 10.400000000000034-9.099999999999966 11.5-24.799999999999955 2.5-35.299999999999955-2.7999999999999545-3.3000000000000114-71-80.60000000000002-160.09999999999997-63.60000000000002-29.5 5.699999999999989-54.400000000000034 23.19999999999999-70.19999999999999 49.30000000000001-16.30000000000001 26.899999999999977-21.00000000000003 59.80000000000001-12.500000000000028 87.89999999999998 19.700000000000017 65.80000000000001 82.79999999999998 95.90000000000003 143.29999999999998 95.90000000000003 12.100000000000023 0 24.100000000000023-1.2000000000000455 35.60000000000002-3.6000000000000227 13.600000000000023-2.7999999999999545 22.30000000000001-16 19.5-29.5-2.8000000000000114-13.5-15.899999999999977-22.19999999999999-29.600000000000023-19.5-47.39999999999998 9.800000000000011-105.79999999999995-7.199999999999989-121-57.69999999999999-4.2999999999999545-14.300000000000011-1.3999999999999773-33 7.400000000000034-47.60000000000002 6-9.899999999999977 17.19999999999999-22.30000000000001 37-26.099999999999966z"/></svg>