<svg height="1000" width="1000.0" xmlns="http://www.w3.org/2000/svg"><path d="m650 450c55.200000000000045 0 100-44.80000000000001 100-100s-44.799999999999955-100-100-100-100 44.80000000000001-100 100 44.799999999999955 100 100 100z m0-150c27.600000000000023 0 50 22.399999999999977 50 50s-22.399999999999977 50-50 50-50-22.399999999999977-50-50 22.399999999999977-50 50-50z m144.10000000000002 373.70000000000005c7.600000000000023 8.099999999999909 9.399999999999977 19.899999999999977 4.399999999999977 29.799999999999955-8.100000000000023 16.299999999999955-30 19.600000000000023-42.60000000000002 6.399999999999977l-94-95.29999999999995c-8.899999999999977-9.700000000000045-23.799999999999955-10.899999999999977-34.10000000000002-2.7000000000000455l-67.39999999999998 54c-21.699999999999932 17.399999999999977-53.5 13.700000000000045-70.59999999999997-8.399999999999977l-124.80000000000001-160.3c-9.199999999999989-11.899999999999977-26.69999999999999-12.899999999999977-37.19999999999999-2.3999999999999773l-85.10000000000002 85.09999999999997c-9.799999999999983 9.800000000000068-25.5 9.800000000000068-35.29999999999998 0s-9.800000000000011-25.600000000000023 0-35.299999999999955l104.9-104.90000000000003c21.30000000000001-21.30000000000001 56.39999999999998-19.099999999999966 74.89999999999998 4.699999999999989l126.50000000000006 162.60000000000002c8.5 10.899999999999977 24.399999999999977 12.799999999999955 35.19999999999993 4.100000000000023l68.70000000000005-54.89999999999998c20.5-16.40000000000009 50.19999999999993-14.200000000000045 67.89999999999998 5.099999999999909l108.60000000000002 112.40000000000009z m5.899999999999977-573.7h-600c-55.19999999999999 0-100 44.80000000000001-100 100v600c0 55.200000000000045 44.80000000000001 100 100 100h600c55.200000000000045 0 100-44.799999999999955 100-100v-600c0-55.19999999999999-44.799999999999955-100-100-100z m50 700c0 27.600000000000023-22.399999999999977 50-50 50h-600c-27.599999999999994 0-50-22.399999999999977-50-50v-600c0-27.599999999999994 22.400000000000006-50 50-50h600c27.600000000000023 0 50 22.400000000000006 50 50v600z"/></svg>