<svg height="1000" width="1000.0" xmlns="http://www.w3.org/2000/svg"><path d="m849.4 741.6c-9 13-27.5 14.799999999999955-38.69999999999993 3.6000000000000227-0.10000000000002274-0.10000000000002274-0.20000000000004547-0.3000000000000682-0.3000000000000682-0.40000000000009095-1-0.7999999999999545-2.199999999999932-1.1999999999999318-3.1000000000000227-2.099999999999909l-157.29999999999995-157.4000000000001-101 101.10000000000002-200-225-106.30000000000001 106.30000000000007c-9.799999999999983 9.699999999999932-25.5 9.699999999999932-35.29999999999998 0s-9.800000000000011-25.600000000000023 0-35.40000000000009l143.70000000000002-143.69999999999993 200 225 99-99 173.60000000000002 173.69999999999993c39.59999999999991-67.5 58.89999999999998-148.19999999999993 48.59999999999991-233.99999999999994-21.199999999999932-177-169.19999999999993-316.9-347.0999999999999-328.5-234.70000000000005-15.400000000000006-427.50000000000006 186.5-396.90000000000003 423.8 20.899999999999977 162.5 149.3 294.9 311.09999999999997 320.6 108.20000000000005 17.09999999999991 209.39999999999998-12.600000000000023 287-71.80000000000007 10.200000000000045-7.699999999999932 24.300000000000068-7.199999999999932 33.39999999999998 1.8000000000000682 10.800000000000068 10.799999999999955 9.400000000000091 28.59999999999991-2.7999999999999545 37.89999999999998-87.60000000000002 66.69999999999993-201.60000000000002 100.5-323.8 81.69999999999993-184.5-28.299999999999955-331.1-179-354.6-364.19999999999993-35.29999999999997-278.1 198.50000000000006-512.1 476.6000000000001-477.1 191.79999999999995 24.099999999999994 345.5999999999999 180.5 367.0999999999999 372.7 12.200000000000045 108.30000000000001-16.699999999999932 209.50000000000006-72.79999999999995 290.40000000000003z m-249.39999999999998-316.6c-55.200000000000045 0-100-44.80000000000001-100-100s44.799999999999955-100 100-100 100 44.80000000000001 100 100-44.799999999999955 100-100 100z m0-50c27.600000000000023 0 50-22.399999999999977 50-50s-22.399999999999977-50-50-50-50 22.399999999999977-50 50 22.399999999999977 50 50 50z"/></svg>