<svg height="1000" width="1000.0" xmlns="http://www.w3.org/2000/svg"><path d="m500 83.3c-229.2 0-416.7 187.5-416.7 416.7-1.4210854715202004e-14 229.20000000000005 187.5 416.70000000000005 416.7 416.70000000000005 229.20000000000005 0 416.70000000000005-187.5 416.70000000000005-416.70000000000005 0-229.2-187.5-416.7-416.70000000000005-416.7z m0 916.7c-275 0-500-225-500-500 0-275 225-500 500-500 275 0 500 225 500 500 0 275-225 500-500 500z m-54.19999999999999-500l162.49999999999994-162.5c16.700000000000045-16.69999999999999 16.700000000000045-41.69999999999999 0-58.30000000000001-16.59999999999991-16.69999999999999-41.59999999999991-16.69999999999999-58.299999999999955 0l-191.7 191.60000000000002c-16.600000000000023 16.69999999999999-16.600000000000023 41.69999999999999 0 58.400000000000034l191.7 191.5999999999999c16.700000000000045 16.700000000000045 41.700000000000045 16.700000000000045 58.299999999999955 0s16.700000000000045-41.59999999999991 0-58.299999999999955l-162.49999999999994-162.5z"/></svg>