<svg height="1000" width="1000.0" xmlns="http://www.w3.org/2000/svg"><path d="m300 275c0-106.6 93.39999999999998-200 200-200s200 93.4 200 200c0 13.800000000000011-11.200000000000045 25-25 25s-25-11.199999999999989-25-25c0-79.9-70.10000000000002-150-150-150s-150 70.1-150 150c0 13.800000000000011-11.199999999999989 25-25 25s-25-11.199999999999989-25-25z m200 250c-27.600000000000023 0-50 22.399999999999977-50 50 0 18.399999999999977 10.100000000000023 34.39999999999998 25 43.10000000000002v106.89999999999998c0 13.799999999999955 11.300000000000011 25 25 25s25-11.200000000000045 25-25v-106.89999999999998c14.899999999999977-8.700000000000045 25-24.600000000000023 25-43.10000000000002 0-27.600000000000023-22.399999999999977-50-50-50z m375-75v100c0 206.79999999999995-168.20000000000005 375-375 375s-375-168.20000000000005-375-375v-100c0-55.19999999999999 44.80000000000001-100 100-100h550c55.200000000000045 0 100 44.80000000000001 100 100z m-50 0c0-27.600000000000023-22.399999999999977-50-50-50h-550c-27.599999999999994 0-50 22.399999999999977-50 50v100c0 179.20000000000005 145.8 325 325 325s325-145.79999999999995 325-325v-100z"/></svg>