<svg height="1000" width="1000.0" xmlns="http://www.w3.org/2000/svg"><path d="m484.2 895.2c-3.8999999999999773 0-7.899999999999977-0.900000000000091-11.599999999999966-2.900000000000091-130.20000000000005-68.09999999999991-230.20000000000002-150.29999999999995-305.70000000000005-251.0999999999999-65.99999999999997-88-95.19999999999997-175.70000000000005-89.29999999999998-268.1 7.400000000000006-118.20000000000002 100-211.90000000000003 220.1-222.90000000000003 68.5-6.399999999999977 146 45.900000000000006 186 77.60000000000002 9.5 7.5 22.80000000000001 7.5 31.80000000000001 0 29-24 84.29999999999995-66.10000000000002 128.5-77 66.89999999999998-16.5 132.70000000000005-3.700000000000017 185.29999999999995 35.89999999999998 57.5 43.400000000000006 92.20000000000005 113.60000000000002 95.20000000000005 192.40000000000003 2.8999999999999773 79.5-19.600000000000023 156.5-67.10000000000002 228.79999999999995-62.10000000000002 94.80000000000007-145.60000000000002 174-255.10000000000002 242.30000000000007-11.699999999999932 7.2999999999999545-27.09999999999991 3.699999999999932-34.39999999999998-8s-3.699999999999932-27.100000000000023 7.899999999999977-34.40000000000009c103.30000000000007-64.39999999999998 181.70000000000005-138.69999999999993 239.80000000000007-227.29999999999995 42.19999999999993-64.29999999999995 61.5-129.60000000000002 58.89999999999998-199.5-2.3999999999999773-63.69999999999999-29.799999999999955-120-75.29999999999995-154.3-40.40000000000009-30.399999999999977-91.30000000000007-40.099999999999994-143.20000000000005-27.299999999999983-24.899999999999977 6.099999999999994-65.5 31.19999999999999-108.60000000000002 66.99999999999997-27 22.5-66.89999999999998 22.700000000000045-94.69999999999999 0.7000000000000455-57.39999999999998-45.400000000000034-113.80000000000001-70.40000000000003-150.39999999999998-67.10000000000002-95.5 8.800000000000011-169 82.89999999999998-174.9 176.3-5.1000000000000085 81.19999999999999 20.099999999999994 155.8 79.4 234.99999999999994 71.09999999999997 94.80000000000007 165.59999999999997 172.20000000000005 289 236.9000000000001 12.199999999999989 6.399999999999977 16.999999999999943 21.5 10.599999999999966 33.69999999999993-4.5 8.5-13.099999999999966 13.399999999999977-22.19999999999999 13.399999999999977z"/></svg>