<svg height="1000" width="1000.0" xmlns="http://www.w3.org/2000/svg"><path d="m800 150h-600c-55 0-100 45-100 100v64.30000000000001h0.5999999999999943c0.7000000000000028 5.699999999999989 2.700000000000003 10.199999999999989 6.900000000000006 14.399999999999977l317.5 244.00000000000006c37.5 37.5 112.5 37.5 150 0l317.5-244.00000000000006c4.2000000000000455-4.199999999999989 6.2000000000000455-8.699999999999989 6.899999999999977-14.399999999999977h0.6000000000000227v-64.30000000000001c0-55-45-100-100-100z m50 150.8l-300 221.90000000000003c-25 25-75 25-100 0l-300-221.90000000000003v-50.80000000000001c0-27.599999999999994 22.400000000000006-50 50-50h600c27.600000000000023 0 50 22.400000000000006 50 50v50.80000000000001z m50 150v299.2c0 55-45 100-100 100h-600c-55 0-100-45-100-100v-299.2c0-13.800000000000011 11.200000000000003-25 25-25s25 11.199999999999989 25 25v299.2c0 27.600000000000023 22.400000000000006 50 50 50h600c27.600000000000023 0 50-22.399999999999977 50-50v-299.2c0-13.800000000000011 11.200000000000045-25 25-25s25 11.199999999999989 25 25z"/></svg>