<svg height="1000" width="1000.0" xmlns="http://www.w3.org/2000/svg"><path d="m480.2 673.7c4.699999999999989 3.7999999999999545 10.300000000000011 5.7999999999999545 16.100000000000023 5.7999999999999545s11.300000000000011-2 15.999999999999943-5.7999999999999545c7.900000000000091-6.600000000000023 194.30000000000007-164.30000000000007 194.30000000000007-363.40000000000003 0-116-94.39999999999998-210.3-210.3-210.3s-210.3 94.30000000000001-210.3 210.3c-0.10000000000002274 199.09999999999997 186.3 356.8 194.3 363.40000000000003z m16.100000000000023-523.7c88.40000000000003 0 160.3 71.9 160.3 160.3 0 143.59999999999997-116.89999999999998 268.8-160.40000000000003 310.40000000000003-43.39999999999998-41.5-160.3-166.40000000000003-160.3-310.40000000000003 0-88.4 71.90000000000003-160.3 160.40000000000003-160.3z m403.7 209.39999999999998v415.6c0 10-6 19.100000000000023-15.200000000000045 23l-234.39999999999998 100c-3.1000000000000227 1.2999999999999545-6.399999999999977 2-9.799999999999955 2-2.7000000000000455 0-5.5-0.5-8.100000000000023-1.3999999999999773l-281.3-96.80000000000007-216 96c-7.799999999999983 3.5-16.69999999999999 2.7000000000000455-23.799999999999983-1.7999999999999545-7.1000000000000085-4.7000000000000455-11.400000000000006-12.5-11.400000000000006-21v-421.9c0-9.200000000000045 5.099999999999994-17.700000000000045 13.299999999999997-22l100.00000000000001-53.200000000000045c12.099999999999994-6.5 27.299999999999983-1.7999999999999545 33.79999999999998 10.400000000000034s1.8000000000000114 27.30000000000001-10.299999999999983 33.80000000000001l-86.80000000000001 46.099999999999966v368.3l189.89999999999998-84.29999999999995c5.800000000000011-2.6000000000000227 12.300000000000011-2.900000000000091 18.30000000000001-0.8000000000000682l281.50000000000006 96.89999999999998 210.29999999999995-89.79999999999995v-362l-65.60000000000002 26.69999999999999c-12.600000000000023 5.100000000000023-27.299999999999955-1-32.5-13.800000000000011s0.8999999999999773-27.399999999999977 13.800000000000068-32.599999999999966l100-40.60000000000002c7.699999999999932-3.099999999999966 16.399999999999977-2.1999999999999886 23.299999999999955 2.400000000000034 6.899999999999977 4.699999999999989 11.100000000000023 12.5 11.100000000000023 20.799999999999955z m-400-34.39999999999998c-27.600000000000023 0-50-22.399999999999977-50-50s22.399999999999977-50 50-50 50 22.400000000000006 50 50c0 27.600000000000023-22.399999999999977 50-50 50z"/></svg>