<svg height="1000" width="1000.0" xmlns="http://www.w3.org/2000/svg"><path d="m750 75h-349.5c-24 0-46.60000000000002 11.599999999999994-60.69999999999999 30.900000000000006l-175.5 241.29999999999998c-9.400000000000006 12.900000000000034-14.300000000000011 28.100000000000023-14.300000000000011 44.10000000000002v433.7c0 55.200000000000045 44.80000000000001 100 100 100h500c55.200000000000045 0 100-44.799999999999955 100-100v-650c0-55.2-44.799999999999955-100-100-100z m50 750c0 27.600000000000023-22.399999999999977 50-50 50h-500c-27.599999999999994 0-50-22.399999999999977-50-50v-433.7c0-5.400000000000034 1.6999999999999886-10.5 4.800000000000011-14.699999999999989l175.5-241.3c4.599999999999966-6.400000000000006 12.199999999999989-10.300000000000011 20.19999999999999-10.300000000000011h349.5c27.600000000000023 0 50 22.400000000000006 50 50v650z m-325-600v125c0 13.800000000000011-11.199999999999989 25-25 25s-25-11.199999999999989-25-25v-125c0-13.699999999999989 11.300000000000011-25 25-25s25 11.300000000000011 25 25z m125 0v125c0 13.800000000000011-11.200000000000045 25-25 25s-25-11.199999999999989-25-25v-125c0-13.699999999999989 11.299999999999955-25 25-25s25 11.300000000000011 25 25z m125 0v125c0 13.800000000000011-11.200000000000045 25-25 25s-25-11.199999999999989-25-25v-125c0-13.699999999999989 11.299999999999955-25 25-25s25 11.300000000000011 25 25z"/></svg>