<svg height="1000" width="1000.0" xmlns="http://www.w3.org/2000/svg"><path d="m850 200h-700c-13.699999999999989 0-25-11.199999999999989-25-25v0c0-13.699999999999989 11.300000000000011-25 25-25h700c13.799999999999955 0 25 11.300000000000011 25 25v0c0 13.800000000000011-11.200000000000045 25-25 25z m25 300v0c0-13.699999999999989-11.200000000000045-25-25-25h-700c-13.699999999999989 0-25 11.300000000000011-25 25v0c0 13.799999999999955 11.300000000000011 25 25 25h700c13.799999999999955 0 25-11.200000000000045 25-25z m0 325v0c0-13.700000000000045-11.200000000000045-25-25-25h-700c-13.699999999999989 0-25 11.299999999999955-25 25v0c0 13.799999999999955 11.300000000000011 25 25 25h700c13.799999999999955 0 25-11.200000000000045 25-25z"/></svg>