<svg height="1000" width="1000.0" xmlns="http://www.w3.org/2000/svg"><path d="m602.3 609.9c-7.599999999999909-0.6000000000000227-15.199999999999932-1.6999999999999318-22.699999999999932-3.1000000000000227-49.5-9.099999999999909-94.60000000000002-32.89999999999998-130.3-68.59999999999991-38.60000000000002-38.700000000000045-63-87.60000000000002-70.40000000000003-141.60000000000002-1.8999999999999773-13.700000000000045-14.699999999999989-23.400000000000034-28.19999999999999-21.30000000000001-13.699999999999989 1.8000000000000114-23.30000000000001 14.399999999999977-21.399999999999977 28.099999999999966 4.099999999999966 29.400000000000034 12.5 57.400000000000034 24.599999999999966 83.70000000000005l-245.99999999999997 246c-43.900000000000006 43.89999999999998-43.900000000000006 115.19999999999993 0 159.10000000000002 21.900000000000006 21.899999999999977 50.69999999999999 32.89999999999998 79.5 32.89999999999998s57.69999999999999-11 79.6-32.89999999999998l251.10000000000002-251.10000000000002c16.899999999999977 6.399999999999977 34.39999999999998 11.600000000000023 52.39999999999998 14.899999999999977 9.100000000000023 1.7000000000000455 18.200000000000045 2.8999999999999773 27.299999999999955 3.7999999999999545 0.8000000000000682 0 1.5 0 2.300000000000068 0 12.799999999999955 0 23.699999999999932-9.699999999999932 24.899999999999977-22.699999999999932 1.2000000000000455-13.700000000000045-9-25.899999999999977-22.700000000000045-27.200000000000045z m-370.69999999999993 246.89999999999998c-24.400000000000034 24.40000000000009-64.00000000000003 24.40000000000009-88.40000000000003 0-11.699999999999989-11.699999999999932-18.19999999999999-27.399999999999977-18.19999999999999-44.19999999999993s6.5-32.39999999999998 18.19999999999999-44.200000000000045l236.3-236.29999999999995c10.199999999999989 14.699999999999932 21.5 28.600000000000023 34.39999999999998 41.5 17.200000000000045 17.199999999999932 36.200000000000045 31.899999999999977 56.60000000000002 44.299999999999955l-238.9 238.89999999999998z m627.5-679.5999999999999c-53.39999999999998-66.90000000000005-132.60000000000002-107.90000000000005-217.30000000000007-112.70000000000005-84.79999999999995-4.799999999999997-167.79999999999995 26.900000000000006-227.89999999999998 86.9-20.899999999999977 21-38.599999999999966 44.69999999999999-52.39999999999998 70.6-15 28.19999999999999-9.300000000000011 64.10000000000002 13.800000000000011 87.19999999999999l302.8 302.90000000000003c14.5 14.5 34 22.100000000000023 53.5 22.100000000000023 11.699999999999932 0 23.5-2.800000000000068 34.19999999999993-8.5 37.200000000000045-19.90000000000009 69.40000000000009-47.30000000000007 95.80000000000007-81.20000000000005 83.10000000000002-106.89999999999998 81.89999999999998-261.4-2.6000000000000227-367.3z m-36.89999999999998 336.69999999999993c-22.100000000000023 28.399999999999977-49 51.200000000000045-80 67.80000000000007-9.100000000000023 4.899999999999977-20.90000000000009 2.8999999999999773-28.700000000000045-4.900000000000091l-302.8-302.9c-7.699999999999989-7.699999999999989-9.800000000000011-19.299999999999983-5-28.299999999999983 11.5-21.5 26.100000000000023-41.29999999999998 43.60000000000002-58.79999999999998 46.69999999999999-46.70000000000002 110.09999999999997-72.80000000000001 175.8-72.80000000000001 4.699999999999932 0 9.299999999999955 0.20000000000000284 13.899999999999977 0.4000000000000057 71.60000000000002 4 135.79999999999995 37.400000000000006 181 94 70.29999999999995 88.1 71.20000000000005 216.6 2.2000000000000455 305.5z"/></svg>