<svg height="1000" width="1000.0" xmlns="http://www.w3.org/2000/svg"><path d="m750 75h-500c-55.19999999999999 0-100 44.8-100 100v650c0 55.200000000000045 44.80000000000001 100 100 100h500c55.200000000000045 0 100-44.799999999999955 100-100v-650c0-55.2-44.799999999999955-100-100-100z m-500 50h500c27.600000000000023 0 50 22.400000000000006 50 50v475h-600v-475c0-27.599999999999994 22.400000000000006-50 50-50z m500 750h-500c-27.599999999999994 0-50-22.399999999999977-50-50v-125h600v125c0 27.600000000000023-22.399999999999977 50-50 50z m-350-675c0-13.699999999999989 11.300000000000011-25 25-25h150c13.799999999999955 0 25 11.300000000000011 25 25s-11.200000000000045 25-25 25h-150c-13.699999999999989 0-25-11.199999999999989-25-25z m150 600c0 27.600000000000023-22.399999999999977 50-50 50s-50-22.399999999999977-50-50c0-27.600000000000023 22.399999999999977-50 50-50s50 22.399999999999977 50 50z"/></svg>