<svg height="1000" width="1000.0" xmlns="http://www.w3.org/2000/svg"><path d="m872.6 117c-17.5-14.200000000000003-40.10000000000002-19.900000000000006-62.30000000000007-15.5l-399.99999999999994 80c-35 7-60.30000000000001 37.900000000000006-60.30000000000001 73.5v494c0 57.799999999999955-34.5 96.29999999999995-90.10000000000002 100.60000000000002-53.79999999999998 4.100000000000023-99.29999999999998-30.300000000000068-108.49999999999997-81.80000000000007-5.400000000000006-30.699999999999932 2.4000000000000057-60.5 21.900000000000006-83.79999999999995 23.5-27.899999999999977 61.69999999999999-41.10000000000002 96.80000000000001-34.10000000000002 13.399999999999977 2.800000000000068 26.69999999999999-6 29.399999999999977-19.5s-6-26.699999999999932-19.600000000000023-29.5c-9.599999999999966-1.8999999999999773-19.5-2.8999999999999773-29.399999999999977-2.8999999999999773-44.69999999999999 0-86.80000000000001 19.700000000000045-115.5 53.89999999999998-28.799999999999997 34.39999999999998-40.8 79.80000000000007-32.8 124.60000000000002 12.799999999999997 72.20000000000005 75.8 123.39999999999998 149.3 123.39999999999998 4 0 8.199999999999989-0.10000000000002274 12.300000000000011-0.5 81.5-6.199999999999932 136.2-66.69999999999993 136.2-150.39999999999998v-378.5l450-90v368.5c0 61.299999999999955-39.299999999999955 101-100.10000000000002 101-28.899999999999977 0-56.299999999999955-12.399999999999977-75.19999999999993-34.200000000000045-19.600000000000023-22.399999999999977-28.100000000000023-51.39999999999998-23.90000000000009-81.5 6.5-47.39999999999998 49.30000000000007-85.19999999999993 97.40000000000009-86.29999999999995 7.5-0.20000000000004547 14.799999999999955 0.5 21.899999999999977 1.8999999999999773 13.600000000000023 2.8999999999999773 26.699999999999932-6 29.399999999999977-19.600000000000023s-6-26.599999999999966-19.600000000000023-29.399999999999977c-10.600000000000023-2.099999999999966-21.5-3.099999999999966-32.69999999999993-2.8999999999999773-73.30000000000007 1.6000000000000227-136.10000000000002 57.299999999999955-146 129.5-6 44 7 88.20000000000005 35.69999999999993 121.20000000000005 28.5 32.59999999999991 69.70000000000005 51.299999999999955 113 51.299999999999955 88.39999999999998 0 150.10000000000002-62.10000000000002 150.10000000000002-151v-474c0-22.5-10-43.69999999999999-27.399999999999977-58z m-472.6 202.5v-64.5c0-11.900000000000006 8.399999999999977-22.19999999999999 20.100000000000023-24.5l400-80c7.2999999999999545-1.5 14.899999999999977 0.4000000000000057 20.699999999999932 5.199999999999989s9.200000000000045 11.800000000000011 9.200000000000045 19.30000000000001v54.5l-450 90z"/></svg>