<svg height="1000" width="1000.0" xmlns="http://www.w3.org/2000/svg"><path d="m845.7 579.2c-26.600000000000023 182.89999999999998-185.9000000000001 320.79999999999995-370.70000000000005 320.79999999999995-206.8 0-375-168.20000000000005-375-375 0-184.8 137.9-344.1 320.8-370.7 10-1.5 20 3.299999999999983 25.099999999999966 12s4.600000000000023 19.799999999999983-1.599999999999966 27.899999999999977c-34.400000000000034 45.400000000000006-52.60000000000002 99.30000000000001-52.60000000000002 155.8 0 142.39999999999998 115.90000000000003 258.29999999999995 258.3 258.29999999999995 15.399999999999977 0 30.700000000000045-1.3999999999999773 45.60000000000002-4.099999999999909 13.5-2.5 26.5 6.599999999999909 29 20.199999999999932s-6.5 26.600000000000023-20.200000000000045 29.100000000000023c-17.699999999999932 3.2000000000000455-36 4.7999999999999545-54.39999999999998 4.7999999999999545-170 0-308.3-138.29999999999995-308.3-308.29999999999995 0-46.60000000000002 10.300000000000011-91.60000000000002 30.19999999999999-132.8-129.7 43.60000000000002-221.89999999999998 167.2-221.89999999999998 307.8 0 179.20000000000005 145.8 325 325 325 160.10000000000002 0 298.20000000000005-119.5 321.29999999999995-278 1.900000000000091-13.700000000000045 14.5-23.5 28.300000000000068-21.200000000000045 13.600000000000023 2 23.100000000000023 14.700000000000045 21.100000000000023 28.300000000000068z m54.299999999999955-329.20000000000005c0 9.100000000000023-5 17.600000000000023-13 21.899999999999977l-74.39999999999998 40.700000000000045-40.700000000000045 74.39999999999998c-4.2999999999999545 8-12.799999999999955 13-21.899999999999977 13s-17.600000000000023-5-21.899999999999977-13l-40.700000000000045-74.39999999999998-74.39999999999998-40.700000000000045c-8-4.2999999999999545-13-12.799999999999955-13-21.899999999999977s5-17.599999999999994 13-21.900000000000006l74.39999999999998-40.69999999999999 40.700000000000045-74.4c8.699999999999932-16.099999999999994 35.10000000000002-16.099999999999994 43.799999999999955 0l40.700000000000045 74.4 74.39999999999998 40.69999999999999c8 4.300000000000011 13 12.800000000000011 13 21.900000000000006z m-77.10000000000002 0l-40.69999999999993-22.30000000000001c-4.2000000000000455-2.299999999999983-7.600000000000023-5.699999999999989-9.900000000000091-9.899999999999977l-22.299999999999955-40.70000000000002-22.299999999999955 40.70000000000002c-2.300000000000068 4.199999999999989-5.7000000000000455 7.599999999999994-9.900000000000091 9.899999999999977l-40.69999999999993 22.30000000000001 40.69999999999993 22.30000000000001c4.2000000000000455 2.3000000000000114 7.600000000000023 5.699999999999989 9.900000000000091 9.899999999999977l22.299999999999955 40.69999999999999 22.299999999999955-40.69999999999999c2.300000000000068-4.199999999999989 5.7000000000000455-7.599999999999966 9.900000000000091-9.899999999999977l40.69999999999993-22.30000000000001z"/></svg>