<svg height="1000" width="1000.0" xmlns="http://www.w3.org/2000/svg"><path d="m650 875c0 13.799999999999955-11.200000000000045 25-25 25h-400c-68.9 0-125-56.10000000000002-125-125v-550c0-68.9 56.099999999999994-125 125-125h475c68.89999999999998 0 125 56.099999999999994 125 125v25c0 13.800000000000011-11.200000000000045 25-25 25s-25-11.199999999999989-25-25v-25c0-41.30000000000001-33.700000000000045-75-75-75h-475c-41.30000000000001 0-75 33.69999999999999-75 75v550c0 41.299999999999955 33.69999999999999 75 75 75h400c13.799999999999955 0 25 11.200000000000045 25 25z m-25-550c0-13.699999999999989-11.200000000000045-25-25-25h-325c-13.699999999999989 0-25 11.300000000000011-25 25s11.300000000000011 25 25 25h325c13.799999999999955 0 25-11.199999999999989 25-25z m-75 175v0c0-13.699999999999989-11.200000000000045-25-25-25h-250c-13.699999999999989 0-25 11.300000000000011-25 25v0c0 13.799999999999955 11.300000000000011 25 25 25h250c13.799999999999955 0 25-11.200000000000045 25-25z m-275 150c-13.699999999999989 0-25 11.299999999999955-25 25s11.300000000000011 25 25 25h150c13.800000000000011 0 25-11.200000000000045 25-25s-11.199999999999989-25-25-25h-150z m625-225v358.29999999999995c0 10.800000000000068-3.6000000000000227 21.5-10 30.100000000000023l-62.5 66.60000000000002c-9.5 12.700000000000045-24.100000000000023 20-40 20s-30.5-7.2999999999999545-40-20v0l-62.5-66.70000000000005c-6.399999999999977-8.5-10-19.199999999999932-10-30v-358.29999999999995c0-41.30000000000001 33.700000000000045-75 75-75h75c41.299999999999955 0 75 33.69999999999999 75 75z m-175 50h125v-50c0-13.800000000000011-11.200000000000045-25-25-25h-75c-13.799999999999955 0-25 11.199999999999989-25 25v50z m125 308.4v-258.4h-125v258.29999999999995l62.5 66.70000000000005 62.5-66.70000000000005z"/></svg>