<svg height="1000" width="1000.0" xmlns="http://www.w3.org/2000/svg"><path d="m876.7 675h-51.700000000000045v-200c0-173.8-129.89999999999998-311.3-300-323.8v-52.89999999999999c0-12.799999999999997-10.5-23.299999999999997-23.30000000000001-23.299999999999997h-3.3000000000000114c-12.899999999999977 0-23.399999999999977 10.5-23.399999999999977 23.299999999999997v52.89999999999999c-170.10000000000002 12.5-300 150-300 323.8v200h-51.7c-12.799999999999997 0-23.299999999999997 12.200000000000045-23.299999999999997 25s10.5 25 23.299999999999997 25h753.4000000000001c12.799999999999955 0 23.299999999999955-12.200000000000045 23.299999999999955-25s-10.5-25-23.299999999999955-25z m-101.70000000000005 0h-550v-200c0-154.2 120.80000000000001-275 275-275s275 120.80000000000001 275 275v200z m-133 106.70000000000005c10.5 8.799999999999955 12.600000000000023 23.5 4 34.09999999999991-29.700000000000045 52.80000000000007-85.60000000000002 85-147.3 85-2 0-3.8999999999999773 0-5.800000000000011-0.09999999999990905-61.89999999999998-2-113.89999999999998-35.700000000000045-139.09999999999997-90.20000000000005-5.699999999999989-12.5-0.30000000000001137-27.399999999999977 12.300000000000011-33.200000000000045s27.399999999999977-0.2999999999999545 33.19999999999999 12.200000000000045c17 37 52.599999999999966 59.799999999999955 95.19999999999999 61.200000000000045 45.5 1.5 87.5-21.90000000000009 108.79999999999995-61l2.800000000000068-4.2000000000000455c9-10.600000000000023 25.299999999999955-12.700000000000045 35.89999999999998-3.7999999999999545z"/></svg>