<svg height="1000" width="1000.0" xmlns="http://www.w3.org/2000/svg"><path d="m950 500c0 13.799999999999955-11.200000000000045 25-25 25h-51.10000000000002c-5.2999999999999545 80.60000000000002-35.89999999999998 156.70000000000005-88.39999999999998 218.20000000000005l30.100000000000023 37.19999999999993c8.699999999999932 10.800000000000068 7.100000000000023 26.5-3.7000000000000455 35.200000000000045-10.699999999999932 8.600000000000023-26.5 7-35.10000000000002-3.7000000000000455l-57.5-71 15.200000000000045-15.899999999999977c58.299999999999955-60.799999999999955 90.5-140.70000000000005 90.5-225 0-179.2-145.79999999999995-325-325-325s-325 145.8-325 325 145.8 325 325 325c8.399999999999977 0 16.799999999999955-0.2999999999999545 25-0.8999999999999773 34.60000000000002-2.6000000000000227 68.29999999999995-10.700000000000045 100.20000000000005-24.100000000000023 12.799999999999955-5.2999999999999545 27.399999999999977 0.7000000000000455 32.69999999999993 13.5s-0.6999999999999318 27.299999999999955-13.5 32.700000000000045c-36.799999999999955 15.299999999999955-75.69999999999993 24.59999999999991-115.60000000000002 27.699999999999932-1.2999999999999545 0.10000000000002274-2.699999999999932 0-4 0.10000000000002274 0 0.2999999999999545 0.20000000000004547 0.7000000000000455 0.20000000000004547 1v50c0 13.700000000000045-11.299999999999955 25-25 25s-25-11.299999999999955-25-25v-50c0-0.5 0.19999999999998863-0.7999999999999545 0.19999999999998863-1.2999999999999545-84.80000000000001-5.5-161.8-39.30000000000007-221.89999999999998-92-0.4000000000000057 0.2999999999999545-0.5 0.7999999999999545-0.8000000000000114 1.099999999999909l-35.30000000000001 35.40000000000009c-9.799999999999983 9.699999999999932-25.69999999999999 9.699999999999932-35.39999999999998 0s-9.700000000000017-25.700000000000045 0-35.40000000000009l35.39999999999998-35.299999999999955c0.30000000000001137-0.39999999999997726 0.8000000000000114-0.5 1.1000000000000227-0.7999999999999545-52.70000000000002-60.10000000000002-86.4-137-92.00000000000001-221.70000000000005h-51.3c-13.799999999999997 0-25-11.299999999999955-25-25s11.200000000000003-25 25-25h51.3c5.6000000000000085-84.69999999999999 39.3-161.60000000000002 92.00000000000001-221.7-0.4000000000000057-0.4000000000000057-0.8000000000000114-0.5-1.200000000000017-0.8000000000000114l-35.29999999999998-35.400000000000006c-9.700000000000017-9.699999999999989-9.700000000000017-25.599999999999994 0-35.29999999999998s25.599999999999994-9.700000000000017 35.29999999999998 0l35.400000000000006 35.29999999999998c0.30000000000001137 0.4000000000000057 0.4000000000000057 0.8000000000000114 0.6999999999999886 1.200000000000017 60.19999999999999-52.80000000000001 137.2-86.5 222-92.10000000000001 0-0.4000000000000057-0.19999999999998863-0.7999999999999972-0.19999999999998863-1.2000000000000028v-50c0-13.799999999999997 11.199999999999989-25 25-25s25 11.200000000000003 25 25v50c0 0.4000000000000057-0.20000000000004547 0.7999999999999972-0.2999999999999545 1.2000000000000028 84.79999999999995 5.6000000000000085 161.79999999999995 39.3 222 92.10000000000001 0.2999999999999545-0.4000000000000057 0.39999999999997726-0.8000000000000114 0.6999999999999318-1.200000000000017l35.39999999999998-35.29999999999998c9.700000000000045-9.700000000000017 25.600000000000023-9.700000000000017 35.30000000000007 0s9.699999999999932 25.599999999999994 0 35.29999999999998l-35.30000000000007 35.400000000000006c-0.2999999999999545 0.30000000000001137-0.7999999999999545 0.4000000000000057-1.099999999999909 0.6999999999999886 52.69999999999993 60.10000000000002 86.39999999999998 137.10000000000002 92 221.7h51.299999999999955c13.700000000000045 0.10000000000002274 25 11.300000000000011 25 25.100000000000023z m-450-200c110.29999999999995 0 200 89.69999999999999 200 200s-89.70000000000005 200-200 200-200-89.70000000000005-200-200 89.69999999999999-200 200-200z m0 50c-82.69999999999999 0-150 67.30000000000001-150 150s67.30000000000001 150 150 150 150-67.29999999999995 150-150-67.29999999999995-150-150-150z"/></svg>