<svg height="1000" width="1000.0" xmlns="http://www.w3.org/2000/svg"><path d="m900 246.9v550c0 56.700000000000045-46.700000000000045 103.10000000000002-103.5 103.10000000000002h-593.7c-56.69999999999996 0-102.79999999999995-46.39999999999998-102.79999999999995-103.10000000000002v-550c0-53.49999999999997 43-96.89999999999998 96.5-96.89999999999998h28.19999999999999c13.800000000000011 0 25 11.199999999999989 25 25s-11.199999999999989 25-25 25h-28.19999999999999c-25.80000000000001 0-46.5 21-46.5 46.900000000000006v550c0 27.5 18.900000000000006 53.10000000000002 46.5 53.10000000000002h600c27.600000000000023 0 53.5-25.600000000000023 53.5-53.10000000000002v-543.8c0-29.200000000000017-24.200000000000045-53.10000000000002-53.5-53.10000000000002h-21.799999999999955c-13.900000000000091 0-25-11.199999999999989-25-25s11.099999999999909-25 25-25h28.09999999999991c53.5 0 97.20000000000005 43.400000000000006 97.20000000000005 96.9z m-200.29999999999995 203.1h-400.00000000000006c-13.800000000000011 0-25 11.300000000000011-25 25s11.199999999999989 25 25 25h400.00000000000006c13.699999999999932 0 25-11.199999999999989 25-25s-11.300000000000068-25-25-25z m0 175h-400.00000000000006c-13.800000000000011 0-25 11.299999999999955-25 25s11.199999999999989 25 25 25h400.00000000000006c13.699999999999932 0 25-11.200000000000045 25-25s-11.300000000000068-25-25-25z m-450.00000000000006-350c0-13.699999999999989 11.199999999999989-25 25-25h50.30000000000001v-75c0-41.30000000000001 33.30000000000001-75 74.69999999999999-75h200.00000000000006c41.299999999999955 0 75.29999999999995 33.69999999999999 75.29999999999995 75v75h49.700000000000045c13.699999999999932 0 25 11.300000000000011 25 25s-11.300000000000068 25-25 25h-450.00000000000006c-13.800000000000011 0-25-11.199999999999989-25-25z m125.30000000000001-25h250v-75c0-13.800000000000011-11.600000000000023-25-25.299999999999955-25h-200.00000000000006c-13.800000000000011 0-24.69999999999999 11.199999999999989-24.69999999999999 25v75z"/></svg>