<svg height="1000" width="1000.0" xmlns="http://www.w3.org/2000/svg"><path d="m800 100h-600c-55.19999999999999 0-100 44.80000000000001-100 100v450c0 55.200000000000045 44.80000000000001 100 100 100h200v100h-75c-13.699999999999989 0-25 11.299999999999955-25 25s11.300000000000011 25 25 25h350c13.799999999999955 0 25-11.200000000000045 25-25s-11.200000000000045-25-25-25h-75v-100h200c55.200000000000045 0 100-44.799999999999955 100-100v-450c0-55.19999999999999-44.799999999999955-100-100-100z m-350 750v-100h100v100h-100z m400-200c0 27.600000000000023-22.399999999999977 50-50 50h-600c-27.599999999999994 0-50-22.399999999999977-50-50v-25h700v25z m0-75h-700v-375c0-27.599999999999994 22.400000000000006-50 50-50h600c27.600000000000023 0 50 22.400000000000006 50 50v375z"/></svg>