<svg height="1000" width="1000.0" xmlns="http://www.w3.org/2000/svg"><path d="m875 852.7c0 14.099999999999909-9.399999999999977 23.5-23.399999999999977 23.5s-23.5-9.400000000000091-23.5-23.5c0-133.5-79.70000000000005-248.4000000000001-194.5-299.9000000000001-3.300000000000068-1.2999999999999545-7-2.3999999999999773-11.700000000000045-4.699999999999932-16.399999999999977-7-21.100000000000023-28.100000000000023-7-39.80000000000001 2.300000000000068-2.400000000000034 7-7 9.399999999999977-9.400000000000034 39.80000000000007-32.799999999999955 63.200000000000045-82 63.200000000000045-138.2 0-110.19999999999999-96-199.2-208.5-187.5-84.39999999999998 9.400000000000006-152.3 77.30000000000001-164.10000000000002 159.3-9.299999999999955 65.60000000000002 16.400000000000034 126.60000000000002 61 166.39999999999998 0.5 0.5 8.5 8.600000000000023 9.400000000000034 9.400000000000034 14 11.699999999999989 9.300000000000011 32.80000000000001-7.100000000000023 39.80000000000001-3.5 1.3999999999999773-7.5 3-11.699999999999989 4.699999999999932-98.39999999999998 44.5-173.4 138.20000000000005-189.8 248.4000000000001-2.3999999999999773 14.099999999999909 9.400000000000006 28.09999999999991 23.400000000000006 28.09999999999991h534.3c11.700000000000045 0 23.399999999999977 11.700000000000045 23.399999999999977 23.5s-11.699999999999932 23.40000000000009-23.399999999999977 23.40000000000009h-562.4c-25.80000000000001 0-46.900000000000006-23.40000000000009-44.599999999999994-51.60000000000002 9.400000000000006-131.20000000000005 89.1-246 201.6-304.6-39.80000000000001-42.19999999999999-63.30000000000001-98.39999999999998-63.30000000000001-159.3 0-143 128.90000000000003-257.79999999999995 278.8-232 93.79999999999995 18.700000000000017 168.79999999999995 93.70000000000002 185.20000000000005 187.5 14 79.60000000000002-11.800000000000068 152.3-58.60000000000002 203.8 121.79999999999995 63.299999999999955 203.89999999999998 187.5 203.89999999999998 332.79999999999995z m-752.5-216.9000000000001c34.30000000000001-71.29999999999995 92-115.39999999999998 92.5-115.79999999999995l17.900000000000006-13.5-11.400000000000006-19.19999999999999c-73.9-124.60000000000002-5.099999999999994-217.5-1.6999999999999886-222 8.399999999999977-10.800000000000011 6.5-26.5-4.400000000000006-35s-26.599999999999994-6.600000000000023-35.099999999999994 4.299999999999983c-3.700000000000017 4.700000000000017-86.70000000000002 113.70000000000002-12.100000000000023 259.5-22.5 20.399999999999977-62.89999999999999 62.10000000000002-90.69999999999999 120.10000000000002-6 12.399999999999977-0.7000000000000028 27.399999999999977 11.700000000000003 33.299999999999955 3.5 1.7000000000000455 7.200000000000003 2.5 10.799999999999997 2.5 9.299999999999997 0 18.200000000000003-5.2000000000000455 22.5-14.200000000000045z m788.3 11.700000000000045c12.5-5.899999999999977 17.700000000000045-20.899999999999977 11.700000000000045-33.299999999999955-27.799999999999955-58-68.20000000000005-99.70000000000005-90.70000000000005-120.10000000000002 74.60000000000002-145.8-8.399999999999977-254.8-12.099999999999909-259.5-8.5-10.800000000000011-24.100000000000023-12.800000000000011-34.90000000000009-4.300000000000011s-12.899999999999977 24.099999999999994-4.5 35c3 3.8999999999999773 72.40000000000009 97-1.7999999999999545 222l-11.299999999999955 19.19999999999999 17.799999999999955 13.5c0.5 0.39999999999997726 58.299999999999955 44.5 92.5 115.79999999999995 4.2999999999999545 9 13.200000000000045 14.200000000000045 22.5 14.200000000000045 3.7000000000000455 0 7.2999999999999545-0.7999999999999545 10.799999999999955-2.5z"/></svg>