<svg height="1000" width="1000.0" xmlns="http://www.w3.org/2000/svg"><path d="m900 875.7c0 15-10 25-25 25s-25-10-25-25c0-142.5-85-265-207.5-320-2.5-2.5-7.5-2.5-12.5-5-17.5-7.5-22.5-30-7.5-42.50000000000006 2.5-2.5 7.5-7.5 10-10 42.5-35 67.5-87.5 67.5-147.5 0-117.5-102.5-212.5-222.5-200-90 10-162.5 82.5-175 170-10 70 17.5 135 65 177.5 2.5 5 5 7.5 10 10 15 12.500000000000057 10 35.00000000000006-7.5 42.50000000000006-5 0-7.5 2.5-12.5 5-105 47.5-185 147.5-202.5 265-2.5 15 10 30 25 30h570c12.5 0 25 12.5 25 25s-12.5 25-25 25h-600c-27.5 0-50-25-47.5-55 10-140 95-262.5 215-325-42.5-45.00000000000006-67.5-105.00000000000006-67.5-170.00000000000006 0-152.5 137.5-275 297.5-247.5 100 20.000000000000014 180 100 197.5 200 15 85-12.5 162.5-62.5 217.50000000000006 130 67.5 217.5 200 217.5 355z"/></svg>