<svg height="1000" width="1000.0" xmlns="http://www.w3.org/2000/svg"><path d="m711.3 896.9c-11.799999999999955 0-24.5-1.1000000000000227-38.5-3.2999999999999545-55.19999999999993-8.800000000000068-173.29999999999995-49.80000000000007-343.69999999999993-226.20000000000005-160.10000000000002-165.5-195.50000000000003-298.29999999999995-202.3-362.7-5.800000000000011-53.69999999999999 2.299999999999983-89.5 27.5-123.69999999999999 27.399999999999977-37 106.5-102.4 176.8-68.5 44.099999999999966 21.30000000000001 122.19999999999999 151.39999999999998 133.39999999999998 188.8 11.199999999999989 37.5-10 58.099999999999966-24 71.80000000000001-8.5 8.299999999999955-15.899999999999977 15.5-18.899999999999977 26.5-4.300000000000011 15.399999999999977 15.199999999999989 57 67.89999999999998 111.79999999999995 64.79999999999995 67.5 92.29999999999995 78.30000000000007 103.89999999999998 75.30000000000007 10.399999999999977-2.6000000000000227 17.5-9.800000000000068 25.899999999999977-18.200000000000045 13.100000000000023-13.299999999999955 35.200000000000045-35.5 72.20000000000005-21.899999999999977 36.60000000000002 13.5 150.89999999999998 103.5 175 141.89999999999998 7.2999999999999545 11.700000000000045 3.7999999999999545 27.100000000000023-7.899999999999977 34.39999999999998-11.700000000000045 7.399999999999977-27.200000000000045 3.8999999999999773-34.39999999999998-7.7999999999999545-18.100000000000023-28.700000000000045-122.90000000000009-111.60000000000002-150-121.60000000000002-6-2.2000000000000455-6.7000000000000455-2.6000000000000227-19.40000000000009 10.299999999999955-10.699999999999932 10.800000000000068-25.399999999999977 25.5-49.39999999999998 31.40000000000009-47.10000000000002 11.599999999999909-100.79999999999995-35.90000000000009-151.7-88.90000000000009-44.19999999999999-46.099999999999966-93.80000000000001-110.99999999999994-80.30000000000001-159.99999999999994 6.600000000000023-24.100000000000023 21.400000000000034-38.5 32.200000000000045-49.10000000000002 13.599999999999966-13.199999999999989 13.199999999999989-14.099999999999966 11-21.599999999999966-10.5-35.10000000000002-83.90000000000003-146.90000000000003-107.30000000000001-158.20000000000002-39.5-19.099999999999994-97.30000000000001 29.69999999999999-114.80000000000001 53.19999999999999-14.800000000000011 20.099999999999994-23 42-18 88.79999999999998 6.199999999999989 58 38.80000000000001 178.40000000000003 188.5 333.20000000000005 166.29999999999995 172.10000000000002 276.1 205.29999999999995 315.6 211.60000000000002 44.39999999999998 7 64.89999999999998-0.10000000000002274 85.10000000000002-14.700000000000045 6.099999999999909-4.399999999999977 14.299999999999955-12.299999999999955 21.899999999999977-21 9.100000000000023-10.399999999999977 24.899999999999977-11.399999999999977 35.299999999999955-2.3999999999999773s11.399999999999977 24.899999999999977 2.3999999999999773 35.299999999999955c-10.199999999999932 11.700000000000045-21 21.899999999999977-30.299999999999955 28.600000000000023-25.299999999999955 18.299999999999955-51 26.799999999999955-83.60000000000002 26.799999999999955z"/></svg>