<svg height="1000" width="1000.0" xmlns="http://www.w3.org/2000/svg"><path d="m425 370.8l216.89999999999998 131.39999999999998-216.89999999999998 131.3v-258.5z m75-295.8c-253 0-454.4 221.10000000000002-421.4 480.6 23.49999999999997 185.19999999999993 169.99999999999997 335.9 354.5 364.19999999999993 22.599999999999966 3.5 45 5.2000000000000455 66.89999999999998 5.2000000000000455 96.70000000000005 0 185.60000000000002-32.5 256.9-86.89999999999998 12.200000000000045-9.300000000000068 13.600000000000023-27.100000000000023 2.800000000000068-37.89999999999998-4.800000000000068-4.800000000000068-11-7.2000000000000455-17.40000000000009-7.2000000000000455-5.5 0-11.099999999999909 1.7999999999999545-15.899999999999977 5.399999999999977-62.89999999999998 48-141.29999999999995 76.60000000000002-226.39999999999998 76.60000000000002-19.80000000000001 0-40.10000000000002-1.6000000000000227-60.60000000000002-4.7999999999999545-161.79999999999995-25.700000000000045-290.2-158.10000000000002-311.2-320.6-29.499999999999986-228.8 148.7-424.6 371.8-424.6 8.300000000000011 0 16.700000000000045 0.29999999999999716 25.200000000000045 0.7999999999999972 177.89999999999998 11.700000000000003 325.9 151.5 347.0999999999999 328.5 11.5 96.40000000000003-14.099999999999909 186.40000000000003-64 258.40000000000003-7 10.199999999999932-6.2999999999999545 23.799999999999955 2.5 32.59999999999991 4.900000000000091 4.900000000000091 11.400000000000091 7.300000000000068 17.700000000000045 7.300000000000068 8 0 16-3.800000000000068 20.899999999999977-10.899999999999977 56.10000000000002-80.90000000000009 85-182.10000000000002 72.89999999999998-290.50000000000006-21.5-192.2-175.29999999999995-348.6-367.19999999999993-372.7-18.600000000000023-2.299999999999997-36.89999999999998-3.4000000000000057-55.10000000000002-3.4000000000000057v0z m-96.69999999999999 224.7c-14.5 0-28.30000000000001 10.300000000000011-28.30000000000001 26v348.59999999999997c0 15.900000000000091 13.600000000000023 26.40000000000009 27.899999999999977 26.40000000000009 5.400000000000034 0 10.800000000000011-1.400000000000091 15.700000000000045-4.600000000000023l283.29999999999995-174.30000000000007c17.200000000000045-10.999999999999943 17.600000000000023-33.19999999999993 0-43.599999999999966l-283.29999999999995-174.39999999999998c-4.800000000000011-2.8000000000000114-10.100000000000023-4.100000000000023-15.300000000000011-4.100000000000023v0z"/></svg>