<svg height="1000" width="1000.0" xmlns="http://www.w3.org/2000/svg"><path d="m877.9 440.3c-20.5-26.900000000000034-51.69999999999993-40.30000000000001-85.5-40.30000000000001h-196c-6.5 0-12.199999999999932-5-9-11.399999999999977 0 0 3-7.100000000000023 7.7000000000000455-15.5 13.199999999999932-23.5 31.199999999999932-56.700000000000045 39.5-99.90000000000003l1.1999999999999318-6.599999999999966c8-40.80000000000001 26.600000000000023-136.8-66-162.90000000000003-8-2.299999999999983-16.09999999999991-3.5999999999999943-24-3.5999999999999943-59.19999999999993 0-82.39999999999998 54.70000000000002-101.09999999999997 98.70000000000002-5.5 12.899999999999977-11.199999999999989 26.299999999999983-17.69999999999999 39.39999999999998-43.69999999999999 87.30000000000001-80.19999999999999 89.5-127 113.10000000000002-45.900000000000006 23.5-75 45.19999999999999-75 98.69999999999999v350c0 59.10000000000002 40.89999999999998 100 100 100h400c48.200000000000045 0 92.5-32.5 105.20000000000005-79l65.89999999999998-288.1c8.899999999999977-32.599999999999966 2.2999999999999545-65.69999999999999-18.200000000000045-92.59999999999997z m-33.5 77.69999999999999l-65.79999999999995 288.9c-6.399999999999977 23.399999999999977-29.300000000000068 43.10000000000002-53.60000000000002 43.10000000000002h-400c-29.600000000000023 0-50-20.399999999999977-50-50v-350c0-31.19999999999999 41.80000000000001-44.5 50-48.69999999999999 55.80000000000001-29.5 104.19999999999999-47.69999999999999 149.89999999999998-139.2 27.600000000000023-55.20000000000002 38.700000000000045-108.50000000000003 70.89999999999998-108.50000000000003 2.900000000000091 0 6.100000000000023 0.4000000000000057 9.5 1.4000000000000057 47.40000000000009 13.400000000000006 35.200000000000045 63.19999999999999 26.700000000000045 107.10000000000002-12.5 65.29999999999995-53.5 100.69999999999999-53.5 134.2 0 30.899999999999977 19.200000000000045 53.69999999999999 53.5 53.69999999999999h210.39999999999998c35.60000000000002 0 61.39999999999998 33.69999999999999 52.10000000000002 68z m-694.4 307c0 13.799999999999955-11.199999999999989 25-25 25v0c-13.799999999999997 0-25-11.200000000000045-25-25v-375c0-13.800000000000011 11.200000000000003-25 25-25v0c13.800000000000011 0 25 11.199999999999989 25 25v375z"/></svg>