<svg height="1000" width="1000.0" xmlns="http://www.w3.org/2000/svg"><path d="m800 300h-100.79999999999995c28.799999999999955-25 59.799999999999955-57.30000000000001 73.79999999999995-90.19999999999999 16.899999999999977-39.70000000000002 6.100000000000023-86.50000000000001-26.399999999999977-113.9-40.10000000000002-33.800000000000004-100-30.700000000000003-160.20000000000005 8.099999999999994-110.09999999999997 71.19999999999999-111.39999999999998 238.89999999999998-111.39999999999998 246v125h-300c-13.800000000000011 0-25-11.199999999999989-25-25v-50c0-27.5 22.5-50 50-50h175c3 0 5.899999999999977-0.6999999999999886 8.699999999999989-1.6999999999999886 0.9000000000000341-0.4000000000000341 1.6999999999999886-0.8000000000000114 2.5-1.1999999999999886 1.8000000000000114-1 3.5-2.1000000000000227 5.100000000000023-3.400000000000034 0.5999999999999659-0.6999999999999886 1.3999999999999773-1.1999999999999886 2-1.8999999999999773 1.599999999999966-1.6999999999999886 2.8999999999999773-3.6999999999999886 4-5.800000000000011 0.19999999999998863-0.6000000000000227 0.5999999999999659-1 0.8000000000000114-1.6000000000000227 0.0999999999999659-0.0999999999999659 0.19999999999998863-0.0999999999999659 0.19999999999998863-0.2999999999999545 0.5999999999999659-1.5 0.5-3 0.8000000000000114-4.600000000000023s1-2.8999999999999773 1-4.5c0-0.10000000000002274-0.10000000000002274-0.19999999999998863-0.10000000000002274-0.30000000000001137 0-2.3000000000000114-0.6999999999999886-4.399999999999977-1.3000000000000114-6.399999999999977-0.30000000000001137-1.1000000000000227-0.30000000000001137-2.1999999999999886-0.6999999999999886-3.1999999999999886-0.6000000000000227-1.3000000000000114-1.6000000000000227-2.3000000000000114-2.3000000000000114-3.400000000000034-1-1.599999999999966-1.8000000000000114-3.1999999999999886-3.099999999999966-4.5-0.7000000000000455-0.6999999999999886-1.6000000000000227-1-2.3000000000000114-1.599999999999966-1.900000000000034-1.400000000000034-3.6999999999999886-2.900000000000034-5.900000000000034-3.8000000000000114-0.0999999999999659 0-0.0999999999999659-0.10000000000002274-0.19999999999998863-0.10000000000002274-43.599999999999966-17.19999999999999-93.09999999999997-56.5-112.69999999999999-89.39999999999998-3.6999999999999886-6.5-7.399999999999977-23.600000000000023-3.1000000000000227-40 3.1000000000000227-11.5 9.5-20.100000000000023 19.100000000000023-25.700000000000017 15.399999999999977-8.799999999999983 29.899999999999977-11 44.60000000000002-6.5 34.299999999999955 10.400000000000006 62.5 54.70000000000002 70.39999999999998 70.9 6.100000000000023 12.300000000000011 21 17.599999999999994 33.5 11.400000000000006 12.399999999999977-6 17.5-21 11.5-33.400000000000006-1.6000000000000227-3.1999999999999886-38.5-77.7-100.69999999999999-96.7-28.19999999999999-8.700000000000003-56.60000000000002-5-84.30000000000001 11-21.30000000000001 12.299999999999997-36 31.799999999999997-42.400000000000006 56.3-8.099999999999994 30.5-1.5999999999999943 61.20000000000002 8.400000000000006 78.1 12.400000000000006 21 32.80000000000001 42.900000000000034 56.60000000000002 62.30000000000001h-85.10000000000002c-55 0-100 45-100 100v75c0 22.19999999999999 13.5 40.799999999999955 33.69999999999999 47.39999999999998 10.200000000000017 3.300000000000068 16.30000000000001 13.800000000000068 16.30000000000001 24.5v253c0 55 45 100 100 100h500c55 0 100-45 100-100v-252.89999999999998c0-10.700000000000045 6-21.200000000000045 16.200000000000045-24.700000000000045 20.09999999999991-7 33.799999999999955-26.499999999999943 33.799999999999955-47.39999999999998v-75c0-55-45-100-100-100z m-550 550c-27.5 0-50-22.5-50-50v-250c0-13.799999999999955 11.199999999999989-25 25-25h250v325h-225z m550-50c0 27.5-22.5 50-50 50h-225v-325h250c13.799999999999955 0 25 11.200000000000045 25 25v250z m50-350c0 13.800000000000011-11.200000000000045 25-25 25h-300v-125c0-1.5 1-147.4 88.60000000000002-204 40.69999999999993-26.299999999999997 78.39999999999998-30.700000000000003 100.79999999999995-11.900000000000006 15.800000000000068 13.300000000000011 21 36.400000000000006 12.600000000000023 56.099999999999994-18.600000000000023 43.70000000000002-89.79999999999995 97-115.70000000000005 113.90000000000003-0.6999999999999318 0.39999999999997726-1 1.1999999999999886-1.6999999999999318 1.6999999999999886-1.3999999999999773 1.099999999999966-2.6000000000000227 2.3000000000000114-3.7000000000000455 3.599999999999966-1 1.2000000000000455-1.7999999999999545 2.400000000000034-2.5 3.8000000000000114-0.7999999999999545 1.400000000000034-1.3999999999999773 2.8000000000000114-1.8999999999999773 4.400000000000034s-0.7999999999999545 3.1999999999999886-1 4.7999999999999545c-0.10000000000002274 0.9000000000000341-0.5 1.7000000000000455-0.5 2.6000000000000227 0 0.8000000000000114 0.39999999999997726 1.3999999999999773 0.39999999999997726 2.1999999999999886 0.20000000000004547 1.6000000000000227 0.5 3.1000000000000227 1 4.800000000000011 0.5 1.6999999999999886 1.1000000000000227 3.1999999999999886 1.8999999999999773 4.699999999999989 0.3000000000000682 0.6000000000000227 0.40000000000009095 1.3000000000000114 0.8000000000000682 1.900000000000034 0.39999999999997726 0.6999999999999886 1.1999999999999318 1.099999999999966 1.6999999999999318 1.7999999999999545 1.1000000000000227 1.400000000000034 2.300000000000068 2.5 3.6000000000000227 3.7000000000000455 1.2000000000000455 0.8999999999999773 2.3999999999999773 1.7999999999999545 3.800000000000068 2.5 1.3999999999999773 0.7999999999999545 2.8999999999999773 1.3999999999999773 4.399999999999977 1.8999999999999773s3.199999999999932 0.8000000000000114 4.7999999999999545 1c0.8999999999999773 0 1.7000000000000455 0.5 2.6000000000000227 0.5h175c27.5 0 50 22.5 50 50v50z"/></svg>