<svg height="1000" width="1000.0" xmlns="http://www.w3.org/2000/svg"><path d="m850 750v-550c0-27.599999999999994-22.399999999999977-50-50-50h-600c-27.599999999999994 0-50 22.400000000000006-50 50v600c0 27.600000000000023 22.400000000000006 50 50 50h675c13.799999999999955 0 25 11.200000000000045 25 25s-11.200000000000045 25-25 25h-675c-55.19999999999999 0-100-44.799999999999955-100-100v-600c0-55.19999999999999 44.80000000000001-100 100-100h600c55.200000000000045 0 100 44.80000000000001 100 100v550c0 13.799999999999955-11.200000000000045 25-25 25s-25-11.200000000000045-25-25z m-575-250v200c0 13.799999999999955 11.300000000000011 25 25 25s25-11.200000000000045 25-25v-200c0-13.699999999999989-11.199999999999989-25-25-25s-25 11.300000000000011-25 25z m200-200v400c0 13.799999999999955 11.300000000000011 25 25 25s25-11.200000000000045 25-25v-400c0-13.699999999999989-11.200000000000045-25-25-25s-25 11.300000000000011-25 25z m200 125v275c0 13.799999999999955 11.299999999999955 25 25 25s25-11.200000000000045 25-25v-275c0-13.699999999999989-11.200000000000045-25-25-25s-25 11.300000000000011-25 25z"/></svg>