<svg height="1000" width="1000.0" xmlns="http://www.w3.org/2000/svg"><path d="m500 725c124.10000000000002 0 225-100.89999999999998 225-225v-200c0-124.1-100.89999999999998-225-225-225s-225 100.9-225 225v200c0 124.10000000000002 100.89999999999998 225 225 225z m-175-425c0-96.5 78.5-175 175-175s175 78.5 175 175v200c0 96.5-78.5 175-175 175s-175-78.5-175-175v-200z m200 548.7v51.299999999999955c0 13.799999999999955-11.200000000000045 25-25 25s-25-11.200000000000045-25-25v-51.299999999999955c-181.3-12.900000000000091-325-164.20000000000005-325-348.70000000000005 0-13.800000000000011 11.199999999999989-25 25-25s25 11.199999999999989 25 25c0 165.39999999999998 134.60000000000002 300 300 300s300-134.60000000000002 300-300c0-13.800000000000011 11.200000000000045-25 25-25s25 11.199999999999989 25 25c0 184.60000000000002-143.70000000000005 335.79999999999995-325 348.70000000000005z"/></svg>