<svg height="1000" width="1000.0" xmlns="http://www.w3.org/2000/svg"><path d="m358.7 345.6c-5.699999999999989 12.099999999999966-20.5 17.399999999999977-33.19999999999999 11.899999999999977-12.5-5.600000000000023-18-20-12.300000000000011-32.10000000000002l36.80000000000001-77.49999999999997c10.100000000000023-21.200000000000017 23.600000000000023-38.099999999999994 31.69999999999999-51.099999999999994 5.699999999999989-9-3.8000000000000114-20.200000000000017-13.899999999999977-16.200000000000017-132.4 52.30000000000001-217.8 175.29999999999998-217.8 313.70000000000005 0 138.69999999999993 85.80000000000001 261.9999999999999 218.7 314.0999999999999 21.100000000000023 8.200000000000045 43.19999999999999 14.5 65.60000000000002 18.700000000000045 13.599999999999966 2.5 22.5 15.100000000000023 19.899999999999977 28.199999999999932-2.3000000000000114 11.600000000000023-12.800000000000011 19.700000000000045-24.5 19.700000000000045-1.599999999999966 0-3.1999999999999886-0.10000000000002274-4.699999999999989-0.39999999999997726-25.69999999999999-4.7000000000000455-50.89999999999998-11.899999999999977-75.10000000000002-21.300000000000068-177.09999999999997-69.39999999999998-281.09999999999997-249.5-241.59999999999997-439.29999999999995 28-134.2 127.6-241.4 261.4-285.8 0.6999999999999886-0.19999999999998863 1.3000000000000114-0.3999999999999915 2-0.6999999999999886 16.400000000000034-5.299999999999997 35.19999999999999-2.5 48.30000000000001 8.5 16.69999999999999 14 21.399999999999977 35.5 12.699999999999989 54.5l-8.5 18.30000000000001-65.5 136.8z m215.7 445.5l-8.399999999999977 18.299999999999955c-8.799999999999955 19-4 40.60000000000002 12.700000000000045 54.5 13.099999999999909 11 31.899999999999977 13.899999999999977 48.299999999999955 8.5 0.6000000000000227-0.1999999999999318 1.2999999999999545-0.5 1.8999999999999773-0.6999999999999318 133.80000000000007-44.40000000000009 233.39999999999998-151.5 261.4-285.80000000000007 39.5-189.7-64.5-369.9-241.5999999999999-439.2-24.200000000000045-9.5-49.40000000000009-16.69999999999999-75.10000000000002-21.39999999999999-1.5-0.29999999999999716-3.1000000000000227-0.3999999999999915-4.7000000000000455-0.3999999999999915-11.699999999999932 0-22.199999999999932 8-24.5 19.69999999999999-2.6000000000000227 13.099999999999994 6.300000000000068 25.80000000000001 19.899999999999977 28.200000000000017 22.5 4.199999999999989 44.5 10.5 65.60000000000002 18.69999999999999 132.89999999999998 52.099999999999994 218.80000000000007 175.39999999999998 218.80000000000007 314.1 0 138.39999999999998-85.5 261.5-217.80000000000007 313.69999999999993-10.199999999999932 4-19.699999999999932-7.199999999999932-14-16.199999999999932 8.200000000000045-13 21.700000000000045-29.899999999999977 31.700000000000045-51.10000000000002l36.799999999999955-77.60000000000002c5.800000000000068-12.100000000000023 0.3000000000000682-26.5-12.299999999999955-32-12.700000000000045-5.600000000000023-27.399999999999977-0.1999999999999318-33.10000000000002 11.899999999999977l-65.60000000000002 136.80000000000007z"/></svg>