<svg height="1000" width="1000.0" xmlns="http://www.w3.org/2000/svg"><path d="m83.3 500c0 229.20000000000005 187.5 416.70000000000005 416.7 416.70000000000005 229.20000000000005 0 416.70000000000005-187.5 416.70000000000005-416.70000000000005 0-229.2-187.5-416.7-416.70000000000005-416.7-229.2-1.4210854715202004e-14-416.7 187.5-416.7 416.7z m-83.3 0c0-275 225-500 500-500 275 0 500 225 500 500 0 275-225 500-500 500-275 0-500-225-500-500z m391.7 158.29999999999995c-16.69999999999999 16.700000000000045-16.69999999999999 41.700000000000045 0 58.40000000000009s41.60000000000002 16.59999999999991 58.30000000000001 0l191.70000000000005-191.70000000000005c16.59999999999991-16.69999999999999 16.59999999999991-41.69999999999999 0-58.30000000000001l-191.70000000000005-191.7c-16.69999999999999-16.69999999999999-41.69999999999999-16.69999999999999-58.30000000000001 0-16.69999999999999 20.80000000000001-16.69999999999999 45.80000000000001 0 62.5l162.50000000000006 162.5-162.50000000000006 158.29999999999995z"/></svg>