<svg height="1000" width="1000.0" xmlns="http://www.w3.org/2000/svg"><path d="m800 698.8c0 12.5-12.5 25-25 25h-250v150c0 12.5-12.5 25-25 25s-25-12.5-25-25v-150h-250c-12.5 0-25-12.5-25-25s12.5-25 25-25h250v-150h-250c-12.5 0-25-12.499999999999943-25-24.999999999999943s12.5-25 25-25h550c12.5 0 25 12.5 25 25s-12.5 24.999999999999943-25 24.999999999999943h-250v150h250c12.5 0 25 12.5 25 25z m-232.5-329.99999999999994l200-225c10-10 10-25.000000000000014 0-35.000000000000014s-25-10-35 0l-200 227.5c-17.5 17.5-47.5 17.5-65 0l-202.5-230c-10-10.000000000000014-25-10.000000000000014-35-1.4210854715202004e-14s-10 25.000000000000014 0 35.000000000000014l202.5 227.5c17.5 17.5 42.5 30 67.5 30s50-12.5 67.5-30z"/></svg>