<svg height="1000" width="1000.0" xmlns="http://www.w3.org/2000/svg"><path d="m500 575c-13.800000000000011 0-25-11.200000000000045-25-25v-300c0-13.800000000000011 11.199999999999989-25 25-25s25 11.199999999999989 25 25v300c0 13.799999999999955-11.200000000000045 25-25 25z m-25 125c0 13.799999999999955 11.300000000000011 25 25 25s25-11.200000000000045 25-25v-50c0-13.700000000000045-11.200000000000045-25-25-25s-25 11.299999999999955-25 25v50z m24.899999999999977 224.60000000000002l-7.399999999999977-2.3999999999999773c-400.6-126.60000000000002-393.6-520.1-391.3-649.4000000000001 0.20000000000001705-8.399999999999977 0.30000000000001137-15.699999999999932 0.30000000000001137-21.799999999999955 0-27.30000000000001 15.299999999999997-57 36.30000000000001-70.69999999999999 244.2-137.9 480.40000000000003-137.9 723.0999999999999-0.9000000000000057l3.5000000000001137 2.4000000000000057c8.399999999999977 6.799999999999983 34.200000000000045 27.69999999999999 34.200000000000045 69.19999999999999 0 7 0.1999999999999318 15.699999999999989 0.39999999999997726 25.600000000000023 1.2000000000000455 44.799999999999955 3 119.69999999999999-10.700000000000045 202.59999999999997-2.199999999999932 13.600000000000023-15 23-28.59999999999991 20.600000000000023-13.700000000000045-2.3000000000000114-22.90000000000009-15.100000000000023-20.600000000000023-28.69999999999999 12.799999999999955-78.30000000000001 11.100000000000023-147.40000000000003 10-193.20000000000005-0.3000000000000682-10.5-0.5-19.5-0.5-26.799999999999983 0-13.900000000000006-5.600000000000023-21.900000000000006-14.100000000000023-29.19999999999999-225.70000000000005-126.60000000000001-445.1-126.2-670.8 1.0999999999999943-4.000000000000057 2.6999999999999886-12.200000000000045 16.400000000000006-12.200000000000045 28 0 6.399999999999977-0.09999999999999432 14-0.30000000000001137 22.69999999999999-2.299999999999983 131.90000000000003-8.599999999999994 480.7 348.90000000000003 598.5 150.79999999999995-48.80000000000007 254.10000000000002-143.5 307.1-281.6 4.899999999999977-12.899999999999977 19.399999999999977-19.300000000000068 32.299999999999955-14.300000000000068s19.299999999999955 19.40000000000009 14.399999999999977 32.30000000000007c-59.69999999999993 155.29999999999995-176.19999999999993 260.9-346.5 313.69999999999993l-7.399999999999977 2.300000000000068z"/></svg>