<svg height="1000" width="1000.0" xmlns="http://www.w3.org/2000/svg"><path d="m275 875c0 13.799999999999955-11.199999999999989 25-25 25h-50c-55.19999999999999 0-100-44.799999999999955-100-100v-50c0-13.799999999999955 11.200000000000003-25 25-25s25 11.200000000000045 25 25v50c0 27.600000000000023 22.400000000000006 50 50 50h50c13.800000000000011 0 25 11.200000000000045 25 25z m600-150c-13.799999999999955 0-25 11.200000000000045-25 25v50c0 27.600000000000023-22.399999999999977 50-50 50h-50c-13.799999999999955 0-25 11.200000000000045-25 25s11.200000000000045 25 25 25h50c55.200000000000045 0 100-44.799999999999955 100-100v-50c0-13.799999999999955-11.200000000000045-25-25-25z m-75-625h-50c-13.799999999999955 0-25 11.200000000000003-25 25s11.200000000000045 25 25 25h50c27.600000000000023 0 50 22.400000000000006 50 50v50c0 13.800000000000011 11.200000000000045 25 25 25s25-11.199999999999989 25-25v-50c0-55.19999999999999-44.799999999999955-100-100-100z m-675 175c13.800000000000011 0 25-11.199999999999989 25-25v-50c0-27.599999999999994 22.400000000000006-50 50-50h50c13.800000000000011 0 25-11.199999999999989 25-25s-11.199999999999989-25-25-25h-50c-55.19999999999999 0-100 44.80000000000001-100 100v50c0 13.800000000000011 11.200000000000003 25 25 25z m750 200h-750c-13.700000000000003 0-25 11.300000000000011-25 25s11.299999999999997 25 25 25h750c13.799999999999955 0 25-11.200000000000045 25-25s-11.200000000000045-25-25-25z"/></svg>