<svg height="1000" width="1000.0" xmlns="http://www.w3.org/2000/svg"><path d="m803.1 150h-128.10000000000002v-25c0-13.700000000000003-11.200000000000045-25-25-25s-25 11.299999999999997-25 25v100c0 13.800000000000011 11.299999999999955 25 25 25s25-11.199999999999989 25-25v-25h121.89999999999998c29.200000000000045 0 53.10000000000002 23.900000000000006 53.10000000000002 53.099999999999994v71.9h-700v-78.1c0-25.900000000000006 21-46.900000000000006 46.900000000000006-46.900000000000006h128.1v25c0 13.800000000000011 11.300000000000011 25 25 25s25-11.199999999999989 25-25v-100c0-13.700000000000003-11.199999999999989-25-25-25s-25 11.299999999999997-25 25v25h-128.1c-53.5 0-96.9 43.400000000000006-96.9 96.9v550c0 56.700000000000045 46.400000000000006 103.10000000000002 103.1 103.10000000000002h593.8c56.700000000000045 0 103.10000000000002-46.39999999999998 103.10000000000002-103.10000000000002v-550c0-53.49999999999997-43.39999999999998-96.89999999999998-96.89999999999998-96.89999999999998z m46.89999999999998 646.9c0 27.5-25.600000000000023 53.10000000000002-53.10000000000002 53.10000000000002h-600c-27.599999999999966 0-46.89999999999998-25.600000000000023-46.89999999999998-53.10000000000002v-421.9h700v421.9z m-400-621.9c0-13.699999999999989 11.300000000000011-25 25-25h50c13.799999999999955 0 25 11.300000000000011 25 25s-11.200000000000045 25-25 25h-50c-13.699999999999989 0-25-11.199999999999989-25-25z m-114.10000000000002 456.79999999999995c-9.799999999999955-9.799999999999955-9.799999999999955-25.59999999999991 0-35.39999999999998s25.600000000000023-9.799999999999955 35.400000000000034 0l117.09999999999997 117.10000000000002 162-252c7.399999999999977-11.600000000000023 22.899999999999977-15.100000000000023 34.5-7.5 11.700000000000045 7.399999999999977 15 22.899999999999977 7.600000000000023 34.60000000000002l-178.79999999999995 278.1c-4.100000000000023 6.2999999999999545-10.900000000000034 10.5-18.400000000000034 11.299999999999955-0.9000000000000341 0.10000000000002274-1.6999999999999886 0.20000000000004547-2.6000000000000227 0.20000000000004547-6.599999999999966 0-13-2.6000000000000227-17.69999999999999-7.400000000000091l-139.10000000000002-139z"/></svg>