<svg height="1000" width="1000.0" xmlns="http://www.w3.org/2000/svg"><path d="m850 800c0 68.89999999999998-56.10000000000002 125-125 125h-450c-56.900000000000006 0-106.6-38.5-121-93.60000000000002-2.6999999999999886-10.199999999999932-4-20.799999999999955-4-31.399999999999977 0-13.799999999999955 11.199999999999989-25 25-25s25 11.200000000000045 25 25c0 6.2999999999999545 0.8000000000000114 12.700000000000045 2.4000000000000057 18.799999999999955 8.599999999999994 33.10000000000002 38.5 56.200000000000045 72.6 56.200000000000045h450c41.299999999999955 0 75-33.700000000000045 75-75 0-13.799999999999955 11.200000000000045-25 25-25s25 11.200000000000045 25 25z m-175-450h-350c-13.699999999999989 0-25 11.300000000000011-25 25s11.300000000000011 25 25 25h250v25c0 13.800000000000011 11.299999999999955 25 25 25s25-11.199999999999989 25-25v-25h50c13.799999999999955 0 25-11.199999999999989 25-25s-11.200000000000045-25-25-25z m225-50v300c0 68.89999999999998-56.10000000000002 125-125 125h-100v25c0 13.799999999999955-11.200000000000045 25-25 25s-25-11.200000000000045-25-25v-25h-250v25c0 13.799999999999955-11.199999999999989 25-25 25s-25-11.200000000000045-25-25v-25h-100c-68.9 0-125-56.10000000000002-125-125v-300c0-68.9 56.099999999999994-125 125-125h128c14-57 74.60000000000002-100 147-100s133 43 147 100h128c68.89999999999998 0 125 56.099999999999994 125 125z m-493.8-125h187.7c-13.799999999999955-29-50.5-50-93.89999999999998-50s-80.10000000000002 21-93.80000000000001 50z m443.8 125c0-41.30000000000001-33.700000000000045-75-75-75h-550c-41.30000000000001 0-75 33.69999999999999-75 75v300c0 41.299999999999955 33.69999999999999 75 75 75h100v-25c0-13.700000000000045 11.300000000000011-25 25-25s25 11.299999999999955 25 25v25h250v-25c0-13.700000000000045 11.299999999999955-25 25-25s25 11.299999999999955 25 25v25h100c41.299999999999955 0 75-33.700000000000045 75-75v-300z"/></svg>