<svg height="1000" width="1000.0" xmlns="http://www.w3.org/2000/svg"><path d="m475 150c165.39999999999998 0 300 134.60000000000002 300 300s-134.60000000000002 300-300 300-300-134.60000000000002-300-300 134.60000000000002-300 300-300z m0-50c-193.3 0-350 156.7-350 350s156.7 350 350 350 350-156.70000000000005 350-350-156.70000000000005-350-350-350v0z m312.4 635c-6.2999999999999545 0-12.5 2.5-17.5 7.5-10 10-10 25 0 35l115 115c5 5 11.200000000000045 7.5 17.5 7.5s12.5-2.5 17.5-7.5c10-10 10-25 0-35l-115-115c-5-5-11.299999999999955-7.5-17.5-7.5v0z"/></svg>