<svg height="1000" width="1000.0" xmlns="http://www.w3.org/2000/svg"><path d="m887.1 212.3l-151.10000000000002 625.9000000000001c-6.899999999999977 30.699999999999932-32.700000000000045 52.09999999999991-62.200000000000045 59.299999999999955-6.899999999999977 1.7000000000000455-13.799999999999955 2.5-20.699999999999932 2.5-22.5 0-44.200000000000045-8.799999999999955-60.700000000000045-25.299999999999955l-84.89999999999998-85c-9.800000000000011-9.800000000000068-9.800000000000011-25.600000000000023 0-35.40000000000009s25.5-9.699999999999932 35.299999999999955 0l85 85c9.100000000000023 9.200000000000045 21.5 12.700000000000045 34.200000000000045 9.600000000000023 12.5-3.1000000000000227 22.899999999999977-11.600000000000023 25.899999999999977-24.199999999999932l151.10000000000002-625.9000000000001c4.7000000000000455-14.69999999999996 1.2999999999999545-28.39999999999995-8.399999999999977-38.099999999999966s-23.399999999999977-13-36.60000000000002-8.899999999999977l-620.3 152c-10.700000000000045 3.5-19.500000000000057 13-22.60000000000005 25.5s0.4000000000000057 25 9.599999999999994 34.19999999999999l148.3 151.20000000000005c14.600000000000023 14.799999999999955 18.5 37.09999999999991 9.699999999999989 56.09999999999991l-71 152.70000000000005c-2.8999999999999773 6.2999999999999545 3.200000000000017 12.899999999999977 9.699999999999989 10.600000000000023l165.8-59.30000000000007c13-4.599999999999909 27.30000000000001 2.2000000000000455 31.900000000000034 15.100000000000023 4.699999999999989 13.100000000000023-2.1000000000000227 27.399999999999977-15.100000000000023 32l-189.4 67.70000000000005c-18.299999999999983 4.899999999999977-35.900000000000006-0.10000000000002274-48.19999999999999-12.300000000000068-12.300000000000011-12.399999999999977-17.30000000000001-30.09999999999991-12.900000000000006-46.299999999999955l1.4000000000000057-4 75.20000000000002-161.70000000000005c4.399999999999977-9.399999999999977 2.3999999999999773-20.59999999999991-4.800000000000011-28l-136.10000000000002-138.69999999999993c-21.39999999999999-21.30000000000001-29.89999999999999-51.700000000000045-22.599999999999994-81.20000000000005s28.700000000000017-52.599999999999966 57.70000000000002-61.69999999999999l620.3-152.1c29.200000000000045-9.299999999999997 62.500000000000114-1.1999999999999886 85.40000000000009 21.700000000000003s30.899999999999977 56.2 21.200000000000045 87.00000000000001z m-126.70000000000005 23.599999999999994c-9.5-9.900000000000006-25.399999999999977-10.300000000000011-35.299999999999955-0.8000000000000114l-307.1 292.79999999999995c-9.899999999999977 9.5-10.300000000000011 25.399999999999977-0.8000000000000114 35.39999999999998s25.400000000000034 10.300000000000068 35.30000000000001 0.8000000000000682l307.1-292.8c10-9.5 10.299999999999955-25.400000000000006 0.7999999999999545-35.400000000000006z"/></svg>