<svg height="1000" width="1000.0" xmlns="http://www.w3.org/2000/svg"><path d="m772.6 650c-37 0-70 16.600000000000023-93 42.299999999999955l-197.70000000000005-114.5c10.100000000000023-24 15.700000000000045-50.19999999999993 15.700000000000045-77.79999999999995s-5.600000000000023-53.89999999999998-15.700000000000045-77.80000000000001l170.89999999999998-99c25.200000000000045 31.5 64 51.69999999999999 107.30000000000007 51.69999999999999 75.79999999999995 0 137.5-61.599999999999966 137.5-137.49999999999997s-61.700000000000045-137.4-137.5-137.4-137.5 61.69999999999999-137.5 137.5c0 14.5 2.2999999999999545 28.5 6.5 41.69999999999999l-172.5 99.90000000000003c-36.60000000000002-47.900000000000034-94.10000000000002-79.10000000000002-159-79.10000000000002-110.30000000000001 0-200.00000000000003 89.69999999999999-200.00000000000003 200s89.70000000000002 200 200.00000000000003 200c64.79999999999995 0 122.39999999999998-31.200000000000045 159-79.10000000000002l198 114.70000000000005c-4.2000000000000455 12.399999999999977-6.899999999999977 25.5-6.899999999999977 39.39999999999998 0 68.89999999999998 56 125 125 125s125-56.10000000000002 125-125-56.10000000000002-125-125.10000000000002-125z m-12.5-500c48.299999999999955 0 87.5 39.30000000000001 87.5 87.5s-39.200000000000045 87.5-87.5 87.5-87.5-39.19999999999999-87.5-87.5 39.299999999999955-87.5 87.5-87.5z m-462.5 500c-82.70000000000002 0-150.00000000000003-67.29999999999995-150.00000000000003-150s67.30000000000001-150 150.00000000000003-150 150 67.30000000000001 150 150-67.30000000000001 150-150 150z m475 200c-41.30000000000007 0-75-33.700000000000045-75-75s33.69999999999993-75 75-75 75 33.700000000000045 75 75-33.60000000000002 75-75 75z"/></svg>