<svg height="1000" width="1000.0" xmlns="http://www.w3.org/2000/svg"><path d="m850 625v175c0 55.200000000000045-44.799999999999955 100-100 100h-500c-55.19999999999999 0-100-44.799999999999955-100-100v-175c0-13.799999999999955 11.199999999999989-25 25-25s25 11.200000000000045 25 25v175c0 27.600000000000023 22.400000000000006 50 50 50h500c27.600000000000023 0 50-22.399999999999977 50-50v-175c0-13.799999999999955 11.200000000000045-25 25-25s25 11.200000000000045 25 25z m5.899999999999977-107.70000000000005c-47.60000000000002 38.10000000000002-114.10000000000002 38.10000000000002-161.79999999999995 0l-1.3000000000000682-1c-27-20.799999999999955-64-22.099999999999966-92.5-3.099999999999909l-22.799999999999955 15.199999999999932c-22 14.600000000000023-47 21.899999999999977-71.89999999999998 21.899999999999977-28.700000000000045 0-57.200000000000045-9.599999999999909-80.90000000000003-28.5l-5.599999999999966-4.5c-27.200000000000045-21.799999999999955-64.90000000000003-23.499999999999943-93.80000000000001-4.099999999999909l-22.80000000000001 15.199999999999932c-47.19999999999999 31.399999999999977-108.6 28.700000000000045-152.8-6.699999999999932l-5.599999999999994-4.400000000000091c-44.3-35.49999999999994-60.3-94.79999999999995-40-147.69999999999993l85.20000000000002-221.60000000000002c11.099999999999994-28.700000000000003 39.19999999999999-48 70-48h481.40000000000003c30.799999999999955 0 58.89999999999998 19.299999999999997 70 48.099999999999994l85.19999999999993 221.6c20.300000000000068 52.900000000000034 4.300000000000068 112.19999999999999-40 147.59999999999997z m-6.699999999999932-129.69999999999993l-85.20000000000005-221.60000000000002c-3.7000000000000455-9.599999999999994-13.100000000000023-16-23.299999999999955-16h-481.40000000000003c-10.200000000000017 0-19.600000000000023 6.400000000000006-23.30000000000001 16l-85.19999999999999 221.60000000000002c-12.5 32.5-2.6000000000000227 68.89999999999998 24.5 90.69999999999999l5.599999999999994 4.399999999999977c27.19999999999999 21.80000000000001 64.9 23.400000000000034 93.79999999999998 4.100000000000023l22.80000000000001-15.199999999999989c22-14.600000000000023 47-21.80000000000001 71.89999999999998-21.80000000000001 28.700000000000045 0 57.200000000000045 9.5 80.90000000000003 28.5l5.599999999999966 4.5c27.200000000000045 21.69999999999999 64.89999999999998 23.399999999999977 93.80000000000007 4.099999999999966l22.799999999999955-15.199999999999989c47.10000000000002-31.399999999999977 108.60000000000002-28.80000000000001 152.79999999999995 6.600000000000023l1.3000000000000682 1c29.100000000000023 22.399999999999977 69.19999999999993 22.099999999999966 98.10000000000002-1 27.09999999999991-21.69999999999999 37-58.10000000000002 24.5-90.60000000000002z m-124.20000000000005 387.4c13.799999999999955 0 25-11.200000000000045 25-25s-11.200000000000045-25-25-25h-450c-13.699999999999989 0-25 11.299999999999955-25 25s11.300000000000011 25 25 25h450z"/></svg>