<svg height="1000" width="1000.0" xmlns="http://www.w3.org/2000/svg"><path d="m900 725c0 13.799999999999955-11.200000000000045 25-25 25h-575c-55.19999999999999 0-100-44.799999999999955-100-100v-456.2c0-36-35.69999999999999-68.80000000000001-75-68.80000000000001-13.799999999999997 0-25-11.200000000000003-25-25s11.200000000000003-25 25-25c66.6 0 125 55.5 125 118.80000000000001v381.2h500c16.200000000000045 0 34.89999999999998-6.7999999999999545 51.200000000000045-57.700000000000045l48.69999999999993-195.09999999999997c-1.3999999999999773-26.30000000000001-23.299999999999955-47.19999999999999-49.89999999999998-47.19999999999999h-450c-13.800000000000011 0-25-11.199999999999989-25-25s11.199999999999989-25 25-25h450c55.10000000000002 0 100 44.80000000000001 100 100 0 2.1000000000000227-0.2999999999999545 4.100000000000023-0.7999999999999545 6.100000000000023l-50 200c-7.800000000000068 24.399999999999977-30 93.89999999999998-99.20000000000005 93.89999999999998h-500v25c0 27.600000000000023 22.399999999999977 50 50 50h575c13.799999999999955 0 25 11.200000000000045 25 25z m-650 75c-27.599999999999994 0-50 22.399999999999977-50 50s22.400000000000006 50 50 50 50-22.399999999999977 50-50c0-27.600000000000023-22.399999999999977-50-50-50z m575 0c-27.600000000000023 0-50 22.399999999999977-50 50s22.399999999999977 50 50 50 50-22.399999999999977 50-50c0-27.600000000000023-22.399999999999977-50-50-50z"/></svg>