<svg height="1000" width="1000.0" xmlns="http://www.w3.org/2000/svg"><path d="m425 153.7v696.3c0 13.799999999999955-11.199999999999989 25-25 25s-25-11.200000000000045-25-25v-659.5c0-11.099999999999994-13.399999999999977-16.69999999999999-21.30000000000001-8.800000000000011l-157.39999999999998 157.3c-9.700000000000017 9.800000000000011-25.600000000000023 9.800000000000011-35.30000000000001 0s-9.699999999999989-25.600000000000023 0-35.30000000000001l178.3-184.79999999999998c31.19999999999999-32.2 85.69999999999999-10.100000000000009 85.69999999999999 34.79999999999998z m420.79999999999995 489.09999999999997c-9.699999999999932-9.799999999999955-25.59999999999991-9.799999999999955-35.299999999999955 0l-159.20000000000005 154.20000000000005c-7.899999999999977 7.7999999999999545-26.299999999999955 2.2999999999999545-26.299999999999955-8.799999999999955v-659.5c0-13.80000000000004-11.200000000000045-25.000000000000043-25-25.000000000000043s-25 11.200000000000003-25 24.999999999999986v696.3c0 44.799999999999955 59.5 66.89999999999998 90.70000000000005 34.799999999999955l177.5999999999999-181.69999999999993c9.700000000000045-9.700000000000045 12.200000000000045-25.600000000000023 2.5-35.30000000000007z"/></svg>