<svg height="1000" width="1000.0" xmlns="http://www.w3.org/2000/svg"><path d="m550 575c0 18.399999999999977-10.100000000000023 34.39999999999998-25 43.10000000000002v106.89999999999998c0 13.799999999999955-11.200000000000045 25-25 25s-25-11.200000000000045-25-25v-106.89999999999998c-14.899999999999977-8.700000000000045-25-24.600000000000023-25-43.10000000000002 0-27.600000000000023 22.399999999999977-50 50-50s50 22.399999999999977 50 50z m325-125v100c0 206.79999999999995-168.20000000000005 375-375 375s-375-168.20000000000005-375-375v-100c0-55.19999999999999 44.80000000000001-100 100-100h400.6c-0.20000000000004547-3.3999999999999773 0.1999999999999318-6.800000000000011 1.5-10.199999999999989 29.899999999999977-78.30000000000001-12.600000000000023-173.3-90.89999999999998-203.10000000000002-78.40000000000003-29.89999999999999-173.30000000000007 12.600000000000023-203.20000000000005 90.9-4.899999999999977 12.900000000000006-19.399999999999977 19.30000000000001-32.19999999999999 14.5-13-5-19.400000000000034-19.400000000000006-14.5-32.29999999999998 39.39999999999998-103.20000000000002 164.5-159.20000000000002 267.7-119.9 100.70000000000005 38.400000000000006 156.20000000000005 158.4 122.29999999999995 260.1h98.70000000000005c55.200000000000045 0 100 44.80000000000001 100 100z m-50 0c0-27.600000000000023-22.399999999999977-50-50-50h-550c-27.599999999999994 0-50 22.399999999999977-50 50v100c0 179.20000000000005 145.8 325 325 325s325-145.79999999999995 325-325v-100z"/></svg>