<svg height="1000" width="1000.0" xmlns="http://www.w3.org/2000/svg"><path d="m900 325v-125c0-55.19999999999999-44.799999999999955-100-100-100h-600c-55.19999999999999 0-100 44.80000000000001-100 100v600c0 55.200000000000045 44.80000000000001 100 100 100h600c55.200000000000045 0 100-44.799999999999955 100-100v-350c0-13.800000000000011-11.200000000000045-25-25-25s-25 11.199999999999989-25 25v350c0 27.600000000000023-22.399999999999977 50-50 50h-600c-27.599999999999994 0-50-22.399999999999977-50-50v-450h725c13.799999999999955 0 25-11.199999999999989 25-25z m-50-125v100h-254.89999999999998l93.69999999999993-150h111.20000000000005c27.600000000000023 0 50 22.400000000000006 50 50z m-313.79999999999995 100h-191.10000000000002l93.79999999999995-150h191l-93.69999999999993 150z m-386.20000000000005-100c0-27.599999999999994 22.400000000000006-50 50-50h179.89999999999998l-93.69999999999999 150h-136.2v-100z m300.7 251.3c-15.599999999999966-9.400000000000034-34.39999999999998-9.600000000000023-50.30000000000001-0.6000000000000227s-25.399999999999977 25.19999999999999-25.399999999999977 43.5v211.59999999999997c0 18.300000000000068 9.5 34.60000000000002 25.399999999999977 43.5 7.7000000000000455 4.5 16.200000000000045 6.600000000000023 24.600000000000023 6.600000000000023 8.899999999999977 0 17.69999999999999-2.3999999999999773 25.69999999999999-7.199999999999932l176.40000000000003-105.80000000000007c15.199999999999932-9.100000000000023 24.299999999999955-25.199999999999932 24.299999999999955-42.89999999999998s-9.100000000000023-33.799999999999955-24.299999999999955-42.89999999999998l-176.40000000000003-105.80000000000001z m-25.69999999999999 232.3v-167.20000000000005c0-9.799999999999955 10.699999999999989-15.799999999999955 19.100000000000023-10.799999999999955l139.29999999999995 83.60000000000002c8.200000000000045 4.899999999999977 8.200000000000045 16.699999999999932 0 21.59999999999991l-139.29999999999995 83.5c-8.400000000000034 5.100000000000023-19.100000000000023-1-19.100000000000023-10.799999999999955z"/></svg>