<svg height="1000" width="1000.0" xmlns="http://www.w3.org/2000/svg"><path d="m875 750c11.799999999999955 0 25-12.700000000000045 25-25v-525c0-55-45-100-100-100h-600c-55 0-100 45-100 100v425c0 13.799999999999955 11.200000000000003 25 25 25s25-11.200000000000045 25-25v-425c0-27.599999999999994 22.400000000000006-50 50-50h600c27.600000000000023 0 50 22.400000000000006 50 50v500c-116.10000000000002 0-650 0-650 0-54.69999999999999 0-100 43.799999999999955-100 100s44.80000000000001 100 100 100h675c16 0 25.200000000000045-12.5 25-25s-9.799999999999955-25-25-25c-25 0-50-22.399999999999977-50-50s21.200000000000045-50 50-50z m-75 100h-600c-27.599999999999994 0-50-22.399999999999977-50-50s22.400000000000006-50 50-50h600c-13.600000000000023 11.399999999999977-25 23.100000000000023-25 50s10.399999999999977 39.10000000000002 25 50z m-427.6-263.79999999999995l43-86.20000000000005h169.10000000000002l43.10000000000002 86.20000000000005c4.399999999999977 8.799999999999955 13.199999999999932 13.799999999999955 22.399999999999977 13.799999999999955 3.7999999999999545 0 7.600000000000023-0.7999999999999545 11.200000000000045-2.6000000000000227 12.299999999999955-6.199999999999932 17.299999999999955-21.199999999999932 11.099999999999909-33.60000000000002l-150-299.99999999999994c-8.399999999999977-16.900000000000006-36.19999999999993-16.900000000000006-44.69999999999993 0l-150 299.99999999999994c-6.2000000000000455 12.400000000000091-1.2000000000000455 27.40000000000009 11.199999999999989 33.60000000000002 12.5 6.2000000000000455 27.399999999999977 1.1000000000000227 33.599999999999966-11.199999999999932z m127.60000000000002-255.30000000000007l59.60000000000002 119.10000000000002h-119.10000000000002l59.5-119.10000000000002z"/></svg>