<svg height="1000" width="1000.0" xmlns="http://www.w3.org/2000/svg"><path d="m625 210.8v639.2c0 13.799999999999955-11.200000000000045 25-25 25s-25-11.200000000000045-25-25v-642.1c0-15.999999999999972-10.700000000000045-24.599999999999966-15.299999999999955-27.19999999999999-4.7000000000000455-2.6999999999999886-16.90000000000009-8.699999999999989-30.700000000000045-0.5999999999999943l-244.60000000000002 141.29999999999998c-4.099999999999966 2.400000000000034-8.699999999999989 3.6000000000000227-13.399999999999977 3.6000000000000227h-82.1c-35.099999999999994 0-63.900000000000006 28.80000000000001-63.900000000000006 63.89999999999998v227.80000000000007c0 32.19999999999993 26.099999999999994 58.299999999999955 58.30000000000001 58.299999999999955h90.19999999999999c2.1999999999999886 0 5.5 0.7999999999999545 7.5 1.7999999999999545l205.3 101.60000000000002c12.300000000000011 6.300000000000068 17.19999999999999 22 11 34.30000000000007-6.199999999999989 12.299999999999955-21.19999999999999 18.699999999999932-33.60000000000002 12.399999999999977l-200.2-98.70000000000005c-1.8000000000000114-0.8999999999999773-3.8999999999999773-1.3999999999999773-6-1.3999999999999773h-68.6c-62.7 0-113.9-51.200000000000045-113.9-113.89999999999998v-227.8c0-59.5 48.7-108.30000000000001 108.30000000000001-108.30000000000001h67.5c6 0 11.800000000000011-1.6000000000000227 16.899999999999977-4.5l236-134.9c25.099999999999966-14.699999999999989 55.099999999999966-12.099999999999994 80.30000000000001 2.200000000000017 25.899999999999977 14.699999999999989 41 43.19999999999999 41 73z m120.39999999999998 116.59999999999997c-7.899999999999977-11.199999999999989-23.600000000000023-13.899999999999977-34.799999999999955-6s-14 23.600000000000023-6.100000000000023 34.900000000000034c29.799999999999955 42.099999999999966 45.5 91.89999999999998 45.5 143.7s-15.700000000000045 101.60000000000002-45.39999999999998 143.79999999999995c-8 11.300000000000068-5.300000000000068 26.800000000000068 6 34.80000000000007 4.399999999999977 3.1000000000000227 9.399999999999977 4.600000000000023 14.399999999999977 4.600000000000023 7.7999999999999545 0 15.600000000000023-3.7000000000000455 20.399999999999977-10.600000000000023 35.700000000000045-50.700000000000045 54.60000000000002-110.39999999999998 54.60000000000002-172.60000000000002s-18.899999999999977-121.89999999999998-54.60000000000002-172.60000000000002z m80.30000000000007-124.99999999999997c-8-11.300000000000011-23.5-14-34.90000000000009-6-11.299999999999955 7.900000000000006-14 23.5-6 34.79999999999998 55.60000000000002 78.90000000000003 85 171.90000000000003 85 268.8 0 96.89999999999998-29.399999999999977 189.79999999999995-85 268.79999999999995-7.899999999999977 11.300000000000068-5.199999999999932 26.800000000000068 6 34.80000000000007 4.5 3.1000000000000227 9.5 4.5 14.400000000000091 4.5 7.899999999999977 0 15.599999999999909-3.7000000000000455 20.5-10.600000000000023 61.5-87.39999999999998 94.09999999999991-190.20000000000005 94.09999999999991-297.5 0-107.30000000000001-32.59999999999991-210.2-94.09999999999991-297.6z"/></svg>