<svg height="1000" width="1000.0" xmlns="http://www.w3.org/2000/svg"><path d="m525 575c0 13.799999999999955-11.200000000000045 25-25 25s-25-11.200000000000045-25-25v-300c0-13.800000000000011 11.199999999999989-25 25-25s25 11.199999999999989 25 25v300z m-25 75c-13.699999999999989 0-25 11.299999999999955-25 25v50c0 13.799999999999955 11.300000000000011 25 25 25s25-11.200000000000045 25-25v-50c0-13.700000000000045-11.200000000000045-25-25-25z m422.29999999999995-198.8c-21.59999999999991-192.2-175.39999999999998-348.6-367.19999999999993-372.7-278.1-34.9-511.90000000000003 199.10000000000002-476.6 477.20000000000005 23.5 185.0999999999999 170.1 335.79999999999995 354.6 364.0999999999999 122.29999999999995 18.90000000000009 236.19999999999993-15 323.79999999999995-81.69999999999993 12.200000000000045-9.300000000000068 13.600000000000023-27 2.800000000000068-37.89999999999998-9.100000000000023-9-23.200000000000045-9.400000000000091-33.40000000000009-1.7000000000000455-77.59999999999991 59.10000000000002-178.79999999999995 88.79999999999995-286.99999999999994 71.70000000000005-161.8-25.600000000000023-290.1-158-311.1-320.6-30.599999999999994-237.3 162.2-439.1 396.90000000000003-423.8 177.89999999999998 11.699999999999989 325.9 151.5 347.1 328.5 11.599999999999909 96.40000000000003-14 186.40000000000003-63.90000000000009 258.40000000000003-7.099999999999909 10.199999999999932-6.399999999999977 23.799999999999955 2.400000000000091 32.59999999999991 11.199999999999932 11.100000000000023 29.699999999999932 9.300000000000068 38.69999999999993-3.599999999999909 56.10000000000002-80.90000000000009 85-182.10000000000002 72.80000000000007-290.50000000000006z"/></svg>