<?xml version="1.0" standalone="no"?>
<!DOCTYPE svg PUBLIC "-//W3C//DTD SVG 1.1//EN" "http://www.w3.org/Graphics/SVG/1.1/DTD/svg11.dtd">
<svg xmlns="http://www.w3.org/2000/svg">
<metadata>Copyright (C) 2017 by original authors @ fontello.com</metadata>
<defs>
<font id="hui-font" horiz-adv-x="1000" >
<font-face font-family="hui-font" font-weight="400" font-stretch="normal" units-per-em="1000" ascent="850" descent="-150" />
<missing-glyph horiz-adv-x="1000" />
<glyph glyph-name="account" unicode="&#xe800;" d="m849 108c-9-13-27-14-38-3-9 9-10 22-3 32 50 72 76 162 64 259-21 177-169 317-347 328-234 16-427-186-397-424 21-162 150-294 311-320 109-17 210 12 287 72 11 7 25 7 34-2 11-11 9-29-3-38-88-67-202-101-324-82-184 29-331 179-354 364-36 279 198 513 476 478 192-25 346-181 367-373 12-108-16-210-73-291z m-349 300c25 0 50 12 68 30l100 120c10 10 10 25 0 35s-25 10-35 0l-100-123c-18-17-48-17-65 0l-100 123c-10 10-25 10-35 0s-10-25 0-35l100-120c17-18 42-30 67-30z m175-83c13 0 25 13 25 25s-12 25-25 25h-350c-12 0-25-12-25-25s13-25 25-25h150v-75h-150c-12 0-25-12-25-25s13-25 25-25h150v-100c0-12 13-25 25-25s25 13 25 25v100h150c13 0 25 13 25 25s-12 25-25 25h-150v75h150z" horiz-adv-x="1000" />
<glyph glyph-name="add-circle" unicode="&#xe801;" d="m849 108c-9-13-27-14-38-3-9 9-10 22-3 32 50 72 76 162 64 259-21 177-169 317-347 328-234 16-427-186-397-424 21-162 150-294 311-320 109-17 210 12 287 72 11 7 25 7 34-2 11-11 9-29-3-38-88-67-202-101-324-82-184 29-331 179-354 364-36 279 198 513 476 478 192-25 346-181 367-373 12-108-16-210-73-291z m-349 17c14 0 25 11 25 25v175h175c14 0 25 11 25 25s-11 25-25 25h-175v175c0 14-11 25-25 25s-25-11-25-25v-175h-175c-14 0-25-11-25-25s11-25 25-25h175v-175c0-14 11-25 25-25z" horiz-adv-x="1000" />
<glyph glyph-name="add" unicode="&#xe802;" d="m925 350c0-14-11-25-25-25h-375v-375c0-14-11-25-25-25s-25 11-25 25v375h-375c-14 0-25 11-25 25s11 25 25 25h375v375c0 14 11 25 25 25s25-11 25-25v-375h375c14 0 25-11 25-25z" horiz-adv-x="1000" />
<glyph glyph-name="animal" unicode="&#xe803;" d="m900 650v-675c0-14-11-25-25-25s-25 11-25 25v673c-2 11-15 77-75 77-61 0-73-66-75-77v-73c0-8-4-15-10-20s-15-6-22-4c-1 0-79 24-168 24-89 0-167-24-168-24-7-2-15-1-22 4-6 5-10 12-10 20v75c0 6-7 75-75 75-69 0-75-73-75-77l0-673c0-14-11-25-25-25s-25 11-25 25v675c3 44 32 125 125 125s125-81 125-123v-45c25 8 89 18 150 18s117-10 150-18v43c0 1 0 2 0 3 6 42 38 122 125 122s120-80 125-122c0-1 0-2 0-3z m-225-450c0-14-11-25-25-25-2 0-23 0-50 5v-130c0-55-45-100-100-100s-100 45-100 100v130c-26-5-46-5-50-5 0 0 0 0 0 0-14 0-25 11-25 25s11 25 25 25c0 0 0 0 0 0 1 0 107 1 126 58 4 10 13 18 24 17 11 0 21-7 24-17 18-57 125-58 126-58 0 0 0 0 0 0 14 0 25-11 25-25z m-125-6c-18 8-36 19-50 34-14-15-32-26-50-33v-145c0-28 22-50 50-50s50 22 50 50v144z m-200 156c14 0 25 11 25 25v50c0 14-11 25-25 25s-25-11-25-25v-50c0-14 11-25 25-25z m300 100c-14 0-25-11-25-25v-50c0-14 11-25 25-25s25 11 25 25v50c0 14-11 25-25 25z" horiz-adv-x="1000" />
<glyph glyph-name="app" unicode="&#xe804;" d="m875 650c0 55-45 100-100 100h-550c-55 0-100-45-100-100v-50c0 0 0 0 0-1 0 0 0 0 0 0l25-549c0-55 45-100 100-100h500c55 0 100 45 100 99l25 550c0 0 0 0 0 0 0 1 0 1 0 1v50z m-650 50h550c28 0 50-22 50-50v-49l0-1c0-28-23-50-50-50h-550c-27 0-50 22-50 50l0 1v49c0 28 22 50 50 50z m575-650c0-28-22-50-50-50h-500c-28 0-50 22-50 51l-21 461c14-7 29-12 46-12h550c17 0 32 5 46 12l-21-462z m-75 350c0-19-11-35-26-44-9-101-95-181-199-181s-190 80-199 181c-15 9-26 25-26 44 0 28 22 50 50 50s50-22 50-50c0-18-10-34-24-42 9-75 72-133 149-133s140 58 149 133c-14 8-24 24-24 42 0 28 22 50 50 50s50-22 50-50z" horiz-adv-x="1000" />
<glyph glyph-name="add-note" unicode="&#xe805;" d="m900 500v-450c0-55-45-100-100-100h-600c-55 0-100 45-100 100v600c0 55 45 100 100 100h475c14 0 25-11 25-25s-11-25-25-25h-475c-28 0-50-22-50-50v-600c0-28 22-50 50-50h600c28 0 50 22 50 50v450c0 14 11 25 25 25s25-11 25-25z m-427-177c9-10 25-10 35 0l385 384c9 10 9 26 0 36s-26 9-36 0l-384-385c-10-10-10-26 0-35z" horiz-adv-x="1000" />
<glyph glyph-name="back" unicode="&#xe806;" d="m618-75c-7 0-13 2-18 7l-350 350c-34 34-33 90 1 124l362 362c9 9 25 9 35 0s10-26 0-36l-361-361c-15-15-16-39-2-53l350-350c10-10 10-26 0-36-5-5-11-7-17-7z" horiz-adv-x="1000" />
<glyph glyph-name="batch-add" unicode="&#xe807;" d="m650 300c0-14-11-25-25-25h-150v-150c0-14-11-25-25-25s-25 11-25 25v150h-150c-14 0-25 11-25 25s11 25 25 25h150v150c0 14 11 25 25 25s25-11 25-25v-150h150c14 0 25-11 25-25z m100 475h-375c-14 0-25-11-25-25s11-25 25-25h375c69 0 125-56 125-125v-350c0-14 11-25 25-25s25 11 25 25v350c0 97-79 175-175 175z m50-725c0-55-45-100-100-100h-500c-55 0-100 45-100 100v500c0 55 45 100 100 100h500c55 0 100-45 100-100v-500z m-50 500c0 28-22 50-50 50h-500c-28 0-50-22-50-50v-500c0-28 22-50 50-50h500c28 0 50 22 50 50v500z" horiz-adv-x="1000" />
<glyph glyph-name="batch-download" unicode="&#xe808;" d="m800 550v-500c0-55-45-100-100-100h-500c-55 0-100 45-100 100v500c0 55 45 100 100 100h500c55 0 100-45 100-100z m-50 0c0 28-22 50-50 50h-500c-27 0-50-22-50-50v-500c0-27 23-50 50-50h500c28 0 50 23 50 50v500z m0 225h-375c-14 0-25-11-25-25s11-25 25-25h375c69 0 125-56 125-125v-350c0-14 11-25 25-25s25 11 25 25v350c0 97-78 175-175 175z m-90-457c10-10 10-25 0-35l-142-153c-18-17-43-30-68-30s-50 13-67 30l-143 153c-10 10-10 25 0 35s25 10 35 0l143-155c2-3 4-5 7-6v318c0 14 11 25 25 25s25-11 25-25v-318c3 1 5 3 8 6l142 155c10 10 25 10 35 0z" horiz-adv-x="1000" />
<glyph glyph-name="book" unicode="&#xe809;" d="m875 100v0 0 0c12 0 25 13 25 25v525c0 55-45 100-100 100h-600c-55 0-100-45-100-100v-425c0-14 11-25 25-25s25 11 25 25v425c0 28 22 50 50 50h75v-275c0-14 11-25 25-25s25 11 25 25v275h475c28 0 50-22 50-50v-500c-116 0-650 0-650 0-55 0-100-44-100-100s45-100 100-100h675c16 0 25 12 25 25s-10 25-25 25c-25 0-50 22-50 50s21 50 50 50z m-75-100h-600c-28 0-50 22-50 50s22 50 50 50h600c-14-11-25-23-25-50s10-39 25-50z" horiz-adv-x="1000" />
<glyph glyph-name="bulb" unicode="&#xe80a;" d="m667 569c59-53 80-124 59-200-3-12-13-19-24-19-2 0-4 0-6 1-13 3-21 17-18 30 16 59 0 110-45 150-10 10-11 25-2 36s25 11 36 2z m7-447c-4-3-7-6-9-10l-42-72-3-9c-12-40-34-106-120-106-87 0-107 66-120 105-1 4-2 7-3 10l-42 73c-2 3-5 6-9 9-109 64-176 181-176 303 0 99 43 194 117 261 75 67 172 98 273 87 162-18 291-149 308-311 14-138-54-272-174-340z m-101-76l0 1c-62 16-116 8-146 0 0 0 1-1 1-2 14-43 25-70 72-70 46 0 58 27 73 71z m225 411c-14 139-125 251-264 266-86 10-170-17-234-74-64-57-100-139-100-224 0-100 53-195 140-252 10 5 76 35 187 27 14-1 24-13 23-27s-13-24-27-23c-70 5-119-7-143-15l24-42c21 6 54 13 96 13 29 0 61-3 96-13l26 44c6 12 16 21 28 28 102 59 161 174 148 292z" horiz-adv-x="1000" />
<glyph glyph-name="briefcase" unicode="&#xe80b;" d="m750-50h-500c-69 0-125 56-125 125v175c0 14 11 25 25 25s25-11 25-25v-175c0-41 34-75 75-75h500c41 0 75 34 75 75v175c0 14 11 25 25 25s25-11 25-25v-175c0-69-56-125-125-125z m-75 650v50c0 41-34 75-75 75h-200c-41 0-75-34-75-75v-50c0-14 11-25 25-25s25 11 25 25v50c0 14 11 25 25 25h200c14 0 25-11 25-25v-50c0-14 11-25 25-25s25 11 25 25z m-275-332c5 13-3 27-16 31l-153 48c-71 18-81 45-81 69v90c0 38 34 69 75 69h550c41 0 75-31 75-69v-90c0-22-9-50-82-70l-150-47c-14-4-21-18-17-31s18-20 31-16l150 46c29 8 118 32 118 118v90c0 66-56 119-125 119h-550c-69 0-125-53-125-119v-90c0-87 89-110 118-117l151-48c3-1 5-1 8-1 10 0 20 7 23 18z m225-18v50c0 41-34 75-75 75h-100c-41 0-75-34-75-75v-50c0-41 34-75 75-75h100c41 0 75 34 75 75z m-75 75c14 0 25-11 25-25v-50c0-14-11-25-25-25h-100c-14 0-25 11-25 25v50c0 14 11 25 25 25h100z" horiz-adv-x="1000" />
<glyph glyph-name="calendar" unicode="&#xe80c;" d="m803 700h-28c-14 0-25-11-25-25v0c0-14 11-25 25-25h22c29 0 53-24 53-53v-72h-700v78c0 26 21 47 47 47h28c14 0 25 11 25 25v0c0 14-11 25-25 25h-28c-54 0-97-43-97-97v-550c0-57 46-103 103-103h594c57 0 103 46 103 103v550c0 54-43 97-97 97z m47-647c0-27-26-53-53-53h-600c-28 0-47 26-47 53v422h700v-422z m-150 247h-400c-14 0-25 11-25 25v0c0 14 11 25 25 25h400c14 0 25-11 25-25v0c0-14-11-25-25-25z m0-175h-400c-14 0-25 11-25 25v0c0 14 11 25 25 25h400c14 0 25-11 25-25v0c0-14-11-25-25-25z m-350 475v0c-14 0-25 11-25 25v100c0 14 11 25 25 25v0c14 0 25-11 25-25v-100c0-14-11-25-25-25z m300 0v0c-14 0-25 11-25 25v100c0 14 11 25 25 25v0c14 0 25-11 25-25v-100c0-14-11-25-25-25z m-125 50h-50c-14 0-25 11-25 25v0c0 14 11 25 25 25h50c14 0 25-11 25-25v0c0-14-11-25-25-25z" horiz-adv-x="1000" />
<glyph glyph-name="vocabularybook" unicode="&#xe80d;" d="m875 100c12 0 25 13 25 25v525c0 55-45 100-100 100h-600c-55 0-100-45-100-100v-425c0-14 11-25 25-25s25 11 25 25v425c0 28 22 50 50 50h600c28 0 50-22 50-50v-500c-116 0-650 0-650 0-55 0-100-44-100-100s45-100 100-100h675c16 0 25 12 25 25s-10 25-25 25c-25 0-50 22-50 50s21 50 50 50z m-75-100h-600c-28 0-50 22-50 50s22 50 50 50h600c-14-11-25-23-25-50s10-39 25-50z m-428 264l43 86h170l43-86c4-9 13-14 22-14 4 0 8 1 11 3 13 6 18 21 11 33l-150 300c-8 17-36 17-44 0l-150-300c-7-12-2-27 11-33 12-7 27-1 33 11z m128 255l60-119h-119l59 119z" horiz-adv-x="1000" />
<glyph glyph-name="coin" unicode="&#xe80e;" d="m500 303c224 0 400 98 400 223s-176 224-400 224-400-98-400-224c0-125 176-223 400-223z m0 397c190 0 350-80 350-174s-160-173-350-173-350 79-350 173 160 174 350 174z m400-343c0-130-176-232-400-232s-400 102-400 232c0 13 11 25 25 25s25-12 25-25c0-99 160-182 350-182s350 83 350 182c0 13 11 25 25 25s25-12 25-25z m0-170c0-133-176-237-400-237s-400 104-400 237c0 14 11 25 25 25s25-11 25-25c0-101 160-187 350-187s350 86 350 187c0 14 11 25 25 25s25-11 25-25z" horiz-adv-x="1000" />
<glyph glyph-name="favorite" unicode="&#xe80f;" d="m500 723l0 0 125-205c8-13 18-20 33-23l235-55-158-182c-7-10-12-23-12-38l10-145c0-12 12-22 25-22h0c15 0 25 12 25 27l-13 145 158 183c25 27 10 72-28 82l-235 55-125 205c-10 15-27 25-42 25s-33-7-43-25l-125-205-235-55c-37-7-50-52-27-82l162-183-20-240c-2-30 23-55 50-55 8 0 13 2 20 5l223 93 235-98c12-5 27 0 32 12l0 0c5 13 0 28-12 35l-235 98c-5 3-13 5-20 5s-13-2-20-5l-223-93 20 241c0 12-2 27-12 37l-158 183 235 55c13 2 25 12 33 22l122 203c0 0 0 0 0 0" horiz-adv-x="1000" />
<glyph glyph-name="memorycard" unicode="&#xe810;" d="m750 775h-349c-24 0-47-12-61-31l-176-241c-9-13-14-28-14-44v-434c0-55 45-100 100-100h500c55 0 100 45 100 100v650c0 55-45 100-100 100z m50-750c0-28-22-50-50-50h-500c-28 0-50 22-50 50v434c0 5 2 10 5 14l175 242c5 6 13 10 21 10h349c28 0 50-22 50-50v-650z m-325 600v-125c0-14-11-25-25-25s-25 11-25 25v125c0 14 11 25 25 25s25-11 25-25z m125 0v-125c0-14-11-25-25-25s-25 11-25 25v125c0 14 11 25 25 25s25-11 25-25z m125 0v-125c0-14-11-25-25-25s-25 11-25 25v125c0 14 11 25 25 25s25-11 25-25z" horiz-adv-x="1000" />
<glyph glyph-name="refresh" unicode="&#xe811;" d="m359 504c-6-12-21-17-33-11-13 5-18 20-13 32l37 77c10 21 24 38 32 51 5 9-4 20-14 16-133-52-218-175-218-313 0-139 86-262 219-314 21-9 43-15 65-19 14-3 23-15 20-28-2-12-13-20-24-20-2 0-3 0-5 0-26 5-51 12-75 22-177 69-281 249-242 439 28 134 128 241 262 286 0 0 1 0 2 1 16 5 35 2 48-9 17-14 21-35 13-54l-9-19-65-137z m215-445l-8-18c-9-19-4-41 13-55 13-11 32-14 48-8 1 0 1 0 2 0 134 45 233 152 261 286 40 190-64 370-241 439-24 10-50 17-75 22-2 0-3 0-5 0-12 0-22-8-25-20-2-13 7-25 20-28 23-4 45-10 66-19 133-52 219-175 219-314 0-138-86-261-218-313-10-4-20 7-14 16 8 13 22 30 32 51l36 78c6 12 1 26-12 32-13 5-27 0-33-12l-66-137z" horiz-adv-x="1000" />
<glyph glyph-name="volume" unicode="&#xe812;" d="m625 639v-639c0-14-11-25-25-25s-25 11-25 25v642c0 16-11 25-15 27-5 3-17 9-31 1l-245-141c-4-3-8-4-13-4h-82c-35 0-64-29-64-64v-228c0-32 26-58 58-58h91c2 0 5-1 7-2l205-101c13-7 18-22 11-35-6-12-21-18-33-12l-200 99c-2 1-4 1-6 1h-69c-63 0-114 51-114 114v228c0 59 49 108 108 108h68c6 0 12 2 17 5l236 134c25 15 55 13 80-2 26-14 41-43 41-73z m120-116c-7 11-23 14-34 6s-14-24-6-35c29-42 45-92 45-144s-16-102-45-144c-8-11-6-27 6-35 4-3 9-4 14-4 8 0 16 4 20 10 36 51 55 111 55 173s-19 122-55 173z m81 125c-8 11-24 14-35 6-11-8-14-24-6-35 55-79 85-172 85-269 0-97-30-190-85-269-8-11-5-27 6-35 4-3 9-4 14-4 8 0 16 4 21 11 61 87 94 190 94 297 0 107-33 210-94 298z" horiz-adv-x="1000" />
<glyph glyph-name="warning-circle" unicode="&#xe813;" d="m525 275c0-14-11-25-25-25s-25 11-25 25v300c0 14 11 25 25 25s25-11 25-25v-300z m-25-75c-14 0-25-11-25-25v-50c0-14 11-25 25-25s25 11 25 25v50c0 14-11 25-25 25z m422 199c-21 192-175 348-367 373-278 34-512-200-476-478 23-185 170-336 354-364 122-19 236 15 324 82 12 9 14 27 3 38-9 9-23 9-34 2-77-60-178-89-287-72-161 25-290 158-311 320-30 238 162 440 397 424 178-11 326-151 347-328 12-97-14-187-64-259-7-10-6-23 3-32 11-11 29-10 38 3 57 81 85 182 73 291z" horiz-adv-x="1000" />
<glyph glyph-name="right-circle" unicode="&#xe814;" d="m83 350c0-229 188-417 417-417 229 0 417 188 417 417 0 229-188 417-417 417-229 0-417-188-417-417z m-83 0c0 275 225 500 500 500 275 0 500-225 500-500 0-275-225-500-500-500-275 0-500 225-500 500z m392-158c-17-17-17-42 0-59s41-16 58 0l192 192c16 17 16 42 0 58l-192 192c-17 17-42 17-58 0-17-21-17-46 0-62l162-163-162-158z" horiz-adv-x="1000" />
<glyph glyph-name="menu" unicode="&#xe815;" d="m850 650h-700c-14 0-25 11-25 25v0c0 14 11 25 25 25h700c14 0 25-11 25-25v0c0-14-11-25-25-25z m25-300v0c0 14-11 25-25 25h-700c-14 0-25-11-25-25v0c0-14 11-25 25-25h700c14 0 25 11 25 25z m0-325v0c0 14-11 25-25 25h-700c-14 0-25-11-25-25v0c0-14 11-25 25-25h700c14 0 25 11 25 25z" horiz-adv-x="1000" />
<glyph glyph-name="filter" unicode="&#xe816;" d="m575-50c-6 0-11 2-16 6l-150 125c-6 5-9 12-9 19v231c-37 13-119 47-193 127-122 132-107 265-107 270 2 13 12 22 25 22h750c13 0 23-9 25-22 1-5 16-136-106-270-76-80-157-115-194-127v-181c0-14-11-25-25-25s-25 11-25 25v200c0 12 8 22 20 24 0 1 99 24 187 118 78 86 92 170 94 208h-702c2-39 15-122 94-208 87-94 187-117 188-118 11-2 19-12 19-24v-238l141-118c11-9 12-24 3-35-5-6-12-9-19-9z" horiz-adv-x="1000" />
<glyph glyph-name="comment-circle" unicode="&#xe817;" d="m700 375c-28 0-50 22-50 50s22 50 50 50 50-22 50-50-22-50-50-50z m-450 50c0-28 22-50 50-50s50 22 50 50-22 50-50 50-50-22-50-50z m200 0c0-28 22-50 50-50s50 22 50 50-22 50-50 50-50-22-50-50z m50 350c-221 0-400-163-400-362 0-169 130-317 311-354l94-124c5-7 12-10 20-10 5 0 11 2 15 5 11 8 13 24 5 35l-100 132c-4 5-9 8-15 9-162 30-280 159-280 307 0 172 157 312 350 312s350-140 350-312c0-140-105-264-256-302-13-3-22-16-18-30s17-21 30-18c173 43 294 187 294 350 0 199-179 362-400 362z" horiz-adv-x="1000" />
<glyph glyph-name="comment" unicode="&#xe818;" d="m900 650v-475c0-55-45-100-100-100h-196c0 0-1 0-1 0h-1v0c-6 0-12 1-17 5-11 9-12 25-4 36 5 6 13 9 21 9v0h198c28 0 50 22 50 50v475c0 28-22 50-50 50h-600c-28 0-50-22-50-50v-475c0-28 22-50 50-50h225l125-151-1-1c7-9 8-22 0-31-8-11-24-12-35-4-1 1-2 3-3 4l-1 0-108 133-202 0c-55 0-100 45-100 100v475c0 55 45 100 100 100h600c55 0 100-45 100-100z m-450-225c0-28 22-50 50-50s50 22 50 50-22 50-50 50-50-22-50-50z m-200 0c0-28 22-50 50-50s50 22 50 50-22 50-50 50-50-22-50-50z m500 0c0 28-22 50-50 50s-50-22-50-50 22-50 50-50 50 22 50 50z" horiz-adv-x="1000" />
<glyph glyph-name="flower" unicode="&#xe819;" d="m803 249c56 62 81 139 72 224l-18 146c-2 18-13 32-29 40-16 7-34 5-49-4l-97-46c-11-5-24-2-31 7l-101 134c-9 11-20 25-50 25-26 0-40-14-50-25l-101-134c-7-9-20-12-31-7l-97 46c-15 9-33 11-49 4s-26-22-29-40l-18-145c-12-81 11-156 64-218 65-75 173-123 286-130 0 0 0 0 0-1v-150c0-14 11-25 25-25s25 11 25 25v150c0 0 0 1 0 1 110 6 213 51 278 123z m-576 39c-44 51-62 113-52 179l18 146 116-55c20-13 49-10 65 9l126 158 126-158c16-19 45-22 65-9l116 55 18-146c8-69-13-133-59-185-61-67-160-107-266-107-108 0-212 43-273 113z m197-331c-3-11-13-18-24-18-2 0-5 1-7 1-81 25-152 76-201 146-8 11-5 27 7 35 11 7 26 5 34-7 42-60 104-105 174-126 13-4 21-17 17-31z m378 164c11-8 14-24 6-35-49-70-120-121-201-146-2 0-5-1-7-1-11 0-21 7-24 18-4 13 4 27 17 31 70 21 132 66 174 126 8 12 23 14 35 7z" horiz-adv-x="1000" />
<glyph glyph-name="microphone" unicode="&#xe81a;" d="m602 240c-7 1-15 2-22 3-50 9-95 33-131 69-38 39-63 87-70 141-2 14-15 24-28 22-14-2-24-15-22-28 4-30 13-58 25-84l-246-246c-44-44-44-115 0-159 22-22 51-33 79-33s58 11 80 33l251 251c17-6 35-12 53-15 9-2 18-3 27-4 1 0 1 0 2 0 13 0 24 10 25 23 1 14-9 26-23 27z m-370-247c-25-24-64-24-89 0-11 12-18 28-18 44s7 33 18 45l237 236c10-15 21-29 34-42 17-17 36-31 57-44l-239-239z m627 680c-53 67-132 108-217 113-85 4-168-27-228-87-21-21-39-45-52-71-15-28-10-64 13-87l303-303c15-15 34-22 54-22 11 0 23 3 34 8 37 20 69 48 96 81 83 107 82 262-3 368z m-37-337c-22-28-49-51-80-68-9-5-21-3-28 5l-303 303c-8 8-10 19-5 28 11 22 26 42 43 59 47 47 110 73 176 73 5 0 9 0 14 0 72-4 136-38 181-94 70-88 71-217 2-306z" horiz-adv-x="1000" />
<glyph glyph-name="rmb" unicode="&#xe81b;" d="m800 151c0-12-12-25-25-25h-250v-150c0-12-12-25-25-25s-25 13-25 25v150h-250c-12 0-25 13-25 25s13 25 25 25h250v150h-250c-12 0-25 13-25 25s13 25 25 25h550c13 0 25-12 25-25s-12-25-25-25h-250v-150h250c13 0 25-12 25-25z m-232 330l200 225c10 10 10 25 0 35s-25 10-35 0l-200-227c-18-18-48-18-65 0l-203 230c-10 10-25 10-35 0s-10-25 0-35l203-228c17-17 42-30 67-30s50 13 68 30z" horiz-adv-x="1000" />
<glyph glyph-name="safealert" unicode="&#xe81c;" d="m500 275c-14 0-25 11-25 25v300c0 14 11 25 25 25s25-11 25-25v-300c0-14-11-25-25-25z m-25-125c0-14 11-25 25-25s25 11 25 25v50c0 14-11 25-25 25s-25-11-25-25v-50z m25-225l-7 3c-401 126-394 520-392 649 0 9 1 16 1 22 0 27 15 57 36 71 244 138 480 138 723 1l3-3c9-7 35-27 35-69 0-7 0-16 0-26 1-44 3-119-11-202-2-14-15-23-28-21-14 3-23 15-21 29 13 78 11 147 10 193 0 11 0 20 0 27 0 14-6 22-14 29-226 127-446 126-671-1-4-3-12-16-12-28 0-6-1-14-1-23-2-132-8-480 349-598 151 49 254 143 307 281 5 13 20 20 33 15s19-20 14-33c-60-155-176-261-347-313l-7-3z" horiz-adv-x="1000" />
<glyph glyph-name="mobilephone" unicode="&#xe81d;" d="m750 775h-500c-55 0-100-45-100-100v-650c0-55 45-100 100-100h500c55 0 100 45 100 100v650c0 55-45 100-100 100z m-500-50h500c28 0 50-22 50-50v-475h-600v475c0 28 22 50 50 50z m500-750h-500c-28 0-50 22-50 50v125h600v-125c0-28-22-50-50-50z m-350 675c0 14 11 25 25 25h150c14 0 25-11 25-25s-11-25-25-25h-150c-14 0-25 11-25 25z m150-600c0-28-22-50-50-50s-50 22-50 50c0 28 22 50 50 50s50-22 50-50z" horiz-adv-x="1000" />
<glyph glyph-name="forward" unicode="&#xe81e;" d="m807 105c-73-103-189-159-307-159-75 0-150 23-216 69-169 119-209 354-90 523 70 99 185 158 307 158 0 0 1 0 2 0 14 0 25-11 25-25 0-14-12-25-25-25-1 0-2 0-2 0-106 0-205-51-266-137-104-147-69-350 78-453 71-50 157-70 243-55 85 15 160 62 210 133 44 62 65 138 58 214-1 14 9 26 23 27 14 1 26-9 27-23 7-87-17-175-67-247z m-363 200c-3-14 6-27 19-29 2-1 4-1 5-1 12 0 22 8 25 20 2 11 56 266 305 279-1-3-2-6-4-9l-94-127c-7-12-4-27 9-34s26-4 34 8l91 127c13 21 19 48 13 72s-29 52-57 65l-136 64c-13 7-27 1-33-11-7-14-1-28 12-34l135-64c4-2 8-5 12-8-275-25-336-315-336-318z" horiz-adv-x="1000" />
<glyph glyph-name="consult" unicode="&#xe81f;" d="m800 550v-400c0-55-45-100-100-100h-148c-1 0-1 0-1 0h-1v0c0 0-12 1-17 5-11 9-12 25-4 36 6 6 21 9 21 9v0h150c28 0 50 22 50 50v400c0 28-22 50-50 50h-525c-28 0-50-22-50-50v-400c0-28 22-50 50-50h197l125-152c7-9 8-21 0-31-8-11-24-12-35-4-1 1-2 3-3 4l-109 133-175 0c-55 0-100 45-100 100v400c0 55 45 100 100 100h525c55 0 100-45 100-100z m-125-100c0 14-11 25-25 25h-400c-14 0-25-11-25-25s11-25 25-25h400c14 0 25 11 25 25z m-425-125c-14 0-25-11-25-25s11-25 25-25h225c14 0 25 11 25 25s-11 25-25 25h-225z m500 450h-300c-14 0-25-11-25-25s11-25 25-25h300c69 0 125-56 125-125v-300c0-14 11-25 25-25s25 11 25 25v300c0 97-79 175-175 175z" horiz-adv-x="1000" />
<glyph glyph-name="curriculum" unicode="&#xe820;" d="m800 725h-150c-75 0-125-27-150-42-25 17-75 42-150 42h-150c-65 0-100-34-100-100l0-525c0-58 30-100 100-100h150c25 0 71-2 130-43 0 0 11-6 19-7 7 1 16 7 16 7 60 38 110 43 135 43h150c65 0 100 40 100 100v525c0 66-44 100-100 100z m50-625c0-28-15-50-50-50h-150c-26 0-92-5-150-50-57 43-125 50-150 50h-150c-35 0-50 20-50 50l0 525c0 32 21 50 50 50h150c62 0 100-26 125-41v-509c0-13 13-25 25-25s25 12 25 25v510c26 14 62 40 125 40h150c27 0 50-18 50-50v-525z m-352-150c0 0 0 0 1 0 0 0 1 0 1 0h-2z" horiz-adv-x="1000" />
<glyph glyph-name="hand" unicode="&#xe821;" d="m536-75c-66 0-129 22-185 65-71 55-136 117-199 178-16 15-33 31-49 47-19 17-28 38-28 61 0 24 12 48 34 68 38 34 92 33 131-3 15-14 29-27 44-41 10-9 19-19 29-28 15-14 20-12 25-10 3 2 5 3 3 21-4 40-9 80-15 119l-5 44c-2 17-5 35-7 52-5 41-11 83-15 125-2 26 8 51 28 67 20 16 48 20 73 12 45-15 52-58 55-72 2-12 5-28 8-46 3 45 6 89 7 121 2 48 33 79 78 79 1 0 1 0 2 0 45 0 76-33 76-82 0-22 0-49 0-79 1 6 3 12 4 17 9 46 45 72 89 65 43-6 69-43 63-88-2-20-8-63-15-110 20 33 55 48 90 37 20-6 36-19 45-36 10-19 12-42 4-65l-22-69c-29-91-59-186-90-278-7-22-17-42-29-60-8-11-24-15-35-7s-14 24-7 35c10 14 18 30 24 48 31 92 61 186 90 277l22 69c3 10 3 19-1 26-3 6-8 10-15 12-19 6-32-8-37-23-20-50-65-147-67-151-5-12-18-18-30-14-12 4-19 15-17 28 0 2 34 235 40 287 2 13 0 30-20 33-23 3-31-12-33-26-15-74-51-239-52-241-2-12-14-21-27-19-12 1-22 12-22 24 0 0-2 212-2 308 0 32-20 32-27 32 0 0 0 0-1 0-11 0-27-3-28-32-4-97-21-312-21-314-1-13-11-23-23-23-13-1-24 7-26 20-1 1-33 170-44 237-4 23-11 29-22 33-9 3-19 1-26-4-4-4-10-11-9-23 4-41 9-83 15-123 2-18 4-35 7-53l5-43c5-40 10-80 15-120 2-15 6-55-33-72-40-19-69 9-79 19-10 9-20 18-30 27-14 14-28 28-43 41-20 19-44 20-63 3-12-11-18-22-18-32 0-8 4-16 12-24 17-16 33-32 50-47 62-60 126-121 195-174 75-59 163-71 252-36 13 5 28-1 33-14s-2-27-14-32c-39-15-79-23-117-23z" horiz-adv-x="1000" />
<glyph glyph-name="music" unicode="&#xe822;" d="m873 733c-18 14-40 20-63 16l-400-80c-35-7-60-38-60-74v-494c0-58-34-96-90-101-54-4-99 31-109 82-5 31 3 61 22 84 24 28 62 41 97 34 14-3 27 6 30 20s-6 26-20 29c-10 2-20 3-29 3-45 0-87-20-116-54-29-34-41-80-33-124 13-73 76-124 150-124 4 0 8 0 12 1 81 6 136 66 136 150v379l450 90v-369c0-61-39-101-100-101-29 0-56 12-75 34-20 23-28 52-24 82 6 47 49 85 97 86 8 0 15 0 22-2 14-3 27 6 30 20s-6 26-20 29c-11 2-22 3-33 3-73-2-136-57-146-129-6-44 7-89 36-122 28-32 70-51 113-51 88 0 150 62 150 151v474c0 23-10 44-27 58z m-473-202v64c0 12 8 22 20 25l400 80c7 1 15-1 21-6s9-11 9-19v-54l-450-90z" horiz-adv-x="1000" />
<glyph glyph-name="scancode" unicode="&#xe823;" d="m275-25c0-14-11-25-25-25h-50c-55 0-100 45-100 100v50c0 14 11 25 25 25s25-11 25-25v-50c0-28 22-50 50-50h50c14 0 25-11 25-25z m600 150c-14 0-25-11-25-25v-50c0-28-22-50-50-50h-50c-14 0-25-11-25-25s11-25 25-25h50c55 0 100 45 100 100v50c0 14-11 25-25 25z m-75 625h-50c-14 0-25-11-25-25s11-25 25-25h50c28 0 50-22 50-50v-50c0-14 11-25 25-25s25 11 25 25v50c0 55-45 100-100 100z m-675-175c14 0 25 11 25 25v50c0 28 22 50 50 50h50c14 0 25 11 25 25s-11 25-25 25h-50c-55 0-100-45-100-100v-50c0-14 11-25 25-25z m750-200h-750c-14 0-25-11-25-25s11-25 25-25h750c14 0 25 11 25 25s-11 25-25 25z" horiz-adv-x="1000" />
<glyph glyph-name="delete" unicode="&#xe824;" d="m400 75c-14 0-25 11-25 25v350c0 14 11 25 25 25s25-11 25-25v-350c0-14-11-25-25-25z m400 425c-14 0-25-11-25-25l-25-425c0-28-22-50-50-50h-400c-28 0-50 22-50 50l-25 425c0 14-11 25-25 25s-25-11-25-25l25-425c0-55 45-100 100-100h400c55 0 100 45 100 100l25 425c0 14-11 25-25 25z m-175-400v350c0 14-11 25-25 25s-25-11-25-25v-350c0-14 11-25 25-25s25 11 25 25z m275 500c0-14-11-25-25-25h-750c-14 0-25 11-25 25s11 25 25 25h200c0 83 79 150 175 150s175-67 175-150h200c14 0 25-11 25-25z m-275 25c0 55-56 100-125 100s-125-45-125-100h250z" horiz-adv-x="1000" />
<glyph glyph-name="history" unicode="&#xe825;" d="m849 108c-9-13-27-14-38-3-9 9-10 22-3 32 50 72 76 162 64 259-21 177-169 317-347 328-234 16-427-186-397-424 21-162 150-294 311-320 109-17 210 12 287 72 11 7 25 7 34-2 11-11 9-29-3-38-88-67-202-101-324-82-184 29-331 179-354 364-36 279 198 513 476 478 192-25 346-181 367-373 12-108-16-210-73-291z m-349 542c-14 0-25-11-25-25v-275c0 0 0 0 0-1 0-3 1-6 2-8 1-2 2-4 3-5 1-1 1-3 2-4l183-182c9-10 25-10 35 0s10 26 0 35l-175 175v265c0 14-11 25-25 25z" horiz-adv-x="1000" />
<glyph glyph-name="night" unicode="&#xe826;" d="m846 271c-27-183-186-321-371-321-207 0-375 168-375 375 0 185 138 344 321 371 10 1 20-4 25-12s5-20-2-28c-34-46-52-99-52-156 0-142 116-258 258-258 15 0 31 1 46 4 13 2 26-7 29-20s-7-27-21-29c-17-4-36-5-54-5-170 0-308 138-308 308 0 47 10 92 30 133-130-44-222-167-222-308 0-179 146-325 325-325 160 0 298 120 321 278 2 14 15 24 29 21 13-2 23-14 21-28z m54 329c0-9-5-18-13-22l-74-41-41-74c-4-8-13-13-22-13s-18 5-22 13l-41 74-74 41c-8 4-13 13-13 22s5 18 13 22l74 41 41 74c9 16 35 16 44 0l41-74 74-41c8-4 13-13 13-22z m-77 0l-41 22c-4 3-7 6-10 10l-22 41-22-41c-3-4-6-7-10-10l-41-22 41-22c4-3 7-6 10-10l22-41 22 41c3 4 6 7 10 10l41 22z" horiz-adv-x="1000" />
<glyph glyph-name="schedule" unicode="&#xe827;" d="m803 700h-128v25c0 14-11 25-25 25s-25-11-25-25v-100c0-14 11-25 25-25s25 11 25 25v25h122c29 0 53-24 53-53v-72h-700v78c0 26 21 47 47 47h128v-25c0-14 11-25 25-25s25 11 25 25v100c0 14-11 25-25 25s-25-11-25-25v-25h-128c-54 0-97-43-97-97v-550c0-57 46-103 103-103h594c57 0 103 46 103 103v550c0 54-43 97-97 97z m47-647c0-27-26-53-53-53h-600c-28 0-47 26-47 53v422h700v-422z m-400 622c0 14 11 25 25 25h50c14 0 25-11 25-25s-11-25-25-25h-50c-14 0-25 11-25 25z m-114-457c-10 10-10 26 0 36s26 9 35 0l117-117 162 252c8 11 23 15 35 7 12-7 15-23 8-35l-179-278c-4-6-11-10-19-11-1 0-1 0-2 0-7 0-13 2-18 7l-139 139z" horiz-adv-x="1000" />
<glyph glyph-name="schoolbag" unicode="&#xe828;" d="m850 50c0-69-56-125-125-125h-450c-57 0-107 38-121 94-3 10-4 20-4 31 0 14 11 25 25 25s25-11 25-25c0-6 1-13 2-19 9-33 39-56 73-56h450c41 0 75 34 75 75 0 14 11 25 25 25s25-11 25-25z m-175 450h-350c-14 0-25-11-25-25s11-25 25-25h250v-25c0-14 11-25 25-25s25 11 25 25v25h50c14 0 25 11 25 25s-11 25-25 25z m225 50v-300c0-69-56-125-125-125h-100v-25c0-14-11-25-25-25s-25 11-25 25v25h-250v-25c0-14-11-25-25-25s-25 11-25 25v25h-100c-69 0-125 56-125 125v300c0 69 56 125 125 125h128c14 57 75 100 147 100s133-43 147-100h128c69 0 125-56 125-125z m-494 125h188c-14 29-51 50-94 50s-80-21-94-50z m444-125c0 41-34 75-75 75h-550c-41 0-75-34-75-75v-300c0-41 34-75 75-75h100v25c0 14 11 25 25 25s25-11 25-25v-25h250v25c0 14 11 25 25 25s25-11 25-25v-25h100c41 0 75 34 75 75v300z" horiz-adv-x="1000" />
<glyph glyph-name="note" unicode="&#xe829;" d="m650-25c0-14-11-25-25-25h-400c-69 0-125 56-125 125v550c0 69 56 125 125 125h475c69 0 125-56 125-125v-25c0-14-11-25-25-25s-25 11-25 25v25c0 41-34 75-75 75h-475c-41 0-75-34-75-75v-550c0-41 34-75 75-75h400c14 0 25-11 25-25z m-25 550c0 14-11 25-25 25h-325c-14 0-25-11-25-25s11-25 25-25h325c14 0 25 11 25 25z m-75-175v0c0 14-11 25-25 25h-250c-14 0-25-11-25-25v0c0-14 11-25 25-25h250c14 0 25 11 25 25z m-275-150c-14 0-25-11-25-25s11-25 25-25h150c14 0 25 11 25 25s-11 25-25 25h-150z m625 225v-358c0-11-4-22-10-30l-62-67c-10-13-25-20-40-20s-31 7-40 20v0l-63 67c-6 8-10 19-10 30v358c0 41 34 75 75 75h75c41 0 75-34 75-75z m-175-50h125v50c0 14-11 25-25 25h-75c-14 0-25-11-25-25v-50z m125-308v258h-125v-258l63-67 62 67z" horiz-adv-x="1000" />
<glyph glyph-name="home" unicode="&#xe82a;" d="m900 401c0-15-10-25-25-25-7 0-12 3-17 8l-308 292c-25 25-75 25-100 0l-307-292c-5-5-10-8-18-8-15 0-25 10-25 25 0 8 3 13 8 18v0l317 307c38 38 113 38 150 0l318-307c5-5 7-10 7-18z m-125-50c-15 0-25-10-25-25v-275c0-27-22-50-50-50h-400c-27 0-50 23-50 50v275c0 15-10 25-25 25s-25-10-25-25v-275c0-52 45-100 100-100h400c55 0 100 48 100 100v275c0 15-10 25-25 25z" horiz-adv-x="1000" />
<glyph glyph-name="detail" unicode="&#xe82b;" d="m800 750h-600c-55 0-100-45-100-100v-600c0-55 45-100 100-100h250c14 0 25 11 25 25s-11 25-25 25h-250c-28 0-50 22-50 50v600c0 28 22 50 50 50h600c28 0 50-22 50-50l-1-350c0-14-11-25-25-25h-199c-28 0-50-22-50-50v-225c0-21 8-39 26-47 5-3 9-4 15-4 10 0 19 4 28 12l240 252c11 10 16 23 16 37v400c0 55-45 100-100 100z m-175-712v175c0 6 6 12 12 12h161c11 0 16-13 9-21l-160-174c-8-8-22-3-22 8z m-350 437c0 14 11 25 25 25h400c14 0 25-11 25-25s-11-25-25-25h-400c-14 0-25 11-25 25z m0-225c0 14 11 25 25 25h150c14 0 25-11 25-25s-11-25-25-25h-150c-14 0-25 11-25 25z" horiz-adv-x="1000" />
<glyph glyph-name="dictionary" unicode="&#xe82c;" d="m875 100c12 0 25 13 25 25v525c0 55-45 100-100 100h-600c-55 0-100-45-100-100v-425c0-14 11-25 25-25s25 11 25 25v425c0 28 22 50 50 50h600c28 0 50-22 50-50v-500c-116 0-650 0-650 0-55 0-100-44-100-100s45-100 100-100h675c16 0 25 12 25 25s-10 25-25 25c-25 0-50 22-50 50s21 50 50 50z m-75-100h-600c-28 0-50 22-50 50s22 50 50 50h600c-14-11-25-23-25-50s10-39 25-50z m-525 525c0 14 11 25 25 25h400c14 0 25-11 25-25s-11-25-25-25h-400c-14 0-25 11-25 25z m0-200c0 14 11 25 25 25h400c14 0 25-11 25-25s-11-25-25-25h-400c-14 0-25 11-25 25z" horiz-adv-x="1000" />
<glyph glyph-name="hujiang" unicode="&#xe82d;" d="m600 228c14 0 25-12 25-25s-11-25-25-25-25 11-25 25 11 25 25 25z m50 50c0-14 11-25 25-25s25 11 25 25-11 25-25 25-25-12-25-25z m75 100c0 13-11 25-25 25s-25-12-25-25 11-25 25-25 25 11 25 25z m132 326c-42 45-105 71-174 71h-349c-139 0-225-86-225-223l-18-302c0-137 88-225 225-225h80c14 0 25 11 25 25s-11 25-25 25h-80c-109 0-175 65-175 174l18 301c0 111 64 175 175 175h349c55 0 105-20 137-55 29-32 42-72 38-118l-18-301c-2-107-57-168-182-202l-228-75c-13-5-20-19-16-32 3-10 13-17 24-17 2 0 5 0 8 1l226 75c146 40 215 119 218 248l18 299c5 59-13 114-51 156z m-342-59c-7 6-18 7-26 2-9-4-14-12-14-22v-23c-112-13-200-109-200-224 0-125 102-227 226-227 14 0 25 11 25 25s-11 25-25 25c-97 0-176 79-176 177s79 176 176 176c20 0 39-3 57-10l22-10c4-2 7-2 11-2 8 0 17 4 21 12 7 11 4 25-6 33l-91 68z" horiz-adv-x="1000" />
<glyph glyph-name="notice" unicode="&#xe82e;" d="m877 175h-52v200c0 174-130 311-300 324v53c0 12-10 23-23 23h-4c-12 0-23-11-23-23v-53c-170-13-300-150-300-324v-200h-52c-12 0-23-12-23-25s11-25 23-25h754c13 0 23 12 23 25s-10 25-23 25z m-102 0h-550v200c0 154 121 275 275 275s275-121 275-275v-200z m-133-107c11-8 13-23 4-34-30-53-86-85-147-85-2 0-4 0-6 0-62 2-114 36-139 91-6 12 0 27 12 33s28 0 33-12c17-37 53-60 96-62 45-1 87 22 108 61l3 5c9 10 25 12 36 3z" horiz-adv-x="1000" />
<glyph glyph-name="search" unicode="&#xe82f;" d="m475 700c165 0 300-135 300-300s-135-300-300-300-300 135-300 300 135 300 300 300z m0 50c-193 0-350-157-350-350s157-350 350-350 350 157 350 350-157 350-350 350v0z m312-635c-6 0-12-2-17-7-10-10-10-25 0-35l115-116c5-5 11-7 17-7s13 2 18 7c10 10 10 25 0 35l-115 116c-5 5-11 7-18 7v0z" horiz-adv-x="1000" />
<glyph glyph-name="send" unicode="&#xe830;" d="m887 638l-151-626c-7-31-33-52-62-60-7-1-14-2-21-2-22 0-44 9-61 25l-84 85c-10 10-10 26 0 36s25 9 35 0l85-85c9-9 21-13 34-10 13 3 23 12 26 24l151 626c5 15 1 29-8 38s-24 13-37 9l-620-152c-11-3-20-13-23-25s1-25 10-35l148-151c15-15 19-37 10-56l-71-153c-3-6 3-12 9-10l166 59c13 5 28-2 32-15 5-13-2-27-15-32l-189-68c-19-5-36 0-49 13-12 12-17 30-12 46l1 4 75 162c5 9 3 20-5 28l-136 138c-21 22-30 52-22 82s28 52 57 61l621 152c29 10 62 2 85-21s31-57 21-87z m-127-24c-9 10-25 10-35 1l-307-293c-10-9-10-25-1-35s26-11 36-1l307 293c10 9 10 25 0 35z" horiz-adv-x="1000" />
<glyph glyph-name="option" unicode="&#xe831;" d="m950 350c0-14-11-25-25-25h-51c-5-81-36-157-88-218l30-37c8-11 7-27-4-36-11-8-27-7-35 4l-58 71 16 16c58 61 90 141 90 225 0 179-146 325-325 325s-325-146-325-325 146-325 325-325c8 0 17 0 25 1 35 3 68 11 100 24 13 5 28-1 33-13s-1-28-14-33c-36-16-75-25-115-28-1 0-3 0-4 0 0 0 0-1 0-1v-50c0-14-11-25-25-25s-25 11-25 25v50c0 0 0 1 0 1-85 6-162 40-222 92 0 0 0 0 0-1l-36-35c-10-10-25-10-35 0s-10 26 0 35l35 36c1 0 1 0 1 0-52 60-86 137-92 222h-51c-14 0-25 11-25 25s11 25 25 25h51c6 85 40 162 92 222 0 0 0 0-1 1l-35 35c-10 10-10 26 0 35s25 10 35 0l36-35c0 0 0-1 0-1 60 53 137 86 222 92 0 0 0 1 0 1v50c0 14 11 25 25 25s25-11 25-25v-50c0 0 0-1 0-1 85-6 162-39 222-92 0 0 0 1 0 1l36 35c10 10 25 10 35 0s10-25 0-35l-35-35c0-1-1-1-1-1 52-60 86-137 92-222h51c14 0 25-11 25-25z m-450 200c110 0 200-90 200-200s-90-200-200-200-200 90-200 200 90 200 200 200z m0-50c-83 0-150-67-150-150s67-150 150-150 150 67 150 150-67 150-150 150z" horiz-adv-x="1000" />
<glyph glyph-name="hujiangcc" unicode="&#xe832;" d="m669 396l-15 54c-4 15 5 31 20 35v0c15 4 30-4 35-19l15-55c4-15-5-31-20-35v0c-15-4-30 5-35 20z m-190-70v0c15 4 24 20 20 35l-15 55c-5 15-20 23-35 19v0c-15-4-24-20-20-35l15-54c5-15 20-24 35-20z m-369-44c12 3 19 14 18 26-2 14-3 29-3 43 0 207 168 375 375 375 154 0 286-93 343-225 6-12 18-18 30-15v0c15 4 23 20 16 35-65 150-215 255-389 255-235 0-425-190-425-425 0-16 1-33 3-49 2-15 16-25 30-21l2 1z m781 131c-11-3-19-14-18-26 1-12 2-24 2-36 0-207-168-375-375-375-151 0-281 90-340 219-6 11-18 18-30 14h0c-15-4-23-20-16-35 67-146 215-248 386-248 235 0 425 191 425 425 0 14-1 27-2 40-2 16-17 26-32 22v0z" horiz-adv-x="1000" />
<glyph glyph-name="document" unicode="&#xe833;" d="m800 550v-500c0-55-45-100-100-100h-500c-55 0-100 45-100 100v500c0 55 45 100 100 100h500c55 0 100-45 100-100z m-50 0c0 28-22 50-50 50h-500c-27 0-50-22-50-50v-500c0-27 23-50 50-50h500c28 0 50 23 50 50v500z m-500-325c0 13 12 25 25 25h150c13 0 25-12 25-25s-12-25-25-25h-150c-13 0-25 13-25 25z m372 200h-343c-15 0-29-12-29-25s14-25 29-25h343c14 0 28 13 28 25s-14 25-28 25z m128 350h-375c-14 0-25-11-25-25s11-25 25-25h375c69 0 125-56 125-125v-350c0-14 11-25 25-25s25 11 25 25v350c0 97-78 175-175 175z" horiz-adv-x="1000" />
<glyph glyph-name="down" unicode="&#xe834;" d="m507 150c0 0-1 0-1 0-24 0-46 10-62 26l-361 362c-10 9-10 25 0 35s25 10 35 0l361-361c7-8 17-12 27-12 10 0 20 3 27 10l349 350c10 10 26 10 36 0s9-25 0-35l-350-350c-16-16-38-25-61-25z" horiz-adv-x="1000" />
<glyph glyph-name="hujiangclass" unicode="&#xe835;" d="m375 300c-2 0-3 0-5 1-16 3-55 19-78 42-18 19-59 74-40 173l2 14 14 5c3 1 61 20 119-13 43-25 59-58 61-62 5-12 0-27-13-33-12-5-27 0-33 13 0 0-11 22-39 38-25 14-50 14-65 12-8-67 20-102 30-112 14-14 43-27 52-28 14-3 22-17 19-30-2-12-12-20-24-20z m80-374l226 75c146 40 215 119 218 248l18 299c5 59-13 114-51 156-42 45-105 71-174 71h-349c-139 0-225-86-225-223l-18-302c0-137 88-225 225-225h80c24 0 44 16 49 38 55 227 101 393 118 422 22 39 51 72 155 65-1-18-5-49-25-92-31-68-96-61-99-61-13 2-26-7-28-21-2-14 8-26 22-28 36-5 114 7 151 89 39 86 28 137 26 142l-4 16-17 2c-135 16-187-23-225-87-28-49-95-321-123-435h-80c-109 0-175 65-175 174l18 301c0 111 64 175 175 175h349c55 0 105-20 137-55 29-32 42-72 38-118l-18-301c-2-107-57-168-182-202l-228-75c-13-5-20-19-16-32 3-10 13-17 24-17 2 0 5 0 8 1z" horiz-adv-x="1000" />
<glyph glyph-name="order" unicode="&#xe836;" d="m900 603v-550c0-57-47-103-103-103h-594c-57 0-103 46-103 103v550c0 54 43 97 97 97h28c14 0 25-11 25-25s-11-25-25-25h-28c-26 0-47-21-47-47v-550c0-27 19-53 47-53h600c27 0 53 26 53 53v544c0 29-24 53-53 53h-22c-14 0-25 11-25 25s11 25 25 25h28c53 0 97-43 97-97z m-200-203h-400c-14 0-25-11-25-25s11-25 25-25h400c13 0 25 11 25 25s-12 25-25 25z m0-175h-400c-14 0-25-11-25-25s11-25 25-25h400c13 0 25 11 25 25s-12 25-25 25z m-450 350c0 14 11 25 25 25h50v75c0 41 33 75 75 75h200c41 0 75-34 75-75v-75h50c13 0 25-11 25-25s-12-25-25-25h-450c-14 0-25 11-25 25z m125 25h250v75c0 14-12 25-25 25h-200c-14 0-25-11-25-25v-75z" horiz-adv-x="1000" />
<glyph glyph-name="share" unicode="&#xe837;" d="m773 200c-37 0-70-17-93-42l-198 114c10 24 16 50 16 78s-6 54-16 78l171 99c25-32 64-52 107-52 76 0 138 62 138 138s-62 137-138 137-137-62-137-138c0-14 2-28 6-41l-172-100c-37 48-94 79-159 79-111 0-200-90-200-200s89-200 200-200c64 0 122 31 159 79l198-115c-5-12-7-25-7-39 0-69 56-125 125-125s125 56 125 125-56 125-125 125z m-13 500c48 0 88-39 88-87s-40-88-88-88-87 39-87 88 39 87 87 87z m-462-500c-83 0-150 67-150 150s67 150 150 150 150-67 150-150-68-150-150-150z m475-200c-42 0-75 34-75 75s33 75 75 75 75-34 75-75-34-75-75-75z" horiz-adv-x="1000" />
<glyph glyph-name="shop" unicode="&#xe838;" d="m850 225v-175c0-55-45-100-100-100h-500c-55 0-100 45-100 100v175c0 14 11 25 25 25s25-11 25-25v-175c0-28 22-50 50-50h500c28 0 50 22 50 50v175c0 14 11 25 25 25s25-11 25-25z m6 108c-48-38-114-38-162 0l-1 1c-27 21-64 22-93 3l-22-15c-22-15-47-22-72-22-29 0-58 9-81 28l-6 5c-27 22-65 23-94 4l-22-15c-48-32-109-29-153 6l-6 5c-44 35-60 95-40 147l85 222c11 29 40 48 70 48h482c31 0 59-19 70-48l85-222c20-53 4-112-40-147z m-7 129l-85 222c-4 10-13 16-23 16h-482c-10 0-19-6-23-16l-85-222c-13-32-3-68 24-90l6-5c27-21 65-23 94-4l23 15c22 15 47 22 71 22 29 0 58-9 81-28l6-5c27-21 65-23 94-4l23 15c47 32 108 29 152-6l2-1c29-23 69-22 98 1 27 21 37 58 24 90z m-124-387c14 0 25 11 25 25s-11 25-25 25h-450c-14 0-25-11-25-25s11-25 25-25h450z" horiz-adv-x="1000" />
<glyph glyph-name="video" unicode="&#xe839;" d="m900 525v125c0 55-45 100-100 100h-600c-55 0-100-45-100-100v-600c0-55 45-100 100-100h600c55 0 100 45 100 100v350c0 14-11 25-25 25s-25-11-25-25v-350c0-28-22-50-50-50h-600c-28 0-50 22-50 50v450h725c14 0 25 11 25 25z m-50 125v-100h-255l94 150h111c28 0 50-22 50-50z m-314-100h-191l94 150h191l-94-150z m-386 100c0 28 22 50 50 50h180l-94-150h-136v100z m301-251c-16 9-35 9-51 0s-25-25-25-43v-212c0-18 10-34 25-43 8-5 17-7 25-7 9 0 18 3 26 7l176 106c15 9 24 25 24 43s-9 34-24 43l-176 106z m-26-233v168c0 9 11 15 19 10l139-83c9-5 9-17 0-22l-139-83c-8-5-19 1-19 11z" horiz-adv-x="1000" />
<glyph glyph-name="up" unicode="&#xe83a;" d="m900 145c-6 0-13 2-18 7l-361 361c-15 15-39 16-53 2l-350-350c-10-10-26-10-35 0s-10 25 0 35l349 350c34 34 90 33 125-1l361-361c9-10 9-26 0-36-5-5-12-7-18-7z" horiz-adv-x="1000" />
<glyph glyph-name="unlock" unicode="&#xe83b;" d="m550 275c0-18-10-34-25-43v-107c0-14-11-25-25-25s-25 11-25 25v107c-15 9-25 25-25 43 0 28 22 50 50 50s50-22 50-50z m325 125v-100c0-207-168-375-375-375s-375 168-375 375v100c0 55 45 100 100 100h401c-1 3 0 7 1 10 30 79-12 174-91 203-78 30-173-12-203-91-5-12-19-19-32-14-13 5-20 19-15 32 40 103 165 159 268 120 101-38 156-158 122-260h99c55 0 100-45 100-100z m-50 0c0 28-22 50-50 50h-550c-28 0-50-22-50-50v-100c0-179 146-325 325-325s325 146 325 325v100z" horiz-adv-x="1000" />
<glyph glyph-name="trophy" unicode="&#xe83c;" d="m925 525c0 74-54 136-125 148v27c0 28-22 50-50 50h-500c-28 0-50-22-50-50v-27c-71-12-125-74-125-148 0-69 63-126 131-144 22-93 109-231 294-231 184 0 271 140 294 231 67 18 131 75 131 144z m-800 0c0 47 32 85 75 96v-185c-40 16-75 51-75 89z m375-325c-188 0-250 167-250 225v250c0 14 11 25 25 25h450c14 0 25-11 25-25v-250c0-50-60-225-250-225z m300 236v186c43-12 75-50 75-97 0-38-35-72-75-89z m-50-461c0-14-11-25-25-25h-450c-14 0-25 11-25 25s11 25 25 25h200v75c0 14 11 25 25 25s25-11 25-25v-75h200c14 0 25-11 25-25z" horiz-adv-x="1000" />
<glyph glyph-name="success" unicode="&#xe83d;" d="m714 521c11-7 15-23 7-34l-246-325c-4-7-11-11-18-12-1 0-2 0-3 0-6 0-12 2-17 7l-154 165c-10 9-11 25-1 35s25 11 35 1l132-144 230 300c7 11 23 15 35 7z m208-122c-21 192-175 348-367 373-278 34-512-200-476-478 23-185 170-336 354-364 122-19 236 15 324 82 12 9 14 27 3 38-9 9-23 9-34 2-77-60-178-89-287-72-161 25-290 158-311 320-30 238 162 440 397 424 178-11 326-151 347-328 12-97-14-187-64-259-7-10-6-23 3-32 11-11 29-10 38 3 57 81 85 182 73 291z" horiz-adv-x="1000" />
<glyph glyph-name="sort" unicode="&#xe83e;" d="m425 696v-696c0-14-11-25-25-25s-25 11-25 25v660c0 11-13 16-21 8l-158-157c-9-10-25-10-35 0s-10 26 0 35l178 185c32 32 86 10 86-35z m421-489c-10 10-26 10-35 0l-160-154c-8-8-26-2-26 9v659c0 14-11 25-25 25s-25-11-25-25v-696c0-45 60-67 91-35l177 182c10 10 13 26 3 35z" horiz-adv-x="1000" />
<glyph glyph-name="smile" unicode="&#xe83f;" d="m849 108c-9-13-27-14-38-3-9 9-10 22-3 32 50 72 76 162 64 259-21 177-169 317-347 328-234 16-427-186-397-424 21-162 150-294 311-320 109-17 210 12 287 72 11 7 25 7 34-2 11-11 9-29-3-38-88-67-202-101-324-82-184 29-331 179-354 364-36 279 198 513 476 478 192-25 346-181 367-373 12-108-16-210-73-291z m-562 189c-12-6-17-21-11-33 43-86 128-139 224-139s181 53 224 139c6 12 1 27-11 33-13 7-28 2-34-11-34-68-102-111-179-111s-145 43-179 111c-6 12-21 18-34 11z m88 153v50c0 14-11 25-25 25s-25-11-25-25v-50c0-14 11-25 25-25s25 11 25 25z m300 0v50c0 14-11 25-25 25s-25-11-25-25v-50c0-14 11-25 25-25s25 11 25 25z" horiz-adv-x="1000" />
<glyph glyph-name="shoppingcart" unicode="&#xe840;" d="m900 125c0-14-11-25-25-25h-575c-55 0-100 45-100 100v456c0 36-36 69-75 69-14 0-25 11-25 25s11 25 25 25c67 0 125-55 125-119v-381h500c16 0 35 7 51 58l49 195c-1 26-23 47-50 47h-450c-14 0-25 11-25 25s11 25 25 25h450c55 0 100-45 100-100 0-2 0-4-1-6l-50-200c-8-24-30-94-99-94h-500v-25c0-28 22-50 50-50h575c14 0 25-11 25-25z m-650-75c-28 0-50-22-50-50s22-50 50-50 50 22 50 50c0 28-22 50-50 50z m575 0c-28 0-50-22-50-50s22-50 50-50 50 22 50 50c0 28-22 50-50 50z" horiz-adv-x="1000" />
<glyph glyph-name="pc" unicode="&#xe841;" d="m800 750h-600c-55 0-100-45-100-100v-450c0-55 45-100 100-100h200v-100h-75c-14 0-25-11-25-25s11-25 25-25h350c14 0 25 11 25 25s-11 25-25 25h-75v100h200c55 0 100 45 100 100v450c0 55-45 100-100 100z m-350-750v100h100v-100h-100z m400 200c0-28-22-50-50-50h-600c-28 0-50 22-50 50v25h700v-25z m0 75h-700v375c0 28 22 50 50 50h600c28 0 50-22 50-50v-375z" horiz-adv-x="1000" />
<glyph glyph-name="pause-circle" unicode="&#xe842;" d="m849 108c-9-13-27-14-38-3-9 9-10 22-3 32 50 72 76 162 64 259-21 177-169 317-347 328-234 16-427-186-397-424 21-162 150-294 311-320 109-17 210 12 287 72 11 7 25 7 34-2 11-11 9-29-3-38-88-67-202-101-324-82-184 29-331 179-354 364-36 279 198 513 476 478 192-25 346-181 367-373 12-108-16-210-73-291z m-499 417v-350c0-14 11-25 25-25s25 11 25 25v350c0 14-11 25-25 25s-25-11-25-25z m250 0v-350c0-14 11-25 25-25s25 11 25 25v350c0 14-11 25-25 25s-25-11-25-25z" horiz-adv-x="1000" />
<glyph glyph-name="people" unicode="&#xe843;" d="m875-3c0-14-9-23-23-23s-24 9-24 23c0 134-80 249-194 300-4 2-7 3-12 5-16 7-21 28-7 40 2 2 7 7 9 9 40 33 64 82 64 138 0 111-96 200-209 188-84-10-152-77-164-159-9-66 16-127 61-167 0 0 8-8 9-9 14-12 10-33-7-40-3-1-7-3-11-5-99-44-174-138-190-248-3-14 9-28 23-28h534c12 0 24-12 24-24s-12-23-24-23h-562c-26 0-47 23-45 51 10 132 90 246 202 305-40 42-63 98-63 159 0 143 129 258 279 232 93-18 168-93 185-187 14-80-12-153-59-204 122-63 204-188 204-333z m-752 217c34 72 92 116 92 116l18 14-11 19c-74 124-6 217-2 222 8 11 6 26-5 35s-26 6-35-5c-3-4-86-113-12-259-22-20-63-62-90-120-6-13-1-28 11-33 4-2 7-3 11-3 9 0 18 5 23 14z m788-11c12 5 18 20 12 33-28 58-69 100-91 120 74 146-9 255-12 259-9 11-24 13-35 5s-13-24-5-35c3-4 73-97-1-222l-12-19 18-14c1 0 58-44 93-116 4-9 13-14 22-14 4 0 7 1 11 3z" horiz-adv-x="1000" />
<glyph glyph-name="person" unicode="&#xe844;" d="m900-26c0-15-10-25-25-25s-25 10-25 25c0 143-85 265-207 320-3 3-8 3-13 5-17 8-22 30-7 43 2 2 7 7 10 10 42 35 67 87 67 147 0 118-102 213-222 200-90-10-163-82-175-170-10-70 17-135 65-177 2-5 5-8 10-10 15-13 10-35-8-43-5 0-7-2-12-5-105-47-185-147-203-265-2-15 10-30 25-30h570c13 0 25-12 25-25s-12-25-25-25h-600c-27 0-50 25-47 55 10 140 95 263 215 325-43 45-68 105-68 170 0 153 138 275 298 248 100-20 180-100 197-200 15-85-12-163-62-218 130-67 217-200 217-355z" horiz-adv-x="1000" />
<glyph glyph-name="phone" unicode="&#xe845;" d="m711-47c-11 0-24 1-38 3-55 9-173 50-344 227-160 165-195 298-202 362-6 54 2 90 27 124 28 37 107 102 177 69 44-22 122-152 134-189 11-38-10-58-24-72-9-8-16-16-19-27-5-15 15-57 68-111 64-68 92-79 103-76 11 3 18 10 26 19 13 13 36 35 73 21 36-13 150-103 175-141 7-12 3-28-8-35-12-7-28-4-35 8-18 29-123 112-150 122-6 2-6 2-19-11-11-11-26-25-50-31-47-12-100 36-151 89-44 46-94 111-81 160 7 24 22 38 33 49 13 13 13 14 11 21-11 36-84 147-108 159-39 19-97-30-114-54-15-20-23-42-18-88 6-58 38-179 188-334 166-172 276-205 316-211 44-7 65 0 85 15 6 4 14 12 22 21 9 10 25 11 35 2s11-25 2-35c-10-12-21-22-30-29-25-18-51-27-84-27z" horiz-adv-x="1000" />
<glyph glyph-name="play-circle" unicode="&#xe846;" d="m425 479l217-131-217-131v258z m75 296c-253 0-454-221-421-481 23-185 170-336 354-364 23-3 45-5 67-5 97 0 186 32 257 87 12 9 14 27 3 38-5 5-11 7-18 7-5 0-11-2-16-5-62-48-141-77-226-77-20 0-40 2-61 5-161 26-290 158-311 320-29 229 149 425 372 425 8 0 17 0 25-1 178-11 326-151 347-328 12-97-14-187-64-259-7-10-6-23 3-32 5-5 11-8 18-8 8 0 16 4 20 11 57 81 85 182 73 291-21 192-175 348-367 373-18 2-37 3-55 3v0z m-97-225c-14 0-28-10-28-26v-348c0-16 14-27 28-27 5 0 11 2 16 5l283 174c17 11 18 33 0 44l-283 174c-5 3-10 4-16 4v0z" horiz-adv-x="1000" />
<glyph glyph-name="praise" unicode="&#xe847;" d="m878 410c-21 27-52 40-86 40h-196c-6 0-12 5-9 11 0 0 3 8 8 16 13 23 31 57 40 100l1 6c8 41 26 137-66 163-8 3-16 4-24 4-59 0-83-55-101-99-6-13-11-26-18-39-44-87-80-90-127-113-46-24-75-46-75-99v-350c0-59 41-100 100-100h400c48 0 93 32 105 79l66 288c9 33 2 66-18 93z m-34-78l-65-289c-7-23-30-43-54-43h-400c-30 0-50 20-50 50v350c0 31 42 45 50 49 56 29 104 47 150 139 28 55 39 108 71 108 3 0 6 0 9-1 48-13 36-63 27-107-12-65-53-101-53-134 0-31 19-54 53-54h210c36 0 62-34 53-68z m-694-307c0-14-11-25-25-25v0c-14 0-25 11-25 25v375c0 14 11 25 25 25v0c14 0 25-11 25-25v-375z" horiz-adv-x="1000" />
<glyph glyph-name="present" unicode="&#xe848;" d="m800 550h-101c29 25 60 57 74 90 17 40 6 87-26 114-40 34-100 31-161-8-110-71-111-239-111-246v-125h-300c-14 0-25 11-25 25v50c0 28 23 50 50 50h175c3 0 6 1 9 2 1 0 1 1 2 1 2 1 4 2 5 3 1 1 2 2 2 2 2 2 3 4 4 6 1 1 1 1 1 2 0 0 0 0 0 0 1 1 1 3 1 5s1 2 1 4c0 0 0 0 0 0 0 3-1 5-1 7-1 1-1 2-1 3-1 1-2 2-2 3-1 2-2 4-3 5-1 1-2 1-3 1-2 2-3 3-6 4 0 0 0 0 0 0-43 17-93 57-112 90-4 6-8 23-4 40 4 11 10 20 20 25 15 9 29 11 44 7 34-11 63-55 71-71 6-12 21-18 33-11 12 6 18 21 12 33-2 3-39 78-101 97-28 8-57 5-84-11-22-13-36-32-43-57-8-30-1-61 9-78 12-21 32-43 56-62h-85c-55 0-100-45-100-100v-75c0-22 14-41 34-47 10-4 16-14 16-25v-253c0-55 45-100 100-100h500c55 0 100 45 100 100v253c0 11 6 21 16 25 20 7 34 26 34 47v75c0 55-45 100-100 100z m-550-550c-27 0-50 23-50 50v250c0 14 11 25 25 25h250v-325h-225z m550 50c0-27-22-50-50-50h-225v325h250c14 0 25-11 25-25v-250z m50 350c0-14-11-25-25-25h-300v125c0 2 1 147 89 204 40 26 78 31 100 12 16-13 21-36 13-56-19-44-90-97-116-114 0-1-1-1-1-2-2-1-3-2-4-3-1-2-2-3-3-4 0-2-1-3-1-5s-1-3-1-4c-1-1-1-2-1-3 0-1 0-1 0-2 1-2 1-3 1-5 1-2 2-3 2-5 1 0 1-1 1-2 1 0 1-1 2-1 1-2 2-3 3-4 2-1 3-2 4-3 2 0 3-1 5-2s3 0 4-1c1 0 2 0 3 0h175c28 0 50-23 50-50v-50z" horiz-adv-x="1000" />
<glyph glyph-name="rank" unicode="&#xe849;" d="m850 100v550c0 28-22 50-50 50h-600c-28 0-50-22-50-50v-600c0-28 22-50 50-50h675c14 0 25-11 25-25s-11-25-25-25h-675c-55 0-100 45-100 100v600c0 55 45 100 100 100h600c55 0 100-45 100-100v-550c0-14-11-25-25-25s-25 11-25 25z m-575 250v-200c0-14 11-25 25-25s25 11 25 25v200c0 14-11 25-25 25s-25-11-25-25z m200 200v-400c0-14 11-25 25-25s25 11 25 25v400c0 14-11 25-25 25s-25-11-25-25z m200-125v-275c0-14 11-25 25-25s25 11 25 25v275c0 14-11 25-25 25s-25-11-25-25z" horiz-adv-x="1000" />
<glyph glyph-name="record" unicode="&#xe84a;" d="m500 125c124 0 225 101 225 225v200c0 124-101 225-225 225s-225-101-225-225v-200c0-124 101-225 225-225z m-175 425c0 97 79 175 175 175s175-78 175-175v-200c0-96-78-175-175-175s-175 79-175 175v200z m200-549v-51c0-14-11-25-25-25s-25 11-25 25v51c-181 13-325 165-325 349 0 14 11 25 25 25s25-11 25-25c0-165 135-300 300-300s300 135 300 300c0 14 11 25 25 25s25-11 25-25c0-185-144-336-325-349z" horiz-adv-x="1000" />
<glyph glyph-name="map" unicode="&#xe84b;" d="m480 176c5-3 11-5 16-5s12 2 16 5c8 7 195 165 195 364 0 116-95 210-211 210s-210-94-210-210c0-199 186-357 194-364z m16 524c89 0 161-72 161-160 0-144-117-269-161-311-43 42-160 167-160 311 0 88 72 160 160 160z m404-209v-416c0-10-6-19-15-23l-235-100c-3-1-6-2-9-2-3 0-6 0-8 1l-282 97-216-96c-8-3-16-3-24 2-7 5-11 12-11 21v422c0 9 5 18 13 22l100 53c12 7 28 2 34-10s2-28-10-34l-87-46v-368l190 84c6 2 12 3 18 1l282-97 210 90v362l-66-27c-12-5-27 1-32 14s1 27 14 32l100 41c7 3 16 2 23-3 7-4 11-12 11-20z m-400 34c-28 0-50 22-50 50s22 50 50 50 50-22 50-50c0-28-22-50-50-50z" horiz-adv-x="1000" />
<glyph glyph-name="mail" unicode="&#xe84c;" d="m800 700h-600c-55 0-100-45-100-100v-64h1c0-6 2-10 7-15l317-244c38-37 113-37 150 0l318 244c4 5 6 9 6 15h1v64c0 55-45 100-100 100z m50-151l-300-222c-25-25-75-25-100 0l-300 222v51c0 28 22 50 50 50h600c28 0 50-22 50-50v-51z m50-150v-299c0-55-45-100-100-100h-600c-55 0-100 45-100 100v299c0 14 11 25 25 25s25-11 25-25v-299c0-28 22-50 50-50h600c28 0 50 22 50 50v299c0 14 11 25 25 25s25-11 25-25z" horiz-adv-x="1000" />
<glyph glyph-name="love" unicode="&#xe84d;" d="m484-45c-4 0-8 1-11 3-131 68-231 150-306 251-66 88-95 176-89 268 7 118 100 212 220 223 68 6 146-46 186-78 9-7 23-7 32 0 29 24 84 66 128 77 67 17 133 4 185-36 58-43 93-113 96-192 2-80-20-157-68-229-62-95-145-174-255-242-11-8-27-4-34 8s-4 27 8 34c103 65 182 139 240 227 42 65 61 130 59 200-3 64-30 120-76 154-40 31-91 40-143 28-25-7-65-32-109-67-27-23-66-23-94-1-58 45-114 70-151 67-95-9-169-83-175-176-5-82 21-156 80-235 71-95 165-173 289-237 12-7 17-22 10-34-4-8-13-13-22-13z" horiz-adv-x="1000" />
<glyph glyph-name="lock" unicode="&#xe84e;" d="m300 575c0 107 93 200 200 200s200-93 200-200c0-14-11-25-25-25s-25 11-25 25c0 80-70 150-150 150s-150-70-150-150c0-14-11-25-25-25s-25 11-25 25z m200-250c-28 0-50-22-50-50 0-18 10-34 25-43v-107c0-14 11-25 25-25s25 11 25 25v107c15 9 25 25 25 43 0 28-22 50-50 50z m375 75v-100c0-207-168-375-375-375s-375 168-375 375v100c0 55 45 100 100 100h550c55 0 100-45 100-100z m-50 0c0 28-22 50-50 50h-550c-28 0-50-22-50-50v-100c0-179 146-325 325-325s325 146 325 325v100z" horiz-adv-x="1000" />
<glyph glyph-name="left-circle" unicode="&#xe84f;" d="m500 767c-229 0-417-188-417-417 0-229 188-417 417-417 229 0 417 188 417 417 0 229-188 417-417 417z m0-917c-275 0-500 225-500 500 0 275 225 500 500 500 275 0 500-225 500-500 0-275-225-500-500-500z m-54 500l162 163c17 16 17 41 0 58-16 17-41 17-58 0l-192-192c-16-17-16-42 0-58l192-192c17-17 42-17 58 0s17 42 0 58l-162 163z" horiz-adv-x="1000" />
<glyph glyph-name="info-circle" unicode="&#xe850;" d="m500 450c14 0 25-11 25-25v-300c0-14-11-25-25-25s-25 11-25 25v300c0 14 11 25 25 25z m25 125c0 14-11 25-25 25s-25-11-25-25v-50c0-14 11-25 25-25s25 11 25 25v50z m397-176c-21 192-175 348-367 373-278 34-512-200-476-478 23-185 170-336 354-364 122-19 236 15 324 82 12 9 14 27 3 38-9 9-23 9-34 2-77-60-178-89-287-72-161 25-290 158-311 320-30 238 162 440 397 424 178-11 326-151 347-328 12-97-14-187-64-259-7-10-6-23 3-32 11-11 29-10 38 3 57 81 85 182 73 291z" horiz-adv-x="1000" />
<glyph glyph-name="image" unicode="&#xe851;" d="m650 400c55 0 100 45 100 100s-45 100-100 100-100-45-100-100 45-100 100-100z m0 150c28 0 50-22 50-50s-22-50-50-50-50 22-50 50 22 50 50 50z m144-374c8-8 10-20 5-29-9-17-30-20-43-7l-94 95c-9 10-24 11-34 3l-68-54c-21-17-53-14-70 9l-125 160c-9 12-27 13-37 2l-85-85c-10-10-26-10-36 0s-9 26 0 35l105 105c22 22 57 19 75-4l127-163c8-11 24-13 35-4l69 55c20 16 50 14 68-5l108-113z m6 574h-600c-55 0-100-45-100-100v-600c0-55 45-100 100-100h600c55 0 100 45 100 100v600c0 55-45 100-100 100z m50-700c0-28-22-50-50-50h-600c-28 0-50 22-50 50v600c0 28 22 50 50 50h600c28 0 50-22 50-50v-600z" horiz-adv-x="1000" />
<glyph glyph-name="image-circle" unicode="&#xe852;" d="m849 108c-9-13-27-14-38-3 0 0 0 0-1 0-1 1-2 1-3 2l-157 158-101-101-200 225-106-107c-10-9-26-9-36 0s-9 26 0 36l144 143 200-225 99 99 174-173c39 67 59 148 48 234-21 177-169 317-347 328-234 16-427-186-397-424 21-162 150-294 311-320 109-17 210 12 287 72 11 7 25 7 34-2 11-11 9-29-3-38-88-67-202-101-324-82-184 29-331 179-354 364-36 279 198 513 476 478 192-25 346-181 367-373 13-108-16-210-72-291z m-249 317c-55 0-100 45-100 100s45 100 100 100 100-45 100-100-45-100-100-100z m0 50c28 0 50 22 50 50s-22 50-50 50-50-22-50-50 22-50 50-50z" horiz-adv-x="1000" />
<glyph glyph-name="hujiangst" unicode="&#xe853;" d="m179 75c-5 1-10 3-14 7-10 10-10 27 0 37l162 172c58 62 61 82 23 161l-108 210c-6 13-1 28 11 35s27 2 34-10l107-211c48-99 42-142-31-221l-163-172c-5-6-14-9-21-8z m165-109l130 198c50 73 68 80 149 58l223-65c13-3 27 5 31 18s-4 28-17 32l-223 64c-102 29-141 14-204-77l-130-199c-8-12-5-28 6-36 3-2 7-4 10-4 9-2 19 2 25 11z m296 397l230-23c14-1 26 9 28 23 1 15-8 27-22 29l-230 23c-86 11-100 24-118 108l-47 233c-3 14-16 23-29 19-14-3-23-16-20-30l47-234c19-91 45-125 122-141 12-3 24-5 39-7z m94 207c26-5 51 12 57 38s-11 52-36 58-51-12-57-38c-5-26 11-52 36-58z m-597-197c26-5 51 12 57 38s-11 52-37 57-50-11-56-37c-5-27 11-52 36-58z m466-422c26-5 51 12 57 38s-11 52-37 57-50-11-56-38c-5-26 11-52 36-57z" horiz-adv-x="1000" />
<glyph glyph-name="hujiangcoin" unicode="&#xe854;" d="m849 108c-9-13-27-14-38-3-9 9-10 22-3 32 50 72 76 162 64 259-21 177-169 317-347 328-234 16-427-186-397-424 21-162 150-294 311-320 109-17 210 12 287 72 11 7 25 7 34-2 11-11 9-29-3-38-88-67-202-101-324-82-184 29-331 179-354 364-36 279 198 513 476 478 192-25 346-181 367-373 12-108-16-210-73-291z m-214 252c-13-4-21-17-18-31s17-21 30-18c98 24 130 94 119 154-9 45-56 83-129 70-91-17-119-114-120-118l-75-275c-3-14 4-27 18-31 2-1 4-1 6-1 11 0 21 7 24 19l75 274c1 1 21 72 81 83 41 7 67-10 71-31 6-33-11-78-82-96z m-292 121c60 11 112-46 113-47 9-11 25-12 35-3 11 9 12 25 3 35-3 4-71 81-160 64-30-6-55-23-70-49-17-27-21-60-13-88 20-66 83-96 143-96 13 0 25 1 36 4 14 2 22 16 20 29-3 14-16 22-30 20-47-10-106 7-121 57-4 15-1 33 7 48 6 10 18 22 37 26z" horiz-adv-x="1000" />
<glyph glyph-name="download-circle" unicode="&#xe855;" d="m849 108c-9-13-27-14-38-3-9 9-10 22-3 32 50 72 76 162 64 259-21 177-169 317-347 328-234 16-427-186-397-424 21-162 150-294 311-320 109-17 210 12 287 72 11 7 25 7 34-2 11-11 9-29-3-38-88-67-202-101-324-82-184 29-331 179-354 364-36 279 198 513 476 478 192-25 346-181 367-373 12-108-16-210-73-291z m-349 467c-14 0-25-11-25-25v-368c-3 1-5 3-7 6l-150 172c-10 10-25 10-35 0s-10-25 0-35l150-170c17-17 42-30 67-30s50 13 68 30l150 170c10 10 10 25 0 35s-25 10-35 0l-150-172c-3-3-5-5-8-6v368c0 14-11 25-25 25z" horiz-adv-x="1000" />
<glyph glyph-name="download" unicode="&#xe856;" d="m718 185c10-10 10-25 0-35l-150-170c-18-18-43-30-68-30s-50 12-67 30l-150 170c-10 10-10 25 0 35s25 10 35 0l150-172c2-3 4-5 7-6v368c0 14 11 25 25 25s25-11 25-25v-368c3 1 5 3 8 6l150 172c10 10 25 10 35 0z m29 353c-19 120-122 212-247 212-133 0-241-103-249-234-87-27-151-108-151-204 0-52 22-100 57-137 15-17 43-6 43 17 0 6-3 12-7 17-26 28-43 64-43 103 0 69 43 128 103 151 15 7 32 10 49 11-1 9-2 17-2 26 0 8 1 16 2 24 12 99 96 176 198 176 93 0 172-64 194-151 4-16 6-32 6-49 0-1 0-1 0-2 17-3 34-8 49-15 60-28 101-88 101-158 0-44-16-84-43-115-5-5-7-10-7-17v0c0-23 29-33 44-16 35 40 56 91 56 148 0 99-64 183-153 213z" horiz-adv-x="1000" />
<glyph glyph-name="earphone" unicode="&#xe857;" d="m500 700c-155 0-275-120-275-270v-30c0-15-10-25-25-25s-25 10-25 25v30c0 180 143 320 325 320s325-140 325-320v-30c0-15-10-25-25-25s-25 10-25 25v30c0 150-120 270-275 270z m-150-400v-300c0-23-17-38-45-45-12-3-27-5-40-5-105 0-190 90-190 200s85 200 190 200c15 0 28-2 40-5 28-7 45-22 45-45z m-50-5c-2 0-2 3-5 3-10 2-20 2-30 2-77 0-140-67-140-150s63-150 140-150c10 0 20 0 30 3 3 0 5 2 8 2v290z m625-145c0-110-85-200-190-200-15 0-27 2-40 5-27 7-45 22-45 45v300c0 23 18 38 45 45 13 3 28 5 40 5 105 0 190-90 190-200z m-50 0c0 83-62 150-140 150-10 0-20 0-30-2-2 0-5-3-7-3v-290c2 0 2-2 5-2 12-3 22-3 32-3 78 0 140 68 140 150z" horiz-adv-x="1000" />
<glyph glyph-name="edit" unicode="&#xe858;" d="m849 646l-78 78c-39 39-103 39-142 0l-31-31c-10-10-10-26 0-36s25-9 35 0l32 32c19 20 51 20 70 0l79-78c19-20 19-52 0-71l-434-434-149 149 318 318 83-90c9-10 25-11 35-1 10 9 11 25 2 35l-83 90c-8 9-19 15-31 16-15 1-30-3-41-14l-341-341-74-230-1-5c-2-16 4-33 16-45 10-10 23-15 37-15 3 0 5 0 7 0l235 75 456 456c39 39 39 103 0 142z m-698-623c-1 0-2 0-2 1s-1 1-1 2l58 182 127-127-182-58z" horiz-adv-x="1000" />
<glyph glyph-name="camera" unicode="&#xe859;" d="m500 100c110 0 200 90 200 200s-90 200-200 200-200-90-200-200 90-200 200-200z m0 350c83 0 150-67 150-150s-67-150-150-150-150 67-150 150 67 150 150 150z m-184 189l23 45c13 25 38 41 67 41h188c29 0 54-16 67-41l23-45c6-13 1-28-12-34-3-2-7-2-11-2-9 0-18 5-22 13l-23 45c-4 9-12 14-22 14h-188c-10 0-18-5-22-14l-23-45c-6-12-21-17-33-11s-18 21-12 34z m584-89v-475c0-55-45-100-100-100h-600c-55 0-100 45-100 100v475c0 55 45 100 100 100h25c14 0 25-11 25-25s-11-25-25-25h-25c-28 0-50-22-50-50v-475c0-28 22-50 50-50h600c28 0 50 22 50 50v475c0 28-22 50-50 50h-25c-14 0-25 11-25 25s11 25 25 25h25c55 0 100-45 100-100z m-200-25h50c14 0 25-11 25-25s-11-25-25-25h-50c-14 0-25 11-25 25s11 25 25 25z" horiz-adv-x="1000" />
<glyph glyph-name="card" unicode="&#xe85a;" d="m800 550c-14 0-25 11-25 25v89c0 8-3 15-9 20-4 3-11 7-21 5l-391-64c-14-2-26 7-29 21s7 27 21 29l390 63c22 4 44-1 62-16 17-14 27-35 27-58v-89c0-14-11-25-25-25z m40-581c22 19 35 49 35 81v79c0 12-8 22-19 24-24 7-62 24-56 72 4 31 34 43 55 47 12 3 20 13 20 25v103c0 49-33 86-91 100l-559 100c-22 4-44-2-63-17-23-19-37-51-37-83v-350c0-35 15-81 91-100l560-100c4 0 8-1 12-1 19 0 37 7 52 20z m-624 581l558-99c19-5 51-18 51-51v-84c-41-15-70-49-74-90-6-49 25-95 74-115v-61c0-17-7-34-18-43-6-6-14-9-23-7l-558 99c-45 12-51 32-51 51v350c0 17 8 35 19 45 5 4 11 6 16 6 2 0 4 0 6-1z" horiz-adv-x="1000" />
<glyph glyph-name="education" unicode="&#xe85b;" d="m937 547l-425 225c-8 4-17 4-24 0l-425-239c-8-4-13-13-13-22s6-18 14-22l425-211c3-2 7-3 11-3 4 0 8 1 12 3l425 225c8 4 13 13 13 22s-5 18-13 22z m-437-219l-371 185 371 209 372-197-372-197z m325-3v-185c0-16-5-31-14-43l-4-6c-33-45-120-166-307-166-203 0-293 135-316 176-6 11-9 23-9 36v188c0 14 11 25 25 25s25-11 25-25v-188c0-4 1-8 3-12 20-35 97-150 272-150 162 0 235 102 266 145l4 6c3 4 5 9 5 14v185c0 14 11 25 25 25s25-11 25-25z m100 75v-275c0-14-11-25-25-25s-25 11-25 25v275c0 14 11 25 25 25s25-11 25-25z" horiz-adv-x="1000" />
<glyph glyph-name="enter" unicode="&#xe85c;" d="m325-75c-6 0-13 2-18 7-9 10-9 26 0 36l361 361c16 15 16 39 2 53l-350 350c-10 10-10 26 0 36s26 9 35 0l350-350c34-34 33-90-1-125l-361-361c-5-5-12-7-18-7z" horiz-adv-x="1000" />
<glyph glyph-name="category" unicode="&#xe85d;" d="m285 750c-102-1-184-83-185-185-1-49 19-96 54-132 36-37 87-58 139-58h119c35 0 63 28 63 63v119c0 52-21 103-58 139-36 36-83 54-132 54z m140-312c0-7-6-13-13-13h-119c-39 0-76 16-104 43-25 27-39 61-39 96 1 75 61 135 136 136 0 0 1 0 2 0 35 0 68-14 94-39 27-27 43-65 43-104v-119z m163-63h119c52 0 103 21 139 58 36 36 55 83 54 132-1 102-83 184-185 185-1 0-2 0-2 0-49 0-95-19-130-54-37-36-58-87-58-139v-119c0-35 28-63 63-63z m-13 182c0 39 16 77 43 104 26 25 60 39 95 39 0 0 1 0 1 0 75-1 135-61 136-136 0-35-14-69-39-96-28-27-65-43-104-43h-119c-7 0-13 6-13 13v119z m271-290c36-36 55-83 54-132-1-102-83-184-185-185-1 0-2 0-2 0-49 0-95 19-130 54-37 36-58 87-58 139v32c0 14 11 25 25 25s25-11 25-25v-32c0-39 16-77 43-104 27-26 60-39 96-39 75 1 135 61 136 136 0 35-13 69-39 96-27 27-65 43-104 43h-157c-14 0-25 11-25 25s11 25 25 25h157c52 0 103-21 139-58z m-434 58h-119c-52 0-103-21-139-58-35-36-55-83-54-132 1-102 83-184 185-185 1 0 2 0 3 0 48 0 94 19 129 54 37 36 58 87 58 139v119c0 35-28 63-63 63z m13-182c0-39-16-77-43-104-26-26-61-39-96-39-75 1-135 61-136 136 0 35 14 69 39 96 28 27 65 43 104 43h119c7 0 13-6 13-13v-119z" horiz-adv-x="1000" />
<glyph glyph-name="chat" unicode="&#xe85e;" d="m533-50c-8 0-15 3-20 9l-105 128h-228c-43 0-78 36-78 79v506c0 43 35 78 78 78h640c43 0 78-35 78-78v-506c0-43-35-79-78-79l-211 0c0 0 0 0 0 0-14 0-25 11-25 25-1 14 11 25 24 25l212 0c15 0 28 13 28 29v506c0 15-13 28-28 28h-640c-15 0-28-13-28-28v-506c0-16 13-29 28-29h240c7 0 14-3 19-9l113-137c9-11 7-26-4-35-4-4-10-6-15-6z m205 575c0 14-12 25-25 25h-400c-14 0-25-11-25-25s11-25 25-25h400c13 0 25 11 25 25z m-225-175c0 14-12 25-25 25h-175c-14 0-25-11-25-25s11-25 25-25h175c13 0 25 11 25 25z" horiz-adv-x="1000" />
<glyph glyph-name="error" unicode="&#xe85f;" d="m849 108c-9-13-27-14-38-3-9 9-10 22-3 32 50 72 76 162 64 259-21 177-169 317-347 328-234 16-427-186-397-424 21-162 150-294 311-320 109-17 210 12 287 72 11 7 25 7 34-2 11-11 9-29-3-38-88-67-202-101-324-82-184 29-331 179-354 364-36 279 198 513 476 478 192-25 346-181 367-373 12-108-16-210-73-291z m-161 430c-10 9-26 9-36 0l-152-153-152 153c-10 9-26 9-35 0s-10-26 0-36l152-152-152-152c-10-10-10-26 0-35s25-10 35 0l152 152 152-152c10-10 26-10 36 0s9 25 0 35l-153 152 153 152c9 10 9 26 0 36z" horiz-adv-x="1000" />
<glyph glyph-name="exit-circle" unicode="&#xe860;" d="m475 375v375c0 14 11 25 25 25s25-11 25-25v-375c0-14-11-25-25-25s-25 11-25 25z m158 327c-13 5-27-2-31-15s2-27 15-32c139-49 233-182 233-330 0-193-157-350-350-350s-350 157-350 350c0 148 94 281 233 330 13 5 20 19 16 32s-19 20-32 15c-160-56-267-208-267-377 0-221 179-400 400-400s400 179 400 400c0 169-107 321-267 377z" horiz-adv-x="1000" />
<glyph glyph-name="class" unicode="&#xe861;" d="m600 674v50c23-2 47-4 70-9 13-3 26 5 29 18s-5 27-18 30c-35 8-70 12-106 12-201 0-381-127-448-317-4-13 2-27 15-32 3-1 6-1 9-1 10 0 20 6 23 17 57 161 206 272 376 282v-50c-195-13-350-176-350-374 0-207 168-375 375-375s375 168 375 375c0 198-155 361-350 374z m-25-699c-179 0-325 146-325 325s146 325 325 325 325-146 325-325-146-325-325-325z m0 450c-69 0-125-56-125-125s56-125 125-125 125 56 125 125-56 125-125 125z m0-200c-41 0-75 34-75 75s34 75 75 75 75-34 75-75-34-75-75-75z m-400 100c0-28-22-50-50-50s-50 22-50 50c0 28 22 50 50 50s50-22 50-50z" horiz-adv-x="1000" />
<glyph glyph-name="clock" unicode="&#xe862;" d="m525 724c0 0 0 1 0 1v50c0 14-11 25-25 25s-25-11-25-25v-50c0 0 0-1 0-1-209-13-375-187-375-399 0-221 179-400 400-400s400 179 400 400c0 212-166 386-375 399z m-25-749c-193 0-350 157-350 350s157 350 350 350 350-157 350-350-157-350-350-350z m-387 600c-5 0-10 2-15 5-11 8-14 23-6 35 12 17 26 33 40 48 31 34 66 63 105 87 12 8 27 4 34-8 8-12 4-27-8-34-35-22-67-48-95-79-12-13-24-28-35-43-5-7-13-11-20-11z m789 5c-5-3-10-5-15-5-7 0-15 4-20 11-12 16-25 32-39 47-25 27-54 51-85 71-12 7-15 23-8 35s23 15 35 7c35-22 66-49 95-79 15-16 30-34 43-52 8-12 5-27-6-35z m-226-394c9-10 9-26 0-35v0c-10-10-26-10-36 0l-154 154c-6 4-11 11-11 20v250c0 14 11 25 25 25s25-11 25-25v-238l151-151z" horiz-adv-x="1000" />
<glyph glyph-name="exit" unicode="&#xe863;" d="m800 50c0-55-45-100-100-100h-500c-55 0-100 45-100 100v600c0 55 45 100 100 100h500c55 0 100-45 100-100 0-14-11-25-25-25s-25 11-25 25c0 28-22 50-50 50h-500c-28 0-50-22-50-50v-600c0-28 22-50 50-50h500c28 0 50 22 50 50 0 14 11 25 25 25s25-11 25-25z m70 368l-152 142c-10 10-25 10-35 0s-10-25 0-35l155-142c2-3 4-8 5-8h-318c-14 0-25-11-25-25s11-25 25-25h318c-1 0-3-5-5-7l-155-143c-10-10-10-25 0-35s25-10 35 0l152 143c18 17 30 42 30 67s-12 50-30 68z" horiz-adv-x="1000" />
<glyph glyph-name="explore" unicode="&#xe864;" d="m900 350c0-221-179-400-400-400-43 0-85 7-125 20-13 4-20 18-16 32s19 20 32 15c35-11 72-17 109-17 193 0 350 157 350 350 0 37-6 74-17 109-5 13 2 28 16 32 13 4 27-3 31-16 13-40 20-82 20-125z m-316-84c-98-98-197-183-280-240-78-55-123-70-150-70-18 0-28 6-35 13-17 17-30 53 44 166-40 64-63 138-63 215 0 221 179 400 400 400 77 0 152-22 215-63 113 74 149 61 166 44 18-18 32-57-57-185-57-83-142-182-240-280z m175 389c17-14 32-30 47-48 26 43 39 73 39 86-8 0-32-4-86-38z m-514-613c-18 15-35 31-50 49-34-53-39-70-39-91 0 0 0 0 0 0 14 0 45 14 89 42z m304 257c104 104 179 195 228 264-66 86-168 137-277 137-193 0-350-157-350-350 0-109 52-212 138-278 69 49 158 124 261 227z m-118 51c0-53-42-95-95-95s-95 42-95 95 42 95 95 95c53 0 95-42 95-95z m-50 0c0 25-20 45-45 45s-45-20-45-45 20-45 45-45c25 0 45 20 45 45z" horiz-adv-x="1000" />
<glyph glyph-name="close" unicode="&#xe865;" d="m888-2c9-10 9-26 0-36s-26-9-36 0l-352 353-352-353c-10-9-26-9-35 0s-10 26 0 36l352 352-352 352c-10 10-10 26 0 36s25 9 35 0l352-353 352 353c10 9 26 9 36 0s9-26 0-36l-352-352 352-352z" horiz-adv-x="1000" />
</font>
</defs>
</svg>
